<mxfile modified="2024-05-10T08:04:05.096Z" host="app.diagrams.net" agent="Mozilla/5.0 (Windows NT 10.0; Win64; x64; rv:125.0) Gecko/20100101 Firefox/125.0" etag="2tapLTdpIIgoiHdN0_V4" version="24.3.1" type="github">
  <diagram id="Ht1M8jgEwFfnCIfOTk4-" name="Page-1">
    <mxGraphModel dx="1969" dy="1738" grid="1" gridSize="10" guides="1" tooltips="1" connect="1" arrows="1" fold="1" page="1" pageScale="1" pageWidth="1169" pageHeight="827" math="0" shadow="0">
      <root>
        <mxCell id="0" />
        <mxCell id="1" parent="0" />
        <mxCell id="8mGdIE1k2Qn3FHMWnjpY-1" value="VPC" style="points=[[0,0],[0.25,0],[0.5,0],[0.75,0],[1,0],[1,0.25],[1,0.5],[1,0.75],[1,1],[0.75,1],[0.5,1],[0.25,1],[0,1],[0,0.75],[0,0.5],[0,0.25]];outlineConnect=0;gradientColor=none;html=1;whiteSpace=wrap;fontSize=12;fontStyle=0;container=1;pointerEvents=0;collapsible=0;recursiveResize=0;shape=mxgraph.aws4.group;grIcon=mxgraph.aws4.group_vpc2;strokeColor=#8C4FFF;fillColor=none;verticalAlign=top;align=left;spacingLeft=30;fontColor=#AAB7B8;dashed=0;" vertex="1" parent="1">
          <mxGeometry x="20" y="-540" width="870" height="540" as="geometry" />
        </mxCell>
        <mxCell id="8mGdIE1k2Qn3FHMWnjpY-3" value="Private subnet" style="points=[[0,0],[0.25,0],[0.5,0],[0.75,0],[1,0],[1,0.25],[1,0.5],[1,0.75],[1,1],[0.75,1],[0.5,1],[0.25,1],[0,1],[0,0.75],[0,0.5],[0,0.25]];outlineConnect=0;gradientColor=none;html=1;whiteSpace=wrap;fontSize=12;fontStyle=0;container=1;pointerEvents=0;collapsible=0;recursiveResize=0;shape=mxgraph.aws4.group;grIcon=mxgraph.aws4.group_security_group;grStroke=0;strokeColor=#00A4A6;fillColor=#E6F6F7;verticalAlign=top;align=left;spacingLeft=30;fontColor=#147EBA;dashed=0;" vertex="1" parent="8mGdIE1k2Qn3FHMWnjpY-1">
          <mxGeometry y="210" width="820" height="320" as="geometry" />
        </mxCell>
        <mxCell id="8mGdIE1k2Qn3FHMWnjpY-6" value="" style="sketch=0;points=[[0,0,0],[0.25,0,0],[0.5,0,0],[0.75,0,0],[1,0,0],[0,1,0],[0.25,1,0],[0.5,1,0],[0.75,1,0],[1,1,0],[0,0.25,0],[0,0.5,0],[0,0.75,0],[1,0.25,0],[1,0.5,0],[1,0.75,0]];outlineConnect=0;fontColor=#232F3E;fillColor=#ED7100;strokeColor=#ffffff;dashed=0;verticalLabelPosition=bottom;verticalAlign=top;align=center;html=1;fontSize=12;fontStyle=0;aspect=fixed;shape=mxgraph.aws4.resourceIcon;resIcon=mxgraph.aws4.ec2;" vertex="1" parent="8mGdIE1k2Qn3FHMWnjpY-3">
          <mxGeometry x="270" y="160" width="78" height="78" as="geometry" />
        </mxCell>
        <mxCell id="8mGdIE1k2Qn3FHMWnjpY-41" style="edgeStyle=orthogonalEdgeStyle;rounded=0;orthogonalLoop=1;jettySize=auto;html=1;exitX=0;exitY=1;exitDx=0;exitDy=0;exitPerimeter=0;" edge="1" parent="8mGdIE1k2Qn3FHMWnjpY-3" source="8mGdIE1k2Qn3FHMWnjpY-7">
          <mxGeometry relative="1" as="geometry">
            <mxPoint x="170" y="-80" as="targetPoint" />
          </mxGeometry>
        </mxCell>
        <mxCell id="8mGdIE1k2Qn3FHMWnjpY-7" value="" style="sketch=0;points=[[0,0,0],[0.25,0,0],[0.5,0,0],[0.75,0,0],[1,0,0],[0,1,0],[0.25,1,0],[0.5,1,0],[0.75,1,0],[1,1,0],[0,0.25,0],[0,0.5,0],[0,0.75,0],[1,0.25,0],[1,0.5,0],[1,0.75,0]];outlineConnect=0;fontColor=#232F3E;fillColor=#ED7100;strokeColor=#ffffff;dashed=0;verticalLabelPosition=bottom;verticalAlign=top;align=center;html=1;fontSize=12;fontStyle=0;aspect=fixed;shape=mxgraph.aws4.resourceIcon;resIcon=mxgraph.aws4.ec2;" vertex="1" parent="8mGdIE1k2Qn3FHMWnjpY-3">
          <mxGeometry x="526" y="160" width="78" height="78" as="geometry" />
        </mxCell>
        <mxCell id="8mGdIE1k2Qn3FHMWnjpY-10" value="Zabbix" style="text;html=1;align=center;verticalAlign=middle;resizable=0;points=[];autosize=1;strokeColor=none;fillColor=none;" vertex="1" parent="8mGdIE1k2Qn3FHMWnjpY-3">
          <mxGeometry x="526" y="248" width="60" height="30" as="geometry" />
        </mxCell>
        <mxCell id="8mGdIE1k2Qn3FHMWnjpY-11" value="&lt;div&gt;Odoo&lt;/div&gt;" style="text;html=1;align=center;verticalAlign=middle;resizable=0;points=[];autosize=1;strokeColor=none;fillColor=none;" vertex="1" parent="8mGdIE1k2Qn3FHMWnjpY-3">
          <mxGeometry x="190" y="278" width="50" height="30" as="geometry" />
        </mxCell>
        <mxCell id="8mGdIE1k2Qn3FHMWnjpY-2" value="Public subnet" style="points=[[0,0],[0.25,0],[0.5,0],[0.75,0],[1,0],[1,0.25],[1,0.5],[1,0.75],[1,1],[0.75,1],[0.5,1],[0.25,1],[0,1],[0,0.75],[0,0.5],[0,0.25]];outlineConnect=0;gradientColor=none;html=1;whiteSpace=wrap;fontSize=12;fontStyle=0;container=1;pointerEvents=0;collapsible=0;recursiveResize=0;shape=mxgraph.aws4.group;grIcon=mxgraph.aws4.group_security_group;grStroke=0;strokeColor=#7AA116;fillColor=#F2F6E8;verticalAlign=top;align=left;spacingLeft=30;fontColor=#248814;dashed=0;" vertex="1" parent="8mGdIE1k2Qn3FHMWnjpY-1">
          <mxGeometry y="30" width="820" height="180" as="geometry" />
        </mxCell>
        <mxCell id="8mGdIE1k2Qn3FHMWnjpY-5" value="" style="sketch=0;points=[[0,0,0],[0.25,0,0],[0.5,0,0],[0.75,0,0],[1,0,0],[0,1,0],[0.25,1,0],[0.5,1,0],[0.75,1,0],[1,1,0],[0,0.25,0],[0,0.5,0],[0,0.75,0],[1,0.25,0],[1,0.5,0],[1,0.75,0]];outlineConnect=0;fontColor=#232F3E;fillColor=#ED7100;strokeColor=#ffffff;dashed=0;verticalLabelPosition=bottom;verticalAlign=top;align=center;html=1;fontSize=12;fontStyle=0;aspect=fixed;shape=mxgraph.aws4.resourceIcon;resIcon=mxgraph.aws4.ec2;" vertex="1" parent="8mGdIE1k2Qn3FHMWnjpY-2">
          <mxGeometry x="396" y="34" width="78" height="78" as="geometry" />
        </mxCell>
        <mxCell id="8mGdIE1k2Qn3FHMWnjpY-12" value="BastionHost" style="text;html=1;align=center;verticalAlign=middle;resizable=0;points=[];autosize=1;strokeColor=none;fillColor=none;" vertex="1" parent="8mGdIE1k2Qn3FHMWnjpY-2">
          <mxGeometry x="598" y="34" width="90" height="30" as="geometry" />
        </mxCell>
        <mxCell id="8mGdIE1k2Qn3FHMWnjpY-30" value="" style="sketch=0;outlineConnect=0;fontColor=#232F3E;gradientColor=none;fillColor=#8C4FFF;strokeColor=none;dashed=0;verticalLabelPosition=bottom;verticalAlign=top;align=center;html=1;fontSize=12;fontStyle=0;aspect=fixed;pointerEvents=1;shape=mxgraph.aws4.nat_gateway;rotation=-90;" vertex="1" parent="8mGdIE1k2Qn3FHMWnjpY-2">
          <mxGeometry x="130" y="19" width="78" height="78" as="geometry" />
        </mxCell>
        <mxCell id="8mGdIE1k2Qn3FHMWnjpY-32" value="Gateway NAT" style="text;html=1;align=center;verticalAlign=middle;resizable=0;points=[];autosize=1;strokeColor=none;fillColor=none;" vertex="1" parent="8mGdIE1k2Qn3FHMWnjpY-2">
          <mxGeometry x="30" y="43" width="100" height="30" as="geometry" />
        </mxCell>
        <mxCell id="8mGdIE1k2Qn3FHMWnjpY-37" style="edgeStyle=orthogonalEdgeStyle;rounded=0;orthogonalLoop=1;jettySize=auto;html=1;entryX=0.5;entryY=0;entryDx=0;entryDy=0;entryPerimeter=0;" edge="1" parent="8mGdIE1k2Qn3FHMWnjpY-1" source="8mGdIE1k2Qn3FHMWnjpY-5" target="8mGdIE1k2Qn3FHMWnjpY-6">
          <mxGeometry relative="1" as="geometry" />
        </mxCell>
        <mxCell id="8mGdIE1k2Qn3FHMWnjpY-38" style="edgeStyle=orthogonalEdgeStyle;rounded=0;orthogonalLoop=1;jettySize=auto;html=1;entryX=0.5;entryY=0;entryDx=0;entryDy=0;entryPerimeter=0;" edge="1" parent="8mGdIE1k2Qn3FHMWnjpY-1" source="8mGdIE1k2Qn3FHMWnjpY-5" target="8mGdIE1k2Qn3FHMWnjpY-7">
          <mxGeometry relative="1" as="geometry" />
        </mxCell>
        <mxCell id="8mGdIE1k2Qn3FHMWnjpY-40" style="edgeStyle=orthogonalEdgeStyle;rounded=0;orthogonalLoop=1;jettySize=auto;html=1;exitX=0;exitY=0;exitDx=0;exitDy=0;exitPerimeter=0;" edge="1" parent="8mGdIE1k2Qn3FHMWnjpY-1" source="8mGdIE1k2Qn3FHMWnjpY-6" target="8mGdIE1k2Qn3FHMWnjpY-30">
          <mxGeometry relative="1" as="geometry" />
        </mxCell>
        <mxCell id="8mGdIE1k2Qn3FHMWnjpY-44" style="edgeStyle=orthogonalEdgeStyle;rounded=0;orthogonalLoop=1;jettySize=auto;html=1;exitX=1;exitY=0.5;exitDx=0;exitDy=0;exitPerimeter=0;" edge="1" parent="1" source="8mGdIE1k2Qn3FHMWnjpY-4" target="8mGdIE1k2Qn3FHMWnjpY-17">
          <mxGeometry relative="1" as="geometry" />
        </mxCell>
        <mxCell id="8mGdIE1k2Qn3FHMWnjpY-4" value="" style="outlineConnect=0;dashed=0;verticalLabelPosition=bottom;verticalAlign=top;align=center;html=1;shape=mxgraph.aws3.internet_gateway;fillColor=#F58534;gradientColor=none;" vertex="1" parent="1">
          <mxGeometry x="420.5" y="-690" width="69" height="72" as="geometry" />
        </mxCell>
        <mxCell id="8mGdIE1k2Qn3FHMWnjpY-8" value="" style="sketch=0;outlineConnect=0;fontColor=#232F3E;gradientColor=none;fillColor=#E7157B;strokeColor=none;dashed=0;verticalLabelPosition=bottom;verticalAlign=top;align=center;html=1;fontSize=12;fontStyle=0;aspect=fixed;pointerEvents=1;shape=mxgraph.aws4.cloudwatch_logs;" vertex="1" parent="1">
          <mxGeometry x="1070" y="-640" width="78" height="58" as="geometry" />
        </mxCell>
        <mxCell id="8mGdIE1k2Qn3FHMWnjpY-14" value="CloudWatch Logs" style="text;html=1;align=center;verticalAlign=middle;resizable=0;points=[];autosize=1;strokeColor=none;fillColor=none;" vertex="1" parent="1">
          <mxGeometry x="1055" y="-582" width="120" height="30" as="geometry" />
        </mxCell>
        <mxCell id="8mGdIE1k2Qn3FHMWnjpY-15" value="Monitorization Alerts" style="text;html=1;align=center;verticalAlign=middle;resizable=0;points=[];autosize=1;strokeColor=none;fillColor=none;" vertex="1" parent="1">
          <mxGeometry x="585" y="-626" width="130" height="30" as="geometry" />
        </mxCell>
        <mxCell id="8mGdIE1k2Qn3FHMWnjpY-17" value="" style="shape=image;verticalLabelPosition=bottom;labelBackgroundColor=default;verticalAlign=top;aspect=fixed;imageAspect=0;image=data:image/png,iVBORw0KGgoAAAANSUhEUgAAAfUAAAHyCAYAAADyTVepAAAgAElEQVR4Xux9B6BlVXnu2vXU2/s0pg9laDKCIAhIJ2KBiJqokRSVpyZ5Lya+GPWZGHuMJmqssaOIsWADRnBAQJBehxkYpvfb7+m7vu9fa+9zzr1ML8y95/wbztxT9tlnr2+Vb/1dE3wwAowAI8AIMAKMQEMgoDVEK7gRjAAjwAgwAowAIyCY1HkQMAKMACPACDACDYIAk3qDdCQ3gxFgBBgBRoARYFLnMcAIMAKMACPACDQIAkzqDdKR3AxGgBFgBBgBRoBJnccAI8AIMAKMACPQIAgwqTdIR3IzGAFGgBFgBBgBJnUeA4wAI8AIMAKMQIMgwKTeIB3JzWAEGAFGgBFgBJjUeQwwAowAI8AIMAINggCTeoN0JDeDEWAEGAFGgBFgUucxwAgwAowAI8AINAgCTOoN0pHcDEaAEWAEGAFGgEmdxwAjwAgwAowAI9AgCDCpN0hHcjMYAUaAEWAEGAEmdR4DjAAjwAgwAoxAgyDApN4gHcnNYAQYAUaAEWAEmNR5DDACjAAjwAgwAg2CAJN6g3QkN4MRYAQYAUaAEWBS5zHACDACjAAjwAg0CAJM6g3SkdwMRoARYAQYAUaASZ3HACPACDACjAAj0CAIMKk3SEdyMxgBRoARYAQYASZ1HgOMACPACDACjECDIMCk3iAdyc1gBBgBRoARYASY1HkMMAKMACPACDACDYIAk3qDdCQ3gxFgBBgBRoARYFLnMcAIMAKMACPACDQIAkzqDdKR3AxGgBFgBBgBRoBJnccAI8AIMAKMACPQIAgwqTdIR3IzGAFGgBFgBBgBJnUeA4wAI8AIMAKMQIMgwKTeIB3JzWAEGAFGgBFgBJjUeQwwAowAI8AIMAINggCTeoN0JDeDEWAEGAFGgBFgUucxwAgwAowAI8AINAgCTOoN0pHcjOZDIAxDmr/2w0IYuTFhp9uFUY9CMSe0kia0VJgLK2FLYPjCDzqEd6kQLs5zNU0Lmw81bjEj0NgIMKk3dv9y62YAAiBnfaUQqcI2kcyUhTHuC2tbccxyRd4a211J+KFvDLleItTCTL5czHqB11JxS21eENqhZ9rCsGynWGwPdJHVQk3XAjzwvy9CkbT0ICDyDoWnacIjMsdWYMjQdfC97iYSoRM45dAwEk7C1idMYZQyWbNo2VaxM2FW7GR3GX8d00h6s+b4rue3eK9tF0VsCJwZAC3fIiPQdAgwqTddl3ODX2wEQNrG7aMiG1j5xHODuZSYCBIjuUJqaHy0czSvdYNp20plt8cTWrvvuqmyHySD0MgElt5n2MlOTwt0InArkYSwLWzD0k3PCy3TtHUvFHrCTumh74NnQdO60H0XuwRdCF8L8a88Qg0v6An+gPuFFuA90D54Hxf3HXw98IPQc4UTeELHVgHPbUOvOPnSRCpljjqFUsF3vFImZYxZmjFqJ1KDiWRiW4slBtvbrUKXnS2ZA73lHiPjLJgnyudoWunFxpl/jxFgBDC5GQRGgBE4MgiQxP2rcdE2li9lhgeHU1vLuZaRofzsQjFcPF6q9Of9SocbGl1Ct3o1I8yAhjMgx6QuIHFrpm0Iw9ZN3dKFYYZCM4RuCF9q2MHA0VT1o7/4LXXTIPJ9HdXz9nASfVMLcGW6FGieNgXxJXW8p+Gf0Af94wbNMHSFDsIPhROKoBK4YUkPtZJXLBWgGcgbWlAIArdg+t44bnkwk9C3Zm173eyetp3tyXRh/nHpcsfc7nKrECUm/CMz3vgqjMCeEGBS53HBCBwCAvcMhi2jiVxi8yY3tbM00rptuLioNF5YWKy4/YXA7XEDbSAQVpeRyraGht4ShFoiTKRtYZom6NqCYG0FkiNBmvJBvBpPR/yFkE2EbBiW+iwWuqP3JdHrMRGr7+/p2BepE1sbctNAAn3tGvQWBHoI8fiNaPNAfxXpq/Pk17AhMHA/RiAcQw9LgQicIMR/XsU1Nb+U0KyC6+bzwq2MG64/jI3BcIutj2cyyV1dLd2PzWprG+yZ1VOY0yZKF7SLHK4PRQQfjAAjcDgIMKkfDnr83aZA4PdhmMrlRcvQyHj26U3b20uVcO7Q4PiJO3Jjs4Jke1dJ02ZB8d1rJOyMZaXSYL+ECb816LfBZUqihqlb0qEGRpevQ9J8k8cakWdE6nXErYDVq9IzpOLoezXftphoq3uBg+wNKY2DqKe6yylSj4ibuDvAPcbkruN8+g4RPPYCQQDTOu7fwEuTdP4geuH6EOphF4BWAfft61roYfNQgeHe9TzHrbheJfCC3QmjsttwJ3ZlE2JbTzr9XEeqY+1xremR1vbOwoKedP7cHi13kE3i0xmBpkeASb3phwADMBWBnWGYWTVS6hwfKbVs2raza/tocelgvjhHMxOLi0V3gSP0btMw28N0Jh3otu1CiNV13dZ1U17K8yCBRyRsWZYkxHpixLmQwEGMhi4qIMB6Aq8SZqRmp+8pNo/N49HLiGRJRX44R4gdQax2p+vEz42636f7V+0BucMkQNwtNxy6L8p+Ub5PbxGJm9i8kFaBHnQNKCaEj42NR5I/rgPDvdzMGCD4ZEIPnLHhIuz3RZj3c6ZfGbJEsDNhajuyCW1bKik2ze3rfK6vp29w7sKOsSs1beJw2srfZQSaAQEm9WboZW7jPhHYEIbJBzcW2jcPD7bvHMvN2T48fsa465+a8/V5Zd1os6xkW6AnM54bJJPp1jQRHEncRIBe4NYkbbwniStSVRN5V1xsAcB49JzOx6cRR0OSBfGZvqlU67imJM9oRsZ/YymcqLteIo8lZ5KQ61XnB9fVOu619g3paBe9hvu8fC61AfKvInWiavV7kcqeHOtJ6xDfeyTJy40MznJdFx4CitxB5PLHyI6vzqfX8OwjjQHO1ny4CoZBUQsqJTeolEPfzQm3MBp4xe1tdmLdnLbM0wtnz358+bzOodnd6bEVmkY7Cj4YAUagDgEmdR4OTYnAqtGwfWR0R9szm7wehI+dPDKeOz5XCpZ6SWtuYCU7y6HeXglFi7BTZirdKulsfHxCZFNZSVQklZKUDM0yMbZUPYcgQpKsfTiVQy6VxEWSOh1QxUsypM/lA+RuwA/dDm1cA4Q+ZSaq1yBGaceukX299VyTm4fI0e0QepF+Q8nYtR+ne0ZLFPniTyyxxyp6uTEhLYGU3kMpmau2keYd7+N5CFxos0A+A2bCjjQVwAlOd9R2acWXPwsthp7Ae7gczqXfskj1j9/wEX1HGyDbFpUw8Iu6W85r5fKoWSpvS3rB8z2tyWfmZFpWn7Coa1vXCT3Dl2vayCFAwF9hBBoOASb1hutSbtDeEPhxIRxYs260a+OW3QtHxvJn5MqVhQjenmckUgMglw7dtFo8TSSEbiP0C7RtgVFA4PUSMnGs77iS0C3LEG5A0eDEuyBgCOEqrMyUkqkOVTVtAJT6OiJK+Tmk00hyd6rq98jpjUi6aucmlXXNOa2+XVVl/BS1/MH2PhHyVGc62nDER001H9n9I1KXGgf8doCNiYH2xmRPd6tBfQBtu3QC3JOjXlVrgWsRPvRdC3hbwIsc76jNHsB0QewwwkvLg4ELpixTJClpTqWc88vuqBV6w4XcyNakbTw7qzX12OJFfU/N7+wcfMui7BjH0R/sSODzGwUBJvVG6Uluxx4RuC0X9j7xxJbeh9dtOrMQmK+oWKnFJVd06Ha6VUvaWSiAW8DQRtlFeDZ5msPObSGfS6niSLImSZuIh5zBbNsSxWJRJJIkfQfKdk5SauQ4JtXyEcnGEWdEVGS3nkpuUk2PX9BNA5uGOs9zkJci7Nh5TjVLCrZSXFZq79hmjyhzqSGIHdsO9i9Rb/1B9yIJuqrWh4oe/5HKnDY39SRP96Br0DSAkOUdA0Mp6Ucblr0NScKMVO4BbpbcB+V3KLQObSGthTRtoB/gqCAz5mhQ2ztuWd6DTXh76IsID800CnC+zwWl/KjmlIe1cu7plF9+9IQlXY8snXXS1refkB5mgufFoZkQYFJvpt5ugraCILRfDotZz6zf2LNu6+5TNw2OnVWxksf7dnqWbme6hZHK+IaZpDBwqeb1HEVURMZ1UmsQkVgNspqkrd7bUxjZZGe22nf3Pc2QKW5Sz+w9eWudLTuifkWOuPVD/LvvIaF+j7zz673hJ3+n1uYDTTpb710ff0fa7slzXpK18j+o9yeQ78tPyRdBmQZkL8iTaCOCOzWQkifwJnStUgj98pAVlDe1aN5D/V2ZVacsWbBx+dzukQs1rdwE04Cb2MQIMKk3cec3UtN/lwt7nl3/fN+Dq58/a+tQ/uyCaZ+kZ9t7vUS2xTNMJHpBiBlsuIrMyXqryAj22rqkK5GzWp26vB6jPXmJ7zsOvJEQPjptqdroqS/qTBSK3F+o4ai/C+nUh32HCq/DBo1MIxppC0gH4jrwd3Bs3SmE+YndeiH3dHdKu39JR9c9y09avu3k+ZlhONpRDnw+GIGGQoBJvaG6s7kasyof9j/y7O6+tbt2nrZ1y7bTc663LNnRPT/V0YHkL0b7eMU1hJ2EAxekTSnRURx1zcNbOWTFSVVq2E21gU9FtZ7cmdQPb8zFWE7FcW/vTyJ1MLoJBztllVD9S5EHdJCjonRMhCNjMmWHsL/nnUJurDQxstn2vY19Xd1PLBlo/9UZJy/ecW0bO9kdXi/yt6cTAkzq06k3+F72i8BDYdj29PpK31PrN5z84Prnz/WMzCUi3dJnWAlbswyjEmoZj0jcQMw42bMjiTzOfkYEQBKeDNci6ZA8wKNZsCepMZYY93tjfMJhIzBVUt//BcmTvqJIPYqNpzBB1Wfkq6D62EWoHPlEJBKWSCbtguM7lVIulw9yY2t6Aue+43ranprf1fXIonPn7b5W0/L7/10+gxGYvggwqU/fvuE7q0Pg90Ph7N+t333cI88890fb84WX+Jn0Iqu9p6/iaK1ImQ6HM3hgg8hpmadEJx6cqSK/dIRKgdohlVNqmJjUNfJaV67ak7zb459kCXz6Dz8faXJd5KiVPgXQvVOIoCnT1lI0vYqJJ6c9CrUjyZ2cAH0KQcQgoJh5ON0VTac8rsGFvpQfXt9jiUeWLei+44S+ORuPX945xDnqp/8Y4Dt8IQJM6jwqpi0Cw2HYeuvWib5Hntx46nODQ+ePlcMz/HTrPKu1s6scBMkKUrllMx3wjPZFBQXGZChYFF5FjSLSpphxirtGqlIZB03pX6QtFnZXWuh1DRuBaBYwkU/bobDHG/MglFewUyNbuolOBL/jLxE7KF36MVLIncoJILUwVKAGxC6d8qKEQEhXC3KnTUFlwqgURkNnYlvCKT/X35F9aPHi/ruPX7Jg++uzYgjfn+zNOLOg4rttIgSY1Juos2dKU2/Ph33Prxma/diObRc8u33XeQUrtTTZ1j0PpcOzDjlGgbgpnMqChB4iY5v0zI7U7CghKmOciax1xDWrzGUq4Yl0kaYAanlEi3uUi31P2OzPUWum4Nmo90mbNi/StMgNGyXLkWp4ZV6RYYfob8opoFOiIHpgbAQetDSwxUunSTsrHAfhi3g/lYD0bkCiLxdHXBjfjXJhY18m+dgJs3rvOmXxvDUL5yQ2sXNdo46mxmkXk3rj9OWMb8nNu8K+das3Lnhi25Y37Ha0FWUr1a+nWntyQdiGSDSZJ50k70QCWcgQI06LN9ZhuUj7FN9NOdVJ8qYCJFExFOUwpRzilPQeh01Ff/eRvKXeIW4quCzVH9nhNhXrA8e3toTVp8GvJgyCFO5B5a7T+KC4eMoQRNXlaH8Hcd3TkpD043z2VGoWGh9sBiw43qEGbtEfHxk3y4Vd7aZYvaS3fdVZJy64Z/78ls2covbI9j9f7cghwKR+5LDkKx0iAt/dGA489dzji9buGH1tLjRe6tqZxaGV7kJ10kSINKoquUocD02StkqbSjbSUPeqmcilMB6dFztMKSaHGnbKSI/TsrJS9RA7bRp8jbLMmdjAxWQuHeNkWBvF1iu1vHqP4uxV0h4I4lI1H/c75HUI7FY1fC4uvEPpb5H/RpK/HfiB6eWHvWJ+p+0Xnh3oarl3xZIFdy4/sWfjeZo2Og2g4FtgBKoIMKnzYDhmCHxpLVTsazacOFzWLx0uVU73EvbSIN3S4+tm0gspaxtc3CBYSccnUqOSWpXClCKJmxylPKzQShZXR2xLjRdtuRVgUj9mfXw0f1iROqTwaFunxkU9qSPErbrCRWr5aIzQ+KCP5GYvzug3SWujkt/IbHcyxz1J+ghr98ojgZvfbYfBxg7Lv/fc2QtuPf2UuRsvbNWGjmZb+dqMwIEiwKR+oEjxeUcEAcr49l9Pjcx5ZP3ak9YNFa/yrc4zXZGcIxJWl55MWoGpCwdMDtN4RNIqrtyKpCtF7CqfG7heuOTdjFFMKtMaqddIXklxNR+n+pSs6hf2lgXuiDSXL3JUEaBBIUeCrHhXOxTNxzXs1WhQn9N5NZs7RT2S3R1kTYVmyJlSetBR0hvKP48wuFRalGFzJ18NA6I7hqcsVANnDs92KrtaChNrO03x+5Pn9t921vy+dRcuyO48qk3mizMC+0GASZ2HyIuCAJH5N0Hm967ecMaG0fEL3Ja2FWa2Y77np3oQV277WCx9LNAkd5MNlNZgCjsKsZjScgyhXKpOdco3HpcYJ5sokTqV75yaKz12iKvmVY+SksgRX5/ilUn9RRkAR+FHVJU5JZ3T2KCjqqHBaxWnHqebjfq53jxD0jcGU0AZ6KjsK3aAqBIbqeJRbAb2d1Ll+7hQQD9ChXpUMXl5JPG5UShMpPzSrpQVbEiblXuX9vf85uXnL17LVeOOQofzJQ8IASb1A4KJTzocBH48HM759T0Pn71+1+hVRaPthI6uWbN9Ld2VLzsIMIcTGwhYpvYk72RZTAQLrSy1DYKPHdskoYO8KXRJ2kXrF+lYdq+7yyqZKwKvlTI9nJbwd6cTAoqwZcCiHBOoxa7s63W56n28oYifghnpmLyJk3XcZblZJfHTaxp/ytBD1fQQQSGDIVXtdzIHkRqJhiWViYXThygVc/Ci90qW6YwFXn53uxHcffqC3hsvWbHs2Vdo2uB0wozvpfERYFJv/D4+Zi1ctSHf/5On1y7ZXHIu31nRLrMyHccZyfa2SsGz3BI8jFEBzUhQLDGc3SCdq7KlakhSKBIlCgmh8lQFQOLFWIUuyaIeOK9K7pOk71qTp9Ypn+owN7VK2TEDi3/4oBGQpI6UQrGkLkldkrTcxlWzBdZL9DXDjPo5VT9eSeeS2GlzKevU06BTRO7BW96nAvGU2Abvk4o+dqSjyAs6zbApwqIiypWcCMtj42m3vKFL92999VkvufGEpb1bkMiG670fdA/zFw4FASb1Q0GNv7NPBFZtn+i+4/FNy+9fv+maQrbrzCDbMldPpbvLDlJwI9A8CeknIeBxDGYuB2VBDm9RJLmUiFQ+MEhHcjWmFVqp12XBDgpRipKI0E3IUKV6Qp9iW1ULvFy25T2rxDM1aS2QuvyazZ27duYgoMhalYmVHu1SZo9L1tY0NHExW9X/URpZfEk61UWSPPIRqrGB8aZInSrFGdK3Q5aKxdeoHKzQKCSOfD5cGV5JpXUplNJzUP0dDxtG91TSFgktdLzK+M6RbVueXTqr+97lx8269WVnzd9wsabtmjkI853ORASY1Gdir03Te74tDDO33/bwsmee3/XqUSNxqd7Ws0CkWnry5GNkJ6R9nDyWLVo08ZwkdN8kYznVzjaoTLYIPUXilBXMJIKvE61JLUqE7hKxSzd3db3YSU7CUiVsbASqhK6co2jZZ1KfpoPnEG4rlsDVti2W0NXzyUdtEydrtstxQqQOCRwfxSFvqqSrWhJjzZCypatsdKRN8smpjvQDiHUjxzpyqJNSPbIbWhixUl0fFZXx/LIwLd9JCGesOLZ96+xkYuUVLz3zR6cvTq8/XdPGDqHJ/BVGYL8IMKnvFyI+YX8IYBHTP/7A+sUPrtv46jFHv1hLtB3vmqleTzdTQkeVNFr0aKGM6mVL1SiUleSJXk06QkVYpJpdLdHy37pFVq3DlL9b2cflsk2OTvsQsuuvNbkN9cOepfT99e90/nzP+Qb2TupTx8tUc0zt89oYqZ0Tj5W668sxSDsD2jjSd8jGHx1km6cqcQjdsIKK8POj2/RS7rH5ve23vOSU026/fkFiM8Z/aTrjy/c28xBgUp95fTat7vibsJv/9uF1p24cGX6b0dryMiPZMuAaiYQHqaVYcEQKpU9pwZNV0aKUraTyjHNwk6qdD0ZgpiJQ1QpIDRHtOCnEUm1Q5dYTNnqLQuVCpDP2ypDoS0N26O9oTVqP9ib0299w8emrLkxrW2dq+/m+px8CTOrTr09mxB39ejhsXfXoE6c+th7VKpPZl4Z2en5o2z15pF0vkZrdTIqWbLsoFytK4o6kdEnmUuKmv/UOcDOi2XyTjMAkBOrV/tLlDmYjpU2qZlOQeeVNaKYopbFNNnm3Avt7ZUivjO/u0Cu/W7F82Q2vOGPhanam48F1JBBgUj8SKDbZNf5+5fNL1u7efcG477/JNLJL0q2tnXnHSU/AUSiVbRGalRSFkiMC10NOmaQk9LjABhF6KB3jlBq95tXeZCBycxsAAeWCR1730mQkTUixtK7Gt4mSwD7yyVMhIQOETv4kukxeg+fIaKOJ0jZ/bGTN7FTiNy877aSfX39K9wao5J0GAIebcIwQYFI/RsDPxJ/95tP5/lsee+wlw65xtWjrPrtU8QdSqWxHqVQSGoqsaKiKliuV5cKWsFNYx7DoIRSICJ281OlgUp+JPc/3vGcEYr/6OLc8DXBF7CrxDZ7L7HTkTU8V4rChhdSugdDJXQ/13OEQiofwJpz88C7TH3t6ydyen1xyxvGrrulKs0qeh90hIcCkfkiwNdeX7hkcbPnB3euXrx2deJ3f0vlKx8jOL5X1rky2QyaNKZcpLA3JOJLwcAc0DtU2xxMTGeGI1OO87fSmiiiLJfXYK7258OTWNhICtYA56ZgZRV+oHPSqOmBcMZBC39TONkpnAxW9U4I2C3p5y3KF647n3PEdO9qD0p2vOH7Rf19+/IlrV3Rq442EFrfl6CPApH70MZ6xvwAJw/zMwxsX/+7JTVeNWMaVQabtxJJvd1tmSk+EaZmQo4L0mqkM8mP7sBOiHKqdtORfp1ISaSsBVSMkFJJUIhRo3VNhROoNrpI2Y4cH33gVgSnETrwtIzTgBgrtlQONFVV8rSZCitzpyUmU1PO0MRYhfE9QMMYIyoFeHtmVcsqr20L3l68++8Kb33p8agODzQgcKAJM6geKVJOd933UNr/1N/detKPgXFPKZs4wO3r6cl6IdNdU1ALlUJERzjYhmVuGKFbKMjGHgdhdij1HyLnMuuVXKjI5Rz1xy8WOJJho5FEAEBN7kw2uBmpu/ea03mlOCuQY48iJKMmdsteQpB6C0KU6nkLgKFtiFNMeYFOMGSOSSD6vC1foTrFoeeWtxsjIyvNfcvL3Ll02Zw1L7Q00cI5iU5jUjyK4M/HSG8Iw+e071i69Y82GN1pd/a8O7NR8R7MyUKZLNaKqhxaH7FALlZevEj7kJ/JvXE2tSthRHDoRujxDegcrW3uclXsm4sX33LwI7C2jnRrzdRntIvt6PENUEiQKfUMECNncKZkNTjepzHD0XdSIw8YYG2fN2VoY3Pncwo7ULZeec/YP3jyHw9+ad8QdWMuZ1A8Mp6Y4a9VE2P3Fn9x25VYvfEOqb+HJIyVnrmlnsAChOhVEa8qzHid/caiOOUaPSs8ZH7XCGPTOJAkdm4Ja1SzlKaySxzCpN8XgasBGklGJqrjJsY4H+Y5Q7XVVJCYmdTVPZJ47+ltXJY7MUEGU7cbE3KK5ZFCGOsrpEId9QmrXfLdkOhPjbUHlxhUDXd857+ITn7tQ0/INCCk36QggwKR+BECc6Zcg6fz7dz6z+L7nnruqlO5+Xbml9fh8oLUkM+3CK0JiwIJjg9TlYkNKQixGDlTsFHNukNNPXOZUEnl9Nq8o1IfWMib1mT5M+P6nIHCgpF7d8kbkrja8Sts1tQiwjrkWZ1IkYtdsUtG7MGuVheGXNqUqxUfmppM3X3bSGbdfu0zbxp3CCExFgEm9ycfEbevC3lsefeTctcPDb/JaW0+tJLNzy6aZDAwLzm5Q/1EG9mihoVrmMuM62ctJyohIXdkS40IaNUBjeyMl4qiq7OkaeB2n41RX5FStTT4MZ2Tz60ldln6lUS5TGytpXZVwjfMx0LPaJldJ42RrV0twbFuPc9PH6ZOlep4yMEJiNymJjV/JaYXxZ7tTyV8v6Zp948cu6l/Hce0zcvgctZtmUj9q0E7vC2MRsT+7eueSu+5b96oJYV5lZltODtKp1jw814mALd2SoWrkDEcHObbFakR6IkueykVLZYeLS2ZMdYpTS5n6tOr9SyrGKjxM6NN7pPDd7Q2B2KZOn8elgGNSl9+JsibWqLwWz65IneaVmhuyPlHdd5QjqfrMIu2YA0c6kHoW0SWYcW6hMLFJq4zfe3pP642vvuAlD1zexqVdeaRGQ4iBaD4EbsuFvb+9f/XZ969Z96d2z6LTKkZiriPCJNJiYKUxVZ1zPKfQNOkEh7XFxwKlnOFIyib7n6LlgGLP8TQm8/qCGXEhjCqZ0zoXOQLFJTBfWN+8+fqDWzxzEZBjO9qkKkKvtUXZxVU1OMnXMgnT5HP8SFInW7yaT8oGH2+ETZR/pYqGVCHYNqnMq5Dhoyj0KjKGvjvcvXldt6n/8qKXnvy9d53ctWXmIsl3fqQQYEn9SCE5Q65zw6axhbfd+eA1W4veaxJds5YN6XZ3YKWh2qNypyBsiAiFQknGzrZ2dYiyU5LETctMrE6MJYia409U0pQWrjocqjWt5JuR73xU/zxODytd63gUzpDRw7e5LwTqqwqq0E016omo46NeolckHhmfaANQd3EydUUsX61kSAvI8i4AACAASURBVPXbqZ67baPEK3xaAszNrK6XCru3b2gNcrdccvxJXz/jgvnr4ERHu3E+mhQBXk6bpOOhbk987I61y+5/dsNbvETLpWZb18JBN8iWEynE0qASNOpB01JgGzYeSJjhO3jgDVN54kqbuSwlqdTuVTKOq1MBx1r98ljhqJYpWrjigpR0HWWDj1TyTOpNMgIbtZlqjMeap3hbW9VSVUldhX7SecqPRM0XspkHkNLVxrl2EKlTchqKba+4qPAGKZ00aBUkdaJMNgkktTFxSc9DJUQ9dG03v8kf2X3Pglbru6+98pWPvqpdG21UxLld+0aASb0JRsitYdj5y18+eMmj64deb7cOrLDa+44rub7MBhckVPFIVZhCDYdYha4WJrXYyPfqSP0FdnL5fTpT6iPr/tY7CsVgRzWoaZnjEdgEI7CZmxip3yMblZpjL/QjqTdRyVkUzaXYYY6IXx5ygx071ilVPRWMSYL0Td/d4Y6NPNOfFitff/7pN7x5DuePb8aRx0tqg/e6zAy38u63bikG12b75s0bLoe9JVcXaVRT80JP+KjzvKeUblOzvNXbyushY1Ju8AHEzZvWCMDkLqV910PQKKT6hBbk3JGhLb1G6eenLZz1rY+8fAF5x0Nvz0ezIMCk3sA9/V9PjC289b6H36K1tF+dc8UiJHPNpNq7hYuVYLzoCDNhQ/gmO11NcuCUrQ08ILhpMw6BaqgblXStO5QED+dVqN9pc55IZvESgW9Qz7cmTS/lORvLOzbd9dJFs75+7RWnPLFC04ozrvF8w4eEAJP6IcE2vb9EhVg+cvv6Ex7atPP68cC82G7rmIN42JQD57cQldMcLAjlAFt8ykeNpsThaDW13/RuH98dI8AIEAJILysnb4AKb4hdwby2bRv6eE9ojiPSmthYGd715Jyu5M9e84qzfnHtgDbIuDU+AkzqDdbHq0bD9h/f/ejZD64ZfHvb7IUrgnR2zmguJ9IpUyRSthjLjUFSx+TPtAoPO3sDldYORjrfs+2vwUDk5jACMwQBCnEjrxjyjJfP8Y/joIwMFHCpRFKkDW10Ytf2HR3C/81rLzr739+xSNs8Q5rGt3mICDCpHyJw0/Frq/Jh/1d/euertubCN7fNXnbScMXvrsDWlswkhe+WheMWZc1zbOnhJIekFvCmFR52+AeR/4VJfTr2PN9ToyJQzSwXO8pFDa1Wd8Pc9eAolyFTGiZyqVQQySRCVO20mMjlUdrVFh3JlD+xfdOWFr/84wsWzv7iBy+bv6FR8eJ2TQ4rZjxmMALfWTO24JcPPvamnNH2OtduWzLiuG2UrcrCZHexizdA5DpqN1OXy3hXHCZls5JFKF7Y8KkOcFPJPP7GwWwIZjC8fOuMwLRDgJLRaii4RATvlSaEhbKtlHEun8+LooM8E51d2MjD7u64oiudcURxbGN5+/OrLlyx8POvfPnitRzPPu269IjcEEvqRwTGY3uRT96zftnjG3a9Y0tFu1zrHJiDKuYtlcCBJI54c0jnZGfTkGzSweQOEL9mIfWrATb28NpCDfQ9hdgwqR/bPuVfZwQIgX05yvlweC0jWRSp3BOYx5pXlglpKDmNhjlfgRqezqHPKdWs6Ra9VMUZNN3xB5Z1dX30squWPnGlplUY6cZCgEl9hvfnx27fdOIftmx5y6hrvsbqnLO0aCSNnFsRyB8D8sZeHklkVLILSv8iM8nI5/SIE8Ewqc/wQcC335QI+NC+eRoc4zDDDRjRDXjBG4K0cLWkT3CZkxsDCynobErx7JRFWK5stoPS7zu04IY/f+uZvwOxTzQlgA3aaCb1GdqxVJDl//zyvtPW7Sy9qZzquUzPdCzLBYaeg7pNsxPIOGWISrmA7HBUHrUuayRyu1M+6rius6pp/kL9O0vqM3Rg8G03DQJxlTiq9qZLMxrmfjWxTUTsRPIGNvTwnQlgdktqpkhZNkrCuJv9iZG1nUbpR9dcct5P/myONtw0wDV4Q5nUZ2AHPxSG6X//+V1nbRuuvM0zu1+hp1vm60ZCquIcHwUgLHKGw55d2tI9YSHBjImazCSZx5WhPB3kLnf4B+ElR+rAKSOGbeozcADxLTcMAnE9BpV2WW3W1RyltM4otgSHmSCAvI5IFxPhrNKPBjt2SgltCnen5uXXJctjv37Ny5d/5/pl3VyfvQFGBpP6DOvE28Iw890f3Xfe+nLpXXq250wj2dZbLnlIOgHihqerZadExUNYCwq0GHitBbCbg9DNECp5VHai4hLkQOdKUldx6gdDzEzqM2zA8O02MAI0g2MtHJnWDDmnZZ12SkyDuU5KOR9rAHzoZLRLCKcaH050OiT2BGzvvlcc9fMj451u5dbzTpz7yX88e8HGBgasKZrGpD6DuvmnG8L2W55+7OWrd0/8hdE3cH7eE51OBdmkMFktWe6J6jpSvWWo3kOEq+E5SedkbzMhreuaG012hMFgUqvJP/k4GIKfQdDxrTICDYhAROpE3gGROuY05r6MXKflAO9Ttjnyr6Gqi4HrKac6K4nzodVDghqS5FuSmpeoFHdWdmz+2UUnLv/cBy+a93wDgtU0TWJSnyFdvWoi7P7eyofPXb175M8TvXNfmheJfo+yTXjwdUdaKRv5n8khhpJOEJkHkMR9KoQeVVWrVkeTjjRKjU5Wt6nEzqQ+QwYE3yYjQOWQdajWZZ12eLxjvmuQ1uP5rUgdUjnEdKWGx/lYI6hSHFWAoxh4AxUaA2Sgc0oTzkAmsTu/5bk7Tp418LEvXn3aswzwzESASX0G9Ns38/n+X//mqVdv3Jn7k3TPnOWekenSBdTsSCiTTRuiiBhVImkDIWyhryauAftZgDd9THIKawkgmRPBU4eT45wpc74rVfyeYtC5oMsMGBh8i02NgPKPURAYIHYTL+gv+cmoDTvmN+37qZ4LqrjR+uBC9V4pIdwV60MmlRE+slCV4FCbaW0RpcKEaLHEDmN85NbT+wf+7TNXHre6qQGeoY1nUp/mHffNDfn+n/3h4dcMls2/SHQOnFDy9CzM57CRoZ4yxaaKCio0VVASHZGomLiVCoWzIQ0sEs1QHWahW5DN4e1K0jvZ0LESmKSOJ+cZfELSPpP6NB8EfHuMwB4QUKSulnAEuShih0Oc3JCD0KWkTglqILy7lHmOTHFYD2jDj90+CB7kjnWBCjvhpSiXiyJpW2HaL253hjbff0p/x8e/9LozHmbwZxYCTOrTuL++hrKpP//VvVfl7Na3OlbLKcJItcEwDiqm/2Afh7RNmeLiQwWxqIPyQcuwNOkNS2p4RKvjNaneKG49DmPj0qnTeADwrTEC+0Eg3pDHmjXKDhk/D3WsCJjv5DAn81TUrfayJjttCuh8bARIHU+e8TItre6FhpsfstzR3y5qMz79tT866xG8f3BhMtxzxwwBJvVjBv2+f/ibT2/o/+UT26+FQuxPCqJtMZJMdMktN1RpAcWj6EgEhQmoQlle6PA2TZvFt8UIMALTBIF6Ujdgj9dpPYHmLtBJaCgLyyvt0nO7Hzpr9rx/+ezlyx6YJrfNt7EfBJjUp+EQ+dyTu/rufmrdG3YU/bcZbQOLHJFo9QOoz+HoYlCCCUw6jXbhJLXvLSn7NGwX3xIjwAhMLwQ08qkh5zkS2XFolKgmssMbiJixAmciVRn73RxLfPjb157Hqvjp1X17vBsm9WnWSZ9fMzjrlrseuqqU7rlO7+g8YawUtpInu1SbSycYUq9FiSVIu05e7NyL06wX+XYYgZmBADLDYwEhxzpF6iEEBdIABrTYQG1vwk5ne6UtzuCW+0+bN/u/v3rlyStnRsua9y6ZDqZR30tC/92Tb8ynO66ppNpOdDWz3aN655hkFIFK8y22mVFIuiz2oBJE8cEIMAKMwEEhQGsJBbfROuLjRRzmqop34n0sLK7ripSt+0nD2S7Gtq85uTP73i+95ownDuqH+OQXFQGmgxcV7r3/2HfW5Xp/fN9Dr97tJ99mtA+cVPTt9jKSRVDWJx0OceQeRwkk1EEOLbUY9D0VZJkmzeLbYAQYgWmKgCR16SmPwjBwn0ciSrm2UDycTummAzjPoY5EqUR12V03bVS2ZwrDK0/Nmp/91NVnPzNNm9X0t8WkPg2GwNfW5/tu/u1db5xIdFwrOgeWj+ZFq2VlZIY4m1TtSPNKznHS651sYETqkN3lfnpSEYdp0Bi+BUaAEZgRCMSkTqFvDsJgPfjhknSuQWRPuDZMfYh7p/wWpJwH6fvumNeTEdt3rnnqtnOXL/nMf1xx6toZ0dAmu0km9WPc4TeNh50/ufX+a3ZUguvDTOfC8dBC2FoC0jni0KF615EoRgeZBwYIHXHpROpUiIXyPJMtjNTytcpMx7gx/POMACMwYxCQpjwibCwnFQpdl0I6gttA7GkPqacplzzSUGvIWEkJbEwrFI47Hva2pDYPbX3+1lOX9n/uqxeesmbGNLhJbpRJ/Rh29D2DYQuqrV08ksy+p2JZL3GNRJsPQicVmIWoNQ3e7ibNOEoiAW93Uo+pDHCkeod6TDrO1ZdbPIaN4Z9mBBiBGYeAzGeBu47XFlWbXQgbb5j4wCZHXCoCQ7njye4u9fWh77jl3XY5f9f583rf98lLFm2ecQ1v4BtmUj9GnUvV1r5xw30XDmuZdxTMxApPN/oDeMKpBDGUGSr2dFce7jTpXMr+puqqRfme6RnnhDhGXcg/ywg0AAJKUicJXR2aXH8o1az6q+q0kzNdoENyh7bQhQ3exeuE525pK+2+4dzZ8z7/4UvnbW8AMBqiCUzqx6AbUQ/d+vKPHjlv9cjE+63O+SdXNKuXEjoGKM5A9i1ZWY0EdMw2snGRZK7U7mriUapXFdoWeaxyLx6DXuSfZARmPgJxPXZKPhOTOjneyix0eCifHVqTlGMu1ZDA6gRVvS0SwislyuPr0oXBG6654rSv/eXctpGZj8jMbwHTwTHow3fd+NBLnhov/J3ZedwrS6i2Rr7tIZzhhO7K9K+UWIbC2KSiiyYSkTmqMNV20UTsSkInyZ5D2o5BJ/JPMgIzHIE4hI3o3KT6TlF7aGXxsQb5EDKU8I4VCMViKFeGQElnGAXxHqJy8FHW9PIit/35Vq/whXe85oKbruzSJmY4LDP+9pnUX+Qu/OvbVi9//Nnt1+s98y91zPRij3Kzg6Dhe0pTSZZSlJ7uNH+qZE6JZ2K1mMrtLCsxYbIFJMFzL77Ivcg/xwjMfASmkjpp/0gRT+tJHOJGVeBUxjmKt0GIm0yCpWLYEd2ODx3RnjLGy4Pbnm/1y996wzsu/sZbNa0w89GZuS1gOngR++7Ddz+/9PbHnr0uO++EV48UjRM9VEjSIjUXqp9L+7gql6ic4pT9XBE6qceoEhOpw1TFBmULo3OY1F/ETuSfYgQaBAFF6ooCLCrqQvbz2HEO3vBeZPaTOa5A5AZWG8TlKLNfVJudDO82qkOGbilnl3Kbs0Hhn9/8tvN/cq1G9V75OBYIMKm/SKh/fNUz829/fsd1Trb39WWz/QShJYVHbqcaSqVC5U6ETZ1BMrusgVxH6pTm3cIkUhmgqAY6ZYBSpK4KuvDBCDACjMDBIUBrDWn66KCwWRlJgxBaRfYQM1BASgXNRoIFSezgah3SudIsYk0yEmIij5JTrR3C9t1t/sSO2xdmws9869pznjy4u+GzjxQCTOpHCsl9XOemHbmeb91yz9U7/JZ3pmYvOnVswtUMLSF3uFRtjSaSLKgQ1U4lL9Oq+h3XVXWSlQMdSemyTnKUHjbOCf8iNIN/ghFgBBoIgRqpk4ROddiVc5w8SMUOcYPIXYP9XJZk9SmrZVmuVwbZ2xGt4/mmsOyUcMrwB3IrYXfaWG3mtv1sUbf+jS+96rz1DQTXjGkKk/pR7qqfbhht/+bdD1y+W8/+jejoPyNfQk4HTBILk8WkEBGPdr1qIskQUNr/SrV67aBOUp9F75ItnV6xpH6Ue48vzwg0NgJE7CQo1KqlR6QeRdrIz6Pnap1Sa5DSGEKyMGzhIkFNGu+nE3jXzXul3NCT/Slx48Kl6e9+bsWKHY2N4PRrHZP6UewTOJjY1/3ynsueHXL/NmzrP82xsp2OB4WWCdVWidTucH7Dv5OOeKdcfXNqHHo86eITWP1+FLuQL80IMAJ7QYAIvwLJImUlRBLCSVApCgNqxWRSz7uV/HPh2I5vXrHihO/83xWLxhnEFw8BJvWjhDUI3XjvHQ++5KHnhz/otva9TEt39ORcKLRgpyJSr6BIgm0mKL27VHVVDyb1o9QjfFlGgBE4kggQqWNJExbWs5QHvzivAo08vOQR8eaFTt7JD63ptcSnrz73FT+/boFWPpK/zdfaOwJM6kdpdPzbQ0PH/+IP9/+93jXnlWUzM5/Sv1Yc5E9GVhkyTzluUaSSGeFBcmdSP0qdwJdlBBiBo4aAjL6hkFqqJgmCT8JHyIfdvVIBuduGaG2xx4s7N98zNxP88w/feMGDR+1G+MKTlb2Mx5FH4CvPj8y74Zb7/ipo6b02SHYtLWATaxiWUrdL4xXyKMODVE0Km0n9yHcBX5ERYAReBATI14fi2MnBjpzpDCoCQz6/lA0THvJJzdsSTOz61fkD7Z/+xKtOYce5F6FPWFI/wiCvmgi7P/c/9752h2e9q2PW4lN2TRQRfKaLhEV10eFc4pVR7Qjkboai7MCurifr8i7jZlj9foR7hC/HCDACRwMBmRs+qj7h6j5U7kggi8yXVK41RC12z/OgjdRQPrq03hjceMNFpx73lQ+cs2zb0bgXvmYNASb1IzgaqEjLDT956Ip1I9677a55ZwzlnaydyAodhVhkiUMf0nng4DWc5SxduD7KGsILft/JY7hgyxHsIr4UI8AIHCEEiNRtJMVCZLsooywr5c5AxhqZOyMVJqWtveJW4Dvku15x59pEfvA/3vv6M3/4mp6e3BG6Bb7MHhBgUj+Cw+IfVj3+sjue2vbP2dlLT89XzB4fsegmssYZUEs5TlFK6LaNge6UQPBI4gAbVEAG9n0eTOpHsIv4UowAI3CEEKDCUqIC6dy2RMUO4AmvksglddRid2Ffr+A1YtkF0l5bCbdoV0YfT+V3/estf/mqW6Cq54XtCPXD1Mvsj1GO0s823mU//vt1i+/asOVvh8PE1fkgNdDVMU8UCxUEpVPIGuLKoZ6iXO1TqyIFtLs9LFLnLmy80cQtYgSmPwIkqWsBVO1YglyDqkyq9NVSgkd2LAMfaMjI4UBDqafwLCwOGsWh3832/A/84LoL10z/Fs7MO2RGOAL9dlMu7Pnq93769kp7z1v9TPfSgoOwtSCJDaouLJmGERngMOipOAJliiP1FOVyp8Eflzjc+23sb0PLXXgEupAvwQgwAgeLAGWdi9LMqkIwVOpNlWs1IavQGhcg8ZydTIgSFX9BSuyUKG9JFsZ+dXzG/ujnr3nZ1oP9ST5//wgwI+wfo32e8eswTHz/pruv2JB3/iFs7VjhmBkroACPSihSCGMTnitt5i6SMrgytauyORmy2hFdui414x5/iUn9MLuIv84IMAJHAQHKCe+Rv1CUxppyxwvNVdpI8oYHqZtUqpUKw1AJaWgrEb4edCbEc2Jw+7fe/qpLv3rtXI1rsB/hvmFSP0xA379q9fLbntj03r5FCy8bd8P+iZIL23kKHp+msHVkjnNpkKsCLUTqIdnQ60kd9qZ9H0zqh9lF/HVGgBE4CgiQ5lEVhEF0D6pTqQqSIG6saSHMimRYtATSyDqoV4HCL+B/RP8URUtSn7BLhSc6yyP/ev11F95xobbfRfAo3H3jXpJJ/TD69gebB2d9+ZYn/8Lon/OnuVxpGRU2cDHSdcSkBwjWlHWIMZJl1aNqPneVPa7qJiJD2PZF3NxFh9FF/FVGgBE4SgjIjBuwIVJpaAt2RbVSwW9I+g+pam8+kmtZZhp/DTgM68JOmKKcHxOW4ezMlsduXZwMPveVN573+FG6xaa8LDPGIXb7qjDM/td37vijzSL790b7rNPcYsXQQeQ2ChyA1QUyIYuKj92r9HAn+1KtYIsc+lUHOZbED7EL+GuMACNwTBFQjnHygJpdFX6JzImkhscrSphpIB124OFzLIS2SepKD9L7mOhKiWeD3Rt/dtbSpV/7xIWL1x3TpjTQjzOpH2Jn/t3P733pvZt3vs+Yf+olO4bLrfM7+0R5bAI2JEBqoUI6ks1QsmM3EskR8SFMyiwHFRU5x5Gn6L7j0+Mb4y46xC7irzECjMBRREAnTSTEF/kvwtgCKtEqfYUQ5iZcSfABYtVdWhMFkmyB4XWo6VsyNjSZcJ1zxh27MPpsl+3e+MqXn/bF/72gY+wo3m7TXJoZ4xC6+t/uXX/cysefeUfY3f/6IbNlsYsBaxVdkSUpnRLKQDovYGB7IHayO9HBpH4IQPNXGAFGYNoiQKRuQuomWb1CJsdJpE6+QiFi10HwiSSyy0kvYZFBRbdSYUIkkohjd3Iim9By4cTgs+0J931vfeOFd16rkQs9H4eDAJP6QaJ3z2DY8i833vK2SlvPdZVU9nQXHu60L4XLu7ST00PakkjLhB0s3EbkL1TV71Ea2AOT0g/y5vh0RoARYAReRASI2OnwZRKtWrVJVXudcsDHGklaEBHGi/dIklehb0KkQPjF3OBurTT007MX9Xz68xed/PyLePsN+VNM6gfZrW/6/v3nDlb0D/gdvWeNVdx2HR7uGKEHeRU+nRFgBBiBJkeAVPXIEa/pXhh6g2t7ROHrFy1d8u33rpg11OTIHFbzmY0OAr6P/eqxpbc8u+0Dib55FziJ5NwyRHJfZoxjGA8CRj6VEWAEGAEpuQcwvSdgtTSMsuNNbHtyvul88Jo/vfQOqOEdhujQEGA2OkDcfrI17PrCj376zvScZW/OBebxBcSfJzJZ1EUn9RLDeIAw8mmMACPQQAhQudVDPqLMmj6Y3YLTke3nxxLF4R8va0/9++df+7LVh3zdJv/iYfRIcyH3lhvuuXJzXv+A2T3rlLKuZ9xKGbtLlBek3ebhDOzmgpFbywgwAg2EwGGROnCwUKWSSrS6eGSQgNNy8luD0c03X//ql33sTfN6tjcQVC9aU5jUDwDqj9yxedHtqzd8SOue/cq8rs/x4A2XQdgaCgpKj899kToloOGDEWAEGIFmRGB/pB84gUilMqJQKAmbqlgaiHkb27au3yx84v/82WU3nqNppWbE7XDazKS+H/Ruej5su+mOB946kmj7yzHTPkVLW6JUKopWFCkIkVwmgF2dJfXDGYL8XUaAEWhWBCjjXDKZFl4ZpagNjSqzi5RZGi5sXvPbV5w07yOfvWTFk82KzaG2m0l9P8i9++ZHX/7EFueDeu/AWTnNandQb8gwUKgAURkBJHUNyRX4YAQYAUaAETh4BEzErZfLKM0KhznbtkXBnRCZNILj3LEN6fGhG998yfn/ed2C7M6Dv3LzfoNJfR99/7U1Gxf8eNW29xezPRc5dmaBg8BKL6wgBCNEZjiVPSmkkoJ8MAKMACPACBwUAmSYDJFSW0PSjgRy1YShjxLVSNoFx3dDK7ktXmnNbK306Rve+MqboMavHNTFm/hkJvW9dP5DYZj+t+/e9Zc73M53Oqm2EwIDDh1UgQhpESlxAiqu4psqJSK95oMRYAQYAUbgwBGQBWHgk0Sps4nUKWGNR4ITiN3XPZEMS8WWscE7Ljp50Xvff9aiZw/8ys19JpP6Xvr/w7etXn7n+h0f91vmn1sxE+2U/gjDDdtJVUrVR810ilE3QPRx9qTmHkrcekaAEWAEDhwBInVXM2TJ1jT8k4jcPdjVXaT+cPCwA0e0lsc39Xj5z779qou+dUmnNn7gV2/eM5nU99D3Nz0/0vadVY++p5QeeGvOSC/xkDVORywlUs3gQVtKC+UKbJC6xqTevHOHW84IMAKHgYCs4oYVlYSiZECkTpI7HggVdnV63wfZlyrmxM5VK/rS/++zV53zwGH8XNN8lUl9D1399h/df+mzOe2DTqbr1LJut3jYQVqQ0HUaeIhJ9ym2ElWJfISrGQhvY0m9aeYLN5QRYASOEAK1euyIT49LU8toIl1K6yHMmil4JIPYt2Ryu779p6885Uscu75/8JnUp2D0hdXbj7v5d899Kpfqebmbys6WpVNRiciEpA55XWhQFwVwkCPpnSzpSD3DpL7/ccZnMAKMACMwCYEQayuVoaZDlyVbofkMsKJKYqeiWAgZhg9TErXZE/nBx+alxYfefu35t1yoaVQCjo+9IMCkXgfMhjBM/tON979xU8H+p0qqc0GYyRiOV8Bgc4QtawfT9hElBmFLl1XYILVr8NhkSZ3nFyPACDACB4sABCbdl5I5CUoCEUUmFta4khs5zDlQ0OtwmmvT3dFw59YfvvnsUz95/ekDGw/2l5rpfCb1ut7+6O8ePuW3Tw//Yyndd5HeNqtntIRUsDZC1khSh5ucQfWCfdRI91U5QQNOHQE+44MRYASmPwJU6nPyQW/QEqg+qC+HTEa12nu1kqLqGqSdiw/13anXpoRU6hMKfUWZUanXm2yqIzGhuRNXAQ9I6+R47JEGFFhR/g+yrZswdVJ/uBY+xxqbhHAeDu1afVqX8Y1rrj7ny5dpWmH6j7hjc4dM6hHuqybC7s9970fvGbG736C1zlpWRMiaq6F8kJytFLam4tGlighvUX10OmhAcm30YzN4+VcZgZiQFRLRckZSX3TEZEu5JciSFp8fUbZU9cYhqTKqBRo5OadBuHLGI5SVqolRumd6mLouLHLiCpChwkfGFBAOEbYB7Z00xZHPDZERvuPiQrpI4WKetA1rAUKtw7Kw4AjmyxwXFCYLIaGudsSBLsjx/uRAz5+uI4X6R5I3uoz+0mt6UIgb9aIT+MKHF3y2xRZBbnTMLuxad8UpJ731fWfPf2a6tulY39dMHxNHDL8PrXzkogfWb/uANbDgzF35MO3pm2h76gAAIABJREFUSGtkpDCxaZIjLl3aftQOnQiddpRM6kcMfr4QI3CICESbbqW0lQRcfxDJTpKiMY9r5A5pOiLx6uYAn0uZGiphIttyBRXEEilhInOkhnOp3kMIkjZI6ibzm0lsBFJHulPkjZbRMCFIPzBsERoJfCcp3EpFmEhalTB9YeFRweuSo4lMtl2UfVyv7oYPdEFuBFKnfqEEXmQ7dyEpxfZ1WlsTHoydYHkPpA5QEXAETWlQFC1ucWu6Uvjkn1z3ym+hPGv+EAdNQ3/tQMdQQ4Nw01A4+/s/ufn9eSvzKr119ryhAsoAptqFG2DqykmvBhwROwFGgzGW1AMMSD4YAUbgWCEwhd6qpF4jd5K846O+wBJJ4xqkZTqUwytImZJJSVpXWjjNhFoYvELkEhCZQ1I38R6pjX0QfwFkTs6zCfyujYVBhyTueY6U1DVEyJQgnLdlW/A9XxTz40KH8s9MprBZwNpC16KoGvmb6mimBVmRusLZAakTudN7ROoW2dbxAcq7CN0yYVuHw5zli4znlMtb19922UtP+KcPnbvk6WM16qbz7zbTGNpjP2CS63/7myde9fS2HR/w7Y7Txj0L1QBbRCqJXXQZKWHJNkYTmDwx6zLHkZemOjij3HQe4HxvTYbAJEldzdGY1GPqrJE8kbotiUWp0FFUhOzfEckqvxnETEOa9nwqOALCIUIH8zhOWRQdSPGtXdLHxvaQuQKqeENgzSCiBmHrZhK/nhRll9KeIgUqPvfJD8dIilKQEjpU71YAv506v5xmWpBrpA48ISXJTRT1A9ZWSeoQqgKAHgCz2GHOqhREq+9vbHcr33rzZS/7wtVztOEmG+H7bW4zjaE9gvGN4XDut29e+WHHTF2pJdv7K7Cl+4EtbC0JVRtcN6TNHJI6SJ083uOFQYZgyFdM6vsdZXwCI3CUEIjc1CKVuiLn6kFzFJtyIueamr3OBwafIydkldQlyZBYHm/XySsbqnX5G1Cph2SXp8ySkR2d1OzCtJBkEqRdga3cLSGfRQFkRPUhlAqfSH2iUBTJFEg8YYkCSabJNpBYq8DXRAoSqtIONN+hSF35MLiS1JVphEjdJKEJfgoh5QPB5xWZ0RNhxdhM9WdT5dK2rY+dc9zAez71R4seaj7k9t3ipif1t/3PA1c9ma/8q5lsW16CPiwJCb1UckVST8IHBuo4UohhpHl7IHVysOHc7zylGIFjhwB5kNOh7OT1pK4c4+J63kQcROyTnVrh9EoZzaR0T2UX6SKRdI8v0CuS1InWqdgIOcWFcNoSeOiY+yZJ32WUCsW1W/G1NlsTvS2mGOhtE13dHdD2ZSCtZ0SuWBJFkP66LVvF05s2i4qREWFmABQFAeLYQXfMf7me1GNNaGxnj0k9gDaDsstVSIKH/wLc5YQJn4S04+7IlEe/dt1rzv7CtQPa4DFvzDS6gaYm9R9sHpz1uZ8//H6te84fi1S2b6IAhxYrCWdVDRPVgissWd2UPZ0eUlKPEFPJEqgnWVKfRuOZb6WZECAPcpKmIyqeGjqmSF2xfX01RXpH2dah4kUSKflcXktuD+T5NPPlqygXhYF4aSji4RBXFBokchPrQRqUvLCzUyzo7hSL+nrEQHtKdLcI0YKlg74N33jY1iFlYh8ANhI5vLF667B4+JmNYs3WCVGEma+chsSOe4iP2qZD3UcjOMTta0gqJ8bYvEn+SmQGIdW7VHVgvYU9HX0g08aC1CnzXFAqiHbD8Izc0IPL5yU++MUrTr2jmYb9/tra1KT+9l/ff+nzY8mPDLmJFWYmrZPjiwsit8hztUwZ5OA5K+MoidCVGk6FXShCl+EY7Ci3vzHGnzMCRweBiNTji0utmaRq5fQmSbletU3OrjSB6W9E2lTHoV56lyQT+c7I73oVgTOgEoaK3cmLBGzgfW0ZsWzhPLFs9oCY15oQAxkQOa0NRN44P2VBA2CR6p74CpsGKlCC5yQUUP3QJ3eWxMp7nxLPDBXEREuvKMHG3qykHreb/JZkdJH0b8BDdiWeQf1eAZA+XJ2o1zx4Hraj4HqQK4gWzdmZrOz68Z+99syPvakns/3oDLKZd9WmJfWvbCwMfP+2O/+vSM+7pqRlZzsGJiHZzaQdjBIgQM0TxabSJCe7DtnW5VDDDpJD2mbeYOc7bkAEIrv5pJaRWQyq9AD2cWn3Jp6m0DY4rwV434NTm4Z5rhsWvKvpL23fsQnwK3Bo84QNO7fulYRfzgvdLYssGKYnmxCLB3rEycfNEYtmtYk2SOPgakjrlF4Ggjh5bZNmgIo+wVFO2vFJE4BcF3DNkc62JG0S74/hvLXbHfGDlfeJTSIrHJj8YjU/1ZmQ94v1SPoDwAmv/ogX7DhMb8bnyIg0JKQJJa0obaQoD4haaukd2gzBCx79JR3pyOaOBxzhgXlFhKXBp05oT37w69eccTPwmgxWAw73A2lS05L6u1Y+ftEjO8Y+ZlizXuoFCc3FJJIVgiLJm0g9Tv8qQ9qAZv2gkqRO6qE6lfyBAM7nMAKMwBFEgExkRNZEoviHHNvIqY3ek0RJcxqe6x4xKw5K/EIx53TIcyFGy4QyUJYHLsKeKwg780sibbgigzC0pXP7xcL+XnHCvFmiHxJ5lkgcXyMSh0COUDWlsCe1sFL3w+4OWzuZ5yn9qZTUiYzwoYNVhPR/RZy/GUVEb1r1qHho1BelZIe8VzID+Fh3JFGTupkib6b40DUaqVMCHtkXROpyzVWOgzE9S18ISgQUOSmTQEUYINwfmyr4PAXF0Ywz9t3rLj7xk1zsRc2rpiT17+8K+776y9s+UUx3XWX5nV0hPN4ppIIGjiJ1FS8ZJ3okspeDK/LOpElND1LDe5RooilRPIILM1+KETgEBHRZj4FmKZEoeacTwyoi9zBpicw1hEQRiZv4Kz3gyZsdfzX81SHJmw7U6yjWZCC+3A5LosV0xZzujDhxwSxI5F2iN5sSWfBOFtdEbjj4sivJXC4TtEbUElYoA7hU3UNDIG39tGiQxE0cHSDRTAX1wsk6b4thkNIvHtwibl6zS+QTbVIyjz30lbygXseOfnFcXiOSuvKJUOsutc/AjqgmUKm1tyZUUfx6nHmOMviVPSM/8dSpbfonvvj6l/0MeJGFo6mPpqSj9/zkkfMfGBv7j7C191TDgScq4iGRwEjZzcneRpMpclFRcepYJKKwdKX+gd1dmuxU7mYm9aaeQ9z4Y4QAkTpJyuSZLkkQhE4zl5K7UWQaUYSNkDNKGqODKOhTGYNOanm8R7HlKbcoWkHMPe1JsWROrzj+uH5xXJ8h2jHnE2gX/NskiZOqnYgcic1ia7wSiWTBMPpBOiM6SZIQ0ZJKoEIfU1ESSndaJs2BlhYlnHrHs2Piv3//nJhItCtVuzyRdgBE6NiUkMQap5CNgusbj9SVliWOWY9DEinUrZa+N9JeELxRHgItyhPiI9FPq+UNpsZ2/OrP//iSD1zbrW07RsNx2vxs05H6TTvCnq/9fNXfltra3uKZrXMDl7xfaXevnOHkIRNQxOo0pfohUpcbcZrglAMaiwY9Z1KfNmOZb6TJECBSJyqUplSSxMEODqRzmaMd0nnKRv0GhD/pvgNVOfnIIIGMAzqFM1tLIiG60pZY0p0ViwY6xcK5naIbojjZyGEulw8DxB9QghnKR0U54Gn+R1Zb6TxPr0HWJJlHtE8rgnzlqdyTMmSObPuWTr7wULVjFUHCWKjiLXH3lpL40h1PiHEbkjptSEhNTxI7CRJNQ+pyJ1QLSaxqO2o+TLXsIOrcCPmoLEcgsoZf0QqDD54+q+X9n7381LubbBq8oLlNR+rvuuWJs9fszn00r2fP1VLY47mqAANJ6HLHKJ01YvV6lF6GvOKp6mp1OEFSlzY08oxnSb3ZJxG3/1ghQAVWQKAe7Nikiic1OxVIAbEHKLZi4JECF2uVorAQipaGVN2JN+Yghnzpgnli8awOMQ92ciJyGalOeSlA5Blch6T6AHneDRuRMMhV6sJhTUc2OYqVjg9yaqPQNnVEtuGI1pXbF1mM8RcZ6QyQuoZzkZYGxG4JpKoRd28qiq/89gmRg6QutQxSSFcOu3RHJKlXj4aV1Gs2YBnGFh3SRyLGts7/TaaVpY2SlO4pNS8iDbBJS7j5TS1B7nvvvuYV/3lZi7b7WI3I6fC7TUXqN2wa6/jWbx97r5/qekO+HC4ykq2YXJEUHuV1JylcFWzBYCFNnSzsoEidyF8dtOtX0jyr3qfDMOZ7aFQEqurnvTSQtNOu60pSt22kXSWHM7wWThGe67CRw07WiaQwc9vTYnF/uzhhTreY15mRIWjSxIYMcEkQKtVYowdt1OmZLAxDjnd0HpnqJcmouQ//+ShkjpTFJNOrGuBSC6+07eoROdOR6K7pjrT9k8G3oqUEVSJZ+fSo+N4fnhM5rENS5S6vH5O6+qWqZNqgpB6LSspMoUid1lxpR69umGqbG7Xm0oZJSfc2aWXI/OLnnY4g98Ap3dm//9SVp97fqPPhQNrVVKT+D7/fcua967f8m0h0nhY6Vgvli6P0g1K1Tt6XmLlE5Kqer1QKSQccInXpRBdNbGktk56afDACDYzAlIpnsY2zvsX10lXt86mZ2+Jv1M2Y+mvX1VQglXp8kGmrZlOuhTSpKBRiWtipEXJm4PsWJGid4pnLBWFCcutMWqIva4vlC2aLJbO7xeIuXRI52ckTIGXI8yACOMfRJkA+B00gCYwhreggdbKR0+0SuciQNMm7OKCShw87LPd4kHSeqCaqUZSslPF0UFOkLV6+8rD5qAiHNAvIMgend/GLR7aLm5/aViV1mbkuSqYTZ8Ajtby6mMKu0Wzqk0hdtjOKZCAc6sZFrIIn6TwOF5QaVWhpKGe/TaEI+dHtXf7o997zx5d87JJODfEFzXk0DS/dNBK2fennv/mbCav/zxwtszAbqcscWayl1vlS0yPDK5T9TM6l6kCLz2NCb87p0nitridRogypeapmV6ubGLLptTBPWoxJutIDKJjl/FDeyxTOJZO7xAty5NUt65YTvcV/I6qTpA2bsyyWQrXI4fjkOI4kcxslT6W1GglIPIovJ0c1ygBH+STgDadrOM8fl0VRTK8skkjjOrslK06cO0ucNK9fzO0wRAc4OkEhaPgZGz9vSvmX7Ntq066iXOoOudlQUiARbF2p8+h5LDXW1O60ZMSvlIMtOdsqyVPuPagNeM+BY56LnYGP9uzEF378+43i12t2ikqqU1aDo68gQq8a0qYQV4eUZGlpqr5WTxpWUyjH4JR4vqj9atunam8YACwBZ8hiHvkEUrBxFHf+4ewT5779U01cb71pSP1fHtt00s8fXv/JsHXueZ6WbrUdeMRid+4jY0RNrV43ufcwoOrnPj9nBBoBgb2RuvQukRKx4uHJKZGjZZVihmV2RZUkREnqROixpK4WZaJReZ5kSCV9axRyhvcpPpts4j7CyojUbdiwya7sUZ52krzJlR0HSdM2pFaT8kkgj7pbpuIpJYSalWR61vkDfWLprF6xpC8rZsNITlK5VIw7CFuj6mkgVylpUwgqxYNT8hlZa73mpLWv/ow1Bi8wB0ghoCady+Qz1GKwrazJTuSDz0mmp2ptAez1Lt7fhdffvWOtuHPjqCiD1AkHn7JXkspf7n/U0ty0pH4Ak0tGPxDa8H1Ip9pEPjciMsnilvaw8Ol3v+m8b1ymaYUDuEzDndIUpA57m3Htj+75i3UF8TeibfaJFG1qoGgLqdBlKcQ9ocCk3nCDnRt0EAhE6vE4FXKco1teIZobcTy1Yt14HpE0rqTd+JAR25QpDKSlbM9EdZh7ZNrC5DOthJRUqcSpA3FcbiIgkUtJDF8wkKGNJHHTK6AaGqVqhXq9JSGO62wV5yxdJma1ZkVPpxDweavGkFvYsMtSqlB70zwn6Z4c3YhhiXZVhDuRunKMrT/qa67L5kbiutyM1Ivusi2K1GNpfSqpxznkqfRqBZJ6aCZEAV/YBfC++ouHxKMIWFfJZ1CNjNTvcdEZJvX9Dta478gx0rZT2BC5wneGnURxcOUVK+b+7QdXnPz8fi/SgCc0Bal/7f6tc37w5FOfmWjpudA123oCqAxtSACUkII8WJnUG3Bkc5MOCIF6PqtfDOI0pOoidWfVbXaJ1D0qmSmpWqnWVcUzyKX0HM9klUM6KNmLLIpC+m5KpepLUg8gfZN1Ok60QhIrPUhG1an+OIp36JUJ+eiGQXxxX5tYOq9XLJvXJxa0Z0UbbiJFtutIm0B/jSiBlIpHV3knKEqFSJ1kO0me0rkN7xEnR82LyXwqqcfEvkdpvY7UFVSR+UFK6gSD8oonmZ1IXaDG+ii+sw35Yv/zh6vEJr9FFBOtMmWtqgaHh0xXHcEW9WLTqd8PcPRK8wn6tlL2RFtrRhRyu5D1r7C5N8x/6B/fevn3V2iasrU00dEUpP7O//nDZU8XnE+VU93L4VYDXaEF+5tSu9EEZ1JvohHPTa0iIKXLqNaBJB5pX1YK31gyj31M4i/FZEOvyWxFTqaxHV4RpCL2qUlCEC8mLxGn56a65DKWG+p2D8QLSznU67gB5Fz3iMjhvU428jTOmtfbKpYNdEuHtyV9raIHenWVGCaQWd6go5d2eSXhyx+Bih2OaXjfRHEmOkgVrpONnKzqtJEnH3dZgW3ygNgTse9XUpfXj64Txc7LhDi0ZaAQO/lrnhIgUNJ5CL+5bjQQX/zxb8Ruq1uUENJG9xw7x9WTeu3C6vpNsWAf8ByFloVqdmD80PYsQH9nEqjFXp4oGBNbbrz2wnP+3/XLupsuGU3Dj5GbxsPO/77pN+/MZzvfWTKzc31I6QZUexYSzpBDjh7lh37BOGL1+wFPLT5xZiIQk3okbBLFy8gP5QQXk0jNWSmubBZvgqVj15QVhEi99l26lFLDx5K4IkhlX5fVD0k6RXIYndTryO5mOAWZc30OpPA5HS3i5MXHifk9WTEAOznlXVdJYZDMhTLCSUbGQ/4EaQoCbBBIUkYUC5LFSPOAVLWrFpJsLoPPIg/7qmd5dH/1vVgvre/Tnh5z+V5IPXap1aGdcKmoC7Yjw/jOQ5snxLdv+b0YTfWLktVSzShH2MrfI2ldloSdDHDDL9gHMZXU+KXe9eEslxD5fF5k0ylhOYWyMbHj4dPntX/y81ee+YuDuGRDnNrwY+SDv336pDvW7vxE0DFwYUE3MyoiVcPiQKQOexuTekMMZG7EwSMwmdQVeU8i9fqNrfRwj5MnKwmfyJtSJtcfcpHdw6pClEpvx05ykuQhTVuhA8kcHuyQ0LuSuljU2wbv9R54r88Sc1o1mWudpPE433qiSp7Rr0LVDiU9bPOUMraWAIY+dWFjtfSEJHXyPidTgPy6JEvaB5B+PHJPP3j4IqsEtT+OMVfXltoOqTmA0l1+TJ76VOlRR3y6JUbw1u1PbBM//f1TIp8eEGUrO4nUyVFQblfqwvvi22v4Bfsg+oEw8qARkVF/kdMcqeGzKHtrFQfX9xillX928cUfuHqORvuopjkaeoxgUthXfeU3fz5otb0naO0+sSxj0DEUsMtXk10VTWD1e9OMd25oHQKK1GtvxNkU6Z04Bzc9V85eyrksjhFWYV8IJ6IqaTSlZBibEixVNjB5daka1fHckCp2CoGjEqcgPMreBum8BQlTj+ttR871WWIx1OvzOjTRBW6mLG+kONdxLoUgy0ywRMt0v8rJXortUlsQNSF+m6Y48bXSCVR92WTMuCRcSeqUiIJulFLOHeKwoFJssp17I3XcJpkjoCImPBGAJ8axiRgBuf/svnXitkfXi3LrLBSTQmsjyVxmSmNSP6AOkfoX5CdwKFcBhDNK5+uWAjlukkFlQhvb+OAVyzr++v0Xv2z1AV2wQU461OE8I5r/8VXPzL/92V0fyWV6Lq8YiW7aKdtYJGiRIVuXzNgUxaC/oEGsfp8Rfcw3eXgISC17ZFiu2ZeV9Ck/Im9xqk1O9mjySKcqaOTMRVK6XDwxn/CQVdKwwAZwPqV4bLIpJ2ycgUQwZFVGem4hinB4Q5a3VssU/V0dYlZbRpwD9fqsthQKqqgKaHRNqksuy5riuY9rEcnp+N1JMeNxs6fYxPeJRnW1i+mfzlbS/SEd8rcnS+rqJ5SkLkPdSJCgsD1oJALUVkdhV7EZaSy/s/Ih8fjOnHCy/UiARR4C6mjYuPNDAnj/XyLvCPLTUJEJlAnQkqHKJnIXZP3xtX3+0CdueNvlP2im6m0NS+qQwPU/v/HOq9cXs++Hd+npnpmSJC7LLJIVRqYipEpIe4GASX3/M4rPaAAEprJiNTJaSd1YIEMQtawiRt7qUtCF5I2EH0lIRgZizEn6raBwCsWbJ1AoxYaXOWV6C2EfT0OM9yP1ek/WEsfP6RcnLJqLuPI20QMuS8MLPEtJYbAeU0Y4qdIn5zto0+h6hoXc6+S5TtlpcNRma6w/IBt51A3x33qLgNT5R59Xn6sErOp6UxPsHESXTiH1eCukVPykP4iS0OD+Paw7Hpz2iNSfGw/EN3/zB/HcCJz5sr1ISEOeAkzqB4F83amxuSdCH6Qu03xLJ8v8kDmx/kfXvPLEj16/bFnTOMw1LKnflAt7fvA/v/2nnXr3NWUjPSfEhNIgcSCLe5XUPamii9IwTh1RTOqHNsf4WzMMAaUmjw+yA8sj2uxS/LRL9mEQuQVipVSqpFInwnWh9TKTNvKtQ9qlcC3UJk+AlRMopCJKOaGVc6Id+ZYXzeoRpy6eh1C0btGHrDBkI48roZGMSvZuGWNM14NUSwROmu2KCy0ANg8yxjyyh6sq5UToSukeBaXhWUTuZCOv36fEz2Pujoi9RuqH0V1VUlfe9VX9RmxXp3eiNK8+SKasWSB1TTy2uyy+ufJBscNJCjfZLjy8/wIJndefA+oY5cQITRK5XBLuAXlL0X8hxlnF14tbHzh9Tvv7Pnv5GU1Tva1hSf1f7nnupF8/sv7zYcfsM0HqyEtBjj21xSAumcqkfkBzh09qUARkRjmqUBi1byqpx82W9mnyP4EtnHTvJlTtpm2JHCR0y4I9k2qWl1FEpZgXLUgWM7+rVSwZ6BKnLZ4vujO66IXrOrxUlY2b7Ov4TQopo5zokoXB4lIDQJ7rROqK6pVmQJK6KmMaE3pUP1HZ+SWlK0c8tRmJiX2KFF4nsR8RUpf2ebmzkJnjoqfK+0A6ECpSl/HneBfoiAm8e9fz4+J7qx5DdbZOaU/36JypKzGT+gHNOJUHAeGRiC5QzpcgdDxotNghTD7lwU3tQeHLf3XxxV9+3QJt7IAuOsNPakhSXxWG5hduuPu63UH6veVE+1Lko5IqGWlLpyFAaSLjeb83IxZPqhk+tPn2DwSBOE1sNUyNaJOctSLWo9hfWYuMUriCyC2yp5MNHTnayW5uoXBKqYCaY8Wc6G9JieXzZouT5vSJJT0ZZHpTWd7IccmSjm5EgIq86aBwOFiapewdkzU5ssZJYeKQLtIOSJtp7L0uaTy6hpTR1LVjVXos1cd+AVUcDsfTfY9gvpDU6TRZQ4yy2MkNE0wR0ilPl5nkyA37Vw9vET95aJ2oZPpQ/RHlZeKiLXv6DV6H9jmM43HqR0+kQ2WUK4EiM1J6UA7Ht952yYpFf/fBFfOaIsNcQ5L6D9YMzvrcrY983O/pv9K3W7phFhQmVWGiRYHsW1TEJWq5hhVsagIKOYp4Mh0IJ/A5MxwBKX1HcyGuUy2JifiIQsEotSvEZcr7ZpJTHBzfvEoJ5U1RERwSOfmoLJs/S5y4aIFY2N+N+HIh2sGwpGKnQioa8nKTSt4iQ7l0IKMMjuT4Bvc5SOCU7otImVLREBGSgxx5yYdEiuRlhvNiJ6haitaYTJVtvN6EvqfuUPJ6JMlXTzgMW3r1GnQfdI8yGa28D4JShgXKKo4q256KCtAQzqaJnVBMfP/OJ8Wd68eE2wJSJzfCugRAL7h/Xof2Teq0uGMcyQqa6FLCnsysJLGT9ieJcryF4S1PLesQH7jxDef8EmMoDpaY4TN377ffkKT+d7etfsWDW/OfK7R0nORoBhzekRs4InVaJCSpI76VFgkj2EtBB55MDTvouWF7RiAOWVOkTqREhO4iyQtVw6KUrTkR4NGaNMXcWZDGEVP+8gX9YnarLdogjhNNxqVG6W/8CED+MMCr+UY2c4o8wZykymsWFl3KtEZhprS5NmUsWqxCJ/U7rkrq9zpTuVq0pF6+xuixExwt7hHRk6WVjvh8Jc3HR0zqh0PueyZ1efcyy5kidQ03T5uXIh4b8c/Xf32veGocZZ8zPcIB+aisfpO3JtU0vVPWIfaOnzx2af2mJEYupRsA8CSda9K2rkaiYcLRsjQ82CuGvvzXV7/0C5e1tOxu9PnfcKR+Txi2fPgLN7+r0rP4f01oyblU01E64FA8Ldnq6HU07aUEwJJ6o4/xad2+yTnWX3ir9Yt4nNGtdlY9IcUEVlNN03lTgzso45s84kxvk1YAkjpJyqHMcpSnHUSMdK1hKS9skHtfa1osIdX63LliwUBKzIY43otLJeEkR3NM5m03ITXhOTnT2fBc9ym0SxJ8VJ0tqtYm74Ns0eQ9L73bo1aRh5wMNFfFV8imTqQ+VZhV9vMqeyu2jh7Saz/6OE57S6fH1nf13pEgdbqqupbSNsQmdsJQ4Uj+AwYqsxXxYRGNWAur7pd/vkps9LLCSXZG9nQm9UOapDIdcZwXQY1dOmIVfFxYKKX5ZX1i0x0XnTDw/g+/4vgnDum3ZtCXGo7UP72mtOCm2+/+WKp/4RWjrtdmQCogGwu5yKm0lmoCmeQ0RwOiOrlnUK/xrTYEAvW1vGMTEBFPzWmNSCJK+CJVuPDpjUhZmqWrdc8VucgKYZCKNamFAqlQOBn5j5CKEocJqcXEfAgR9iHJki6BsDQKHwsDR9YaN6n+BZLCaC4qoiFta6sN7/W+LrH8OHh0HFAjAAAgAElEQVSv9/eIOVlTdMJ1nWLKyU4uy5vWSZmUX31Pxx4XmthbTTqU1X2rzvZdPWXKRaunTzmhfhNTT93q6/E76u8RWfyqHncklSOznSR2UiuQw5YqSkObkhL6Lo/379pSEt++7fdizOgQSFsNhwMq5KKSYPFx8AjImvfA2aTCPehQB/4X9NfEPKBxaevYWBahHinl18/v0r/2vtef8Z8o8kJKk4Y9jsi4nk7ovOWmR85/rhB8smhYZ5lppF90lE8qkTk9qAAFTTbKhEXqRell23AoTKce4XvZFwLVwidymJLqMCLbSI0stUpUAzweo7IQEakXFRFQtjJFJRjXkJKlmhrj2yXbN6RgE1IiPQyKhcbC5yI1Mqm+aUNAwrCFRDAhEsNI73X81VDaNK15Ym53i5jf1y5OWTJf9KQs0ZvWBMzl0vGNwtAQqSbtxnJvEd3bHkuT7rf7a85m6lS1KYgpLt7gTN0qTNoD7Pc39n7C4U596QtHlwdmsDGoinNkeKB4aUnqSMSDE4ogl1F8dsvaEfGjux4TebtTuGYG9dXJO/6FG6GY5F9Q6vUw2tpoX1UaGQht+Je0ReS3UILjIc0VUyDLHDZUtP4nEHLp+8FEsrT7tnddcML/vrbBi7wc7pieVuMEXu/Zj3719ncX0z1/lRPGQjOZQaeqZSEmdTLRxektmdSnVfc13c2oRUlpkGqSuoJBjlpKvRr9JSKXNmtpM1RjmMqXUpITstnKDSsWNVfaoGFLRJYyksxDkLjK2AovccSPE+kbqGRlUH5sHQlexocgxYyLNDa5vS1Qr/d0i6Wz+1AVrUvM6cLiCK5KEvnH9wg1PEWRYP8gD1VqVZHSIZH6VAE1uu4BSegHsHrtT/49gEvsc1zWSJ2s5sBzKqlDAxJg41VANjky5v7wvufFysc3QPXeLRw7K/Pps7bw0Kb+ZFKHtgmdSdn5yBPeQAY/Mh+JSiBaUkki/LCw/dm7X7ti9v/60LknPX1ovzgzvnW4Y3patfLTd21ccMvq9f9aauv+o7KZaHPgEmnHJVbJ25YWUSb1adVnzXwztAh5YFmpDI5s3GpCxvKpUulKhS7lTydbN9lopXRIUiDeR6ymh9PJ+9qnmtwgjwCqX1mN1EMCDti1dUjh9F0L1c80BJF5UKs7eGhuTnTbvlg8i9TrC1DWtFfMazdEL3LJyJKmyPYG/o/U1LCTQxoNqjYDutOo6lmkRnjRSV3uJPY9go46qcuNDf2jSF0ZQeokdUqqA1+DPNafLeiTr698VDy6ZVQ4qW7hQf1OPcKawkNbBeJNMc0Hm0r7Yg5VSCqX2tiI1PE2JU0ySS01sWPNshb/X77xpnNvamQv+IYi9Xf/4L4Lnhh1PhX2Drx0HBJ6APsKhbKpZVKRuvLPwQJH3qkUc8vq90ObUfytw0ZgEqlHV5NSuCT1msNbbLOm9+PCKHQeef06UlKHCpJsh1jUfNjLKaGSDimdwsgoXasJMk+QjbEyIcLcKNTrjpjX1y0Wzu5ClrcuMbunTfQnDGknT+C6cTEV8liXddDxG0TmAVZPSgRDxVtoLhGl2/gWSeuTS6seBDRVm/QBfucFkv1kr/HYAXB/ZH+Av7b/05R1DwcSnUh/CNlLMqRKOWxBesdmizLJrUU4/1d+dY/YgAw0XooSzyRlbngm9f3DvKcz4uJBlIPEVlmKqqROm1eZ80Aqs9Aj2Fi1muVdidFN3/qL153/mWsHWgYP7Ven/7cahtRXjYbtn//hyutRke0dTrrjuAItjti1GSTGyOlGak5SU9aTes0Rafp3Fd/h/2fvTeAkLatz8bf2vffumenZYTa2AQQVEVGy/E1Ioon5S0zkaoyoXKM313gTkxs15no10SSGuEMQFDEKKi4sooCsgmwSQUBE2dcZZnqprn27z3PO+1Z9Vd09vU939dTHr6merqpvebfnPec85zmrrQUccdO539X6bljhXqU39+zq7FbgFncjQZeWCAlwNOqZOsZNa8CHWCI+h5KmhYn9JgLi24a+JEqarjU7ob++BXqtAwiQQ7VVDgqmMFYe4ZnJN5GCJA4wCer4p3gVGuVXnaWuLng95hwDXg2gLg/uQJ0xcmpfWFAHshdAkqOU2Z3PZc0F37/d7K3ETSXSg6gvJHC5NrWswt427BDoDjzr3dyBw0nasYQNLi11gjrHdNBuODlnkqFqzrf3l9eetnv4f33oFcf9YrWtJ/U5uFoe7NMPPLP5su/f83Hf8OGnP5+tJAMxTBza4R6Wu3PXcLGipe7AfrW0Qec5lqMFFpLn3CCZ0QInGDckRvVZOIYJqLT+xCikTjhhnaxfxGOl3GSpZKr4CVN3HbHyYDlrKhlY5ZlR0wuK+jbEx4/euhGx8gGzthsWCzhzTn9dUuoYJyeYcxMgbHnmlNO1j40C3qZT2XHyfeLuUlU4biRE991zzBnUZ9tldfCfxjKf6TxLZb7U70vd7/T8CVFOkJp9VAPz3WdoFt748H7zlRvuMROhXlMJdZs8RVK4UXL8BG8Zupmep/O+tgDWcj8miKaGQg9A2pNMeJ1PIXhoOVb5fgQbr0D6mZ9uiAU++NUzT71ytbrgl2qoH/Qh9+5v/vik+56Z+Lfa0OaTRktYdEJRYf+S4KNpQpZVa1PaNA6mLpvO0WmB+bfAwsaPLkZqoYsd7FKbLEmOwiQC7FjwVZ2MFdP4owtZrYQiKmCt+eDmLWXHQHobhxBMzRw+1Gs2wzI/dusms6k/YtbBp05LnBOeMCyJnfhOlCx4uwpUAe68hh/gzvlShulPoSZG9mmNM10Nvi8pbelnbjm/Jxjf8IkvC6jzPpwbfEaG3fx7espvNoG6VZBj6zpQx69pfPE5/Fx937PmstseMPnIAFjvSZOHdcmNFD+6ZO22yI+74k5HUOfcqXIDqp5YCosR1MV4w4gtF7V8bwjWe7KSe7o28eSF73rja/7tjG7f/hX3PItwQ6sC1O+q1UJ/f973zjKp9e95IlPbHulDOUNYGywHGaE8ZRN4qwJRB9QXYfR0TjFjC7jFmq8EPy8AOs6ZY75T3lI+Q7EVWm14JWYIqJNSJUCqEqoc0gEwq2NIoypNjMBlnkcFtITZtqZXiG9HrFtjDhvwq1yrxHYtkJMsyoXPgnuE5DuWVxVgxnnhvuSHJdYr11VvAgtk8KCIjDe/XkDdo7O8aODkwFLo5Z5lym4i3HXktiWk1sB1LQ+rYjjTHnN1+093ImccSIuytWipO/V6bWcWcXkeP1+45mfmlkf2mVpqrSkKm4uq+JTNnXEYdT4wTQvU+SYAdREB8oI6vwOyKMsBl7D59YM8lwhUssH03mtetmXT//jYbx7+xGps2FUxnC74SXrw4ltv/UC1f+0b9hVCg/54t7gQSfJhCo8Qj+oWubPYlYzkjQeuxg7uPNPytsBU+cbubwK0oqamNcZYr1zU2AhR+BvFYygMQ+JuQCwSstihv05GdSFvqvlx0w+rfNNgjzkC4jBUe9vQ5YfLXWPlBPMgFjV+TzYVXPBk0VN+CSd/VHYNFK2BNU7wtD9S9EgKkRBFdc7wXjWdzuKXzWZbUlC33UdlNtlc1KXn6GlohC/klvCHgFR0axzTLnBLAuq8rlZlo0tYNkW4X8bTH4F3/rwr7jI/fR66J93rkOIPEELogv3bAfV5zlGZE3ZXV8MGiSJjYMbRaHO1Pdi4Mh64v0MRIgSrTCg3/l9HdSXfecEZu2+b55VX9NdWBaj/7ffv3XXLI8+fU+safmXaF4uySAIrSbGqVI0KW9Y3x4kmTk6xLnSHLFbHdC67Fd11nZtr5xZwwF5D7rha5SxcQmlULPR2VhLIqxCEKUFvPQLXYSII0CpPmEAxY4Z6U1B66zMn7DzMDPckzLpYoM5ap5vdT6ufeel0nWOQy9JXrwbmCpUyp91a6YzvErQ9k4FSrxS3ERufCMrfBD2Jprb1Ocfs/c7PSm+JkTdBcnMPS9Y+LuYMd2+OAO9S6r/gXuDRrnvjW4MjXtlYPfvCwifSFtoo+OGrEuWYZyihE9wMQf0e/O+8y280j+VBRYTmO/uCm7iOpb6AWdwC6mx3kWKC+92BOhVFi/m8iUaR6sn6AtgQRyr5J3pzox/+y7e/6quv9vkyC7iDFfnVVQHqZ1x47e8/U41+qBDtPbYc6jJ5clZg0UTD1H0HK5U5vi6XlrEXPHWJeRB2keqA+oocm6viphpu4obrvQ5+WJTCkAkl9wOKV1panEOX1gfdx/iJBKAKh7rQgWJaUtG2DCZF5W3Xpg1mTcJnUN3UQGxUDBFOZrLWozDt1S3J8p86zuthAOKOWN7qs5aMEHEY6+G47dwG8Jvk2cs80RvTfzFN1BpItDbtR+bZXwcGdS1f2limKHkrBFjZbFDDTQ/wBE0un0EKn9Znp8u1KxGTW5ONu9t4yFN5j8UEdV6ZBoVWmGMeQgmKcWlc+/qncubCqyEPG2Z+epd4CNnvFAHqWOrzHDoeUK/WuJUVqhysdYK61rcPAdRJJA1i88k5QGBP1srp6r4nv/aO333ZB9+yNUm6w6o62h7Uv/L4aO9FV97y7mxq7Vsn/PFNFUyYAnbJjFZhPmFiMdWE8Ud9VJ8H1GVf3bHUV9WAPugPM0M1P11ItLa2sHDpVheLWMdjoZBFHjnybGGphxlLBxjU4FoP0KKAoAl/+uMhsw3M9aMP32C2IA+N7PUIvk4wjyHKFLYecvGkC6TxFYsbAD6O/HXajvJH9+PMbKmI5oqRELD1npwRTvDk3xS/lWpa57q7zQGJpwtaRZy97XrOgay+lvEM0lZMTcKfZL9jP8opXQCGT2TzJp1OQ1AHIQmAeg0LdyqVMkMDAyaGKnCy2cGPbmUWF9Rdfr4yEHhvuBJurMaqdvi9gP4eh7X+nZ89by699Wcmlxo2OTAdgugoKYLTAfX5T1kL6kIiFVAH8wMbYC+oBzBomKFRQLlgyiUT7OMByDPtefLmk7Z0ve0Tv7P6UtsWNB3n3xuL981/ue6RzZc/+POPmsH1p+8vh3uqgQR0r1FHl4sn9/R+uDclrY2a2YwJcmeM/Rws9Q6oL14/HLJnmgWoewlyXlCnFc1K3LSuQwABP8G8mDMJxAXXQLJ1bXfcHHH4enP4cJ/ZgCA5ATUAMEhStpUAhZz0AKw9KUwUgnUOHXdarsJWV3iplz9tBnVbUtqC+uTqbw1ncgMCFdSdR6De357iK3MfA62AzjM0g7p6+1U1j6EAvstvlWCx54pFMwG33Oj4hMnlckjnQxEVyuUWkQGOVL++3m4z2NdjwdwBuzjHPccCLXUB8sahhXZ4k1TkZyEXH+RhfeZLN91vrnvoWVPp3Wwy1RDCKVrymfZ8x1Kf+8iRbzSBumggCqhjZ4zUNt3Gcd2PwhuWy6RFkKmMzTOqtpnY2N4Hhmvp91zyjl//wTyvvmK/1vag/hdfu+HF94+V/z2b7H9Z2h/DEhkj78fEyHwFQWg6UC/ybTw9q/t03O8rdnyu/BsTUPcu68237HW/ey10R+SkPrW/BBY7LPN+uJfWd8XMDhRSOXrzOrN1KGRSJEljPLOACr1PVMmie5eVB/207JHOJgSy+kwGmHACAEwc+1vvzhJEPbfacEnbR2h9DGvi1i1j+2jWeb8IfeONircuRRrLd9fGPt16IGCdw52ayWQB6AWE2iDugn9z4xQNU0UPsiOwyigN2tOdMv0A9npoQs5owxH1u18YqHubzI0EzaYiWPtRQ91nHs/XzGe+d4u5Zy90dwe2mmwlAJ0M9CUuXUFfdkB9nkOJoM5NEVXeazHddLaAOuuthzA5ymC/12Cxl8BliGEkJfLjTybGHv34373x5C+dMjjIrMNVc7Q1qGMiB15/wfffOBJO/e8xE9tZDiWRVxtBB9ZMPMiqVHCBiSazig9oLWktfuEkY12BjFXTo4fag3gt5RbNAW+hlCmbpcXKViJl43CLrSOCed+rp0RydKlmqwfy9Ff3GZ8VlhHSGuLkdA+XkW6JxHLTG/abvljYbF0zaHbDvb5rXcQMwJPIamhUyYpgYwqKD4Re6HuWiylAq96xFK9w7nFaqXJR/YP6qum5JinL3p0DIe/dyn26N9zvzmdtz1W/NE/tWTWmWkCm2hs0NWz9Jtxd8XUyuNKDQDDn9cQ6x+8TAPOxibTJwuVeQLGaMCoximteys6SioCNPH56upJmzdCAhCaE0M84vDTK4oG6GOSeXnfp+nz107sAb+EYPvDwRM184tvXmseKKH3bt9lkS9iQ2TryvLkOqM9z0apvqOmThe8D7R4AMdprqQeh7FfFpjkEfpXWSACoY6jFipn90ZEnLv2NI7Z8+H3/365n5nkHK/JrbQ3q5z4zPnDxN2/5q3zPwH8LhlPrSiSfIP+TOu86gTmhmVbSXDtd11/dsxPUO0ebtgD1BpwyoPSpCrToYfu3jkANbQIVfOEBKLAfJ29SwzPEQgClgKGr7sfTaZ65arOTo8HLMa+bwMOYOa8NB7kFXbKbZWwhjSYAp3gULj9/JWcqSEMLVgumD651WuUnw72+pT9lhhErjzO2Lneu7nWqzIWsMlb9jusI4Cxvx1rX1LhJTgM7w6fzJdQXgOk+oM06/dGyS/ACnftSs2Vv4/u2j2RLYvtI4+WsBc9Ivka/eT4GC3IINewfGzfpCajlcXMk2QJo+xI/j7bmfgbWcQ1WO6IQph9u94GelBLTrSuuYffLNl/uYCELIE8N5gKdvFqKFofcs2TcQJcfZUDJfL/16QIs9RvNRLQXOvApXBtlWUHg4r374WnpgPoBxtdMb4lIk3p1Gj2gmQc8XLaGkiXdhhhzsVypxkpjNx2VDL3782849mczXaad3l/ImF7253zP1Xdvu+XxsY+VE/2vDoUiiRpmRxkmuA8TBgE4W2RCV53JVped1B1QX/Z+nPcN1Nmvrn+bQb1x3mZAl5xsCxhUTNPJb3OwbdqXgBM+JO9bYluDlU4A0e8RYMSFCkBnqVMf6pY78A/BKo8hDa04+oKpZvebLjDZNwO8t8O1vnPzsNk6EDP9+GYX2JphhIusZpxUiHaSsSroPhmr64uWzd1xsXpvWzZIXPNu4Zm/OF9QF7DFxst6AuQZaeFiWjowZ9Vk7pFonY+k4W7PZTG/Vb42EGZpWaT/FZyFDhc8PCAJsN57u5MmBeY7ibIqdCsrQJ2cqO25GKCO+vQcOwR1y1CUzaC/KHn/OZQBZbnVH/x8xHzx5rtMMd6HD8NNjJ+aFN/BOHSKsjO3dOcTU7RAqxetdYPkNvBaXId7cysCBUJqtJb9WTyz/8PXnH3q1wH4B9rWtlXbtzWo/+mXr33FL4rxf8nHky/xQxMb3njwU2ixNEDdOcgm74a9O7u26rPOzXpb4ADud/cxlV/VpVwHvHpueLCyGdO6uMhzjFQRi/UuFCq2AkKayJSR+qSWMeN0TOfiGYuwIvkOyVm06EsgvFG+NQSL3GTHzfreqDl6/aA5etOA2T6UMmvhWydznda4OyQnnOpujKHzKpJTC7AH+ct7ODDiZoIHY4Y8vPF6eVLrC55f7vgchlgLqGsre49Wd7fcXONDbG/8s2I3SZJkjoOATsLr6HjapAHmWeapkkOAuS2yqngV3fkyxXgoNMWYesB0w+3e2x2VODrFaCgTre3TfFeLBepUe2dxHbHU7QYF2zgJyeQQCnwSf7/kRw+bKx94xFSYn47KbMEgyLwIr/N5qFPeORbeAlOFyNy8cJtsmS/ON4NBF64Unw6+8NhXz37dSz/6xs09Iwu/i5VxhrYFdXRU+PXnXfOm52M9f5UJxXZgScUk5sQCCxgTXnSyRSWr2VJvNHsH1FfGEFz6u6jv1uVSzYuolA3lWKFVznwJb2gXoOA2BBxRjFlzPEm6EpXfJFUN4AwrOxxhlbSCySHeW81NmO5EEAx2uNePO8Js6ImbLb1+1C43klcuJU6l6rbPpJlXjU1CEOdg3JybhgoZ7aT/4G+so+49Zgvq/M5yWOruXhubimkMILvpoACLqN3RN8E+AD4X8Py5fBEu97IZGU1rHj3KlwZQG15i60z7w/eJ/74y3O14TcUTAPSUiUcBsRJDh5Uu7hi9/lKBuqb9MdTSAHU65TmeMliTHsZe5Nwrf2zufj5tysl+3GvcBMNxk8mhj+HZ0Up4HWBf6CowHajXz2s3jQ7UabHHUL/QP/7c9afs2vbnH3nl+icXeg8r5fttC+qXPlnru/gHP3z3/mjv2zP+yDCtdLrfsTxKjE2Ys7SsGsLa2uYtcrGdnfJKGYqLdR821iwLuhehbexSLHN3LVjsUgdAXbg8ZAPgXN74HK3vIkGcrlJhlANcGPElELNgBOKnxcyYKWdHAdZFsyYZNtuHB8wJO7aYHRu7DIqiiVWuWbQKNpL5DWCi+EgYjG3a+QR0kYxhfJ5KcPBDB8WKbbV7na9B71fARECrkfu+WC05p/NMwm6bNudl1XlO6J6rxLQ8bl7wQ+s8kyuZ8WzWpDM5kyeZDHn2omrHjTraghFUFzFj5gBDHCmohXV3dwPY2YKieitEtZAoSvLGvK53Oz7svSxsAdS0WGn/prGGSDsGWRr3fC9qqH/qW9eZR5FuU0a51SCs90AwbtKo5hKKUNrUacbPqbU7H56hBSaBvPME2bnCORyFFnxoYv99m5O1sy5648l3rJZGXdiYXsZW+Ncb79v4nZ8+/o+VgU2vzZhgslbVxBVa7Hpw8nrYtc7N1QH1Zey1g3HpyaBOcQphSPPFutnd+Kj5CxK/pvuUxLaQaEU3EKpGDy/cu5InTeDE4lAVly/rj4NLm9uHqmgVs74vZY7YuM4cuXEQAjFx049hSAZ7EG50SF4ImKtVinEKsHb2mYxSWJs8gtSAZ0yZLidnWbQUJXFZ1m5kr0hQt0Ba7+1Gvp20rHqqKcbDjRE0I/CshWIFgF6Aqz1nMnC18281KuPRmmUPEdCZyoc+YCqfACk2W4PI50/FIyYWQ5zdWuguhU1CGtitNYcgFhfU3TM23PkM0wgX34zi2W56Nm8+f8X1Zizag7rqsNKx9fOhkEsaO5ggQF03lB1LfbFXhlZQd5t2573imIgisySWH3m8p5R+//vf8euXnOiTVKm2P9oW1P/8m3e96P49o5/JpAZPKoCQIrIYFJghQa5eoNjFTrki24nTAfW2H7TeB2A8XA8bu22yGN0Crq+N8qVEFVjFfqSWBVSuheljBPYQVgPmgrt0tHwZcXGY70EofwUI6lAtqyEdLYTr9mANeOm2AbOTldE2rzXIRhPXOreVIQCKALqY52qfkxhGImcF/ya/jX8WnxJy1MULUH8W3p8DMdVwc4tUnRVgZy7v1R1LHj+fcuS0AJJ4Ohgz54Prvcn/mT2Ae3ahZwfqNTx3JpM3Y+NZkykUEUeH3wJEV7rb/fSS2Bz0euEbITmibdGwMdDc14DhHlEqg8TQ1YOiHhHx1PHaTd6CBqjzHrSszXwPArh2LQMmPBPscemsPIyM/ejc7z6w11x84+2mgiIuuWoYSoAaeMmS+4MbJx+gA+rzbX/rWfN8vZU7JUJMnv6vF1PC7jkMUO+GDrxv9Knz3vLKkz/7xt2rI66+kBE9/55YhG+ece61v/+sP/axbDS5owDyiZaoILCrm04OYUfzlw6oL0KTr8hTTAnqdgPXSF3jCt+qsQ32MTWiralLwhmtb0lto7uWojB4jcdQ1wkFVUr5MYjE5E0XMHbzYL85evs2WOUAcyi9deP0hF6BbliPUav4JuBGi5uWtyA40MdqUlvntHgFnPqbU55rcqW7TaidqQ7C3RD3GMHL1D/TgDo9ZQLuqiFP1FVtiLoqvVjq+0fGIfNaNJlsTizzYCgiZMVGsylpUMITIiKSE9d6T3eXWYNUwIi9jDCb7f6uAqAUpoSnolujcRYR1Otri/IxeNArw+7OYWOyF3/6yl1PmG/edq+JDG42uTLUzRBOKAF5+L4f9PwOqC9s2DbNca70LYjmQL21BoOQXdFrqVp5f3nPE5e95sVH/f37Ttm0KvLV2xLUL0UA/T8+fdW7Cn0b3pvzRzcWuFDKuukBde7a6z3OXNKOpb6w6bPyvq2Wn2qp1zdwEqNUkRdJYxE3rxLeFFt0sefQqICHUcYm0A+hIi7KRbjBSxhI1C0K4XNBEN/yI3tMd7AMmdYwhGH6zHFbh80OyLYOgGlN/xAqn6LgigKKuNjFbY5zyL8de0oDQ9ZkbbyK9JjddNab1yJTi5CO16D0OiOWewKX4WUIAITr9+G57yrSz2SDgmnJMislCXZrdgHd7CTB7R/NmHAsKelplH5F+rDwFpgGIKEOIGQEv1crRVPOQzUd2QAD/b2mCyREOE+UUyDKYl5OwVTubC+/okG+X1D7SffSWgc/AvdIy58xfm4p8gDtx/C4n7j8DnPP8+MmMbAZXIESxHBCUg+nHI4JP6AD6gtbV1pB3Z2tnsIsZGn1EnmBne+HwNmI1QqleHH8hmP6An9xzute9uDC7mZlfHtBY3q5HuGz9472XnzDXe8rpPr/zEQTg8wOIevdiQsIYc5Odmel1zu/435frm5b9OtyohKgyUCWWJkt/uGsVwJ5BblDJJwF4JN1qWLCpBIrkn8BNGMBptyqX4hVsLRKGVMrotAKFN92AsCPRDracVsh29qjVnkYRYIgRkxKJrRlwtgokOilLnIxzhlRlVw4rT8gmwkHewIEHoCBt6D5mBnUZbjbLy33BLZ2uN3QqAiPN2eexefYAows8EkzhRJEZEZhmefFzW7gZSPjXTgOBEZ8n1W1eDBtMIhAeQWyr+Q7dCP3vCsRldS1KKzcEACekrk8Gt6N6eLTSwXq7AwQKbnxIHEP/6T0TBqj4+co6nnOFbeZX6ZRBrp7yOQhFxtgLXu8X4IwDUFdFS07MfX5Lg4zgbo771T57CGsFxFs5FPl7D3DwYkPfulNr7oK46jtO2O5188n70MAACAASURBVIR59eV7UcTlpgcf/afawMbfrdb8Sao61eA+1YltRWfq5ozH9c6loy4F6uKsbd+H82rDVfElMtdFTMJWQbPWGt24AnxAWGqAM/2MTHOJxQJdSLQiyDJOy8po1WLBVGA51lD0IVTOmQ1dCXPc4RvNUbDKt60PS1W0FE4plf/ENV8EeZ0VwUhu65bziKKZM8ZJ0KrX2Hbo28g3b86R5vjjTzPo1IF/hc9QlrIkiLtn4qbGhTBdiIFPBx6cGQOrfQzFVzKwuGXjDRJcMJKEfjvEe8hBgLUumzT0Fzdo0qbIBKhAlS+FohxD/T2mG9kFAoIIc5A1TwJdM6i3juyWdl3Mge+JhahcLzd6eFZsH19Af961p2Q+feUtZjTYjVAPt4Fk51tuAdzwJF8GSOTrgPqi9cpM7ngH7rTUuaEKg8fR5c//KpB57rN//YbTv/Cbfb6xRbuZZTrRCl8ypm6Vt3z5phfdOxE4J7xu6ynZXMZX4aKOCSKiM3JoBSTJKbaWkrNt/MKS18/w6KS0LdPIW4zL0u0KUNFVHZs5AAIZ5hX8EHoJ6hWsnAFY4LTWhbRGoRKYj3TDhyHd6mP1JsTMCdrb1vSbY7duMEdvRFU0iH91YzgpkDNNipriYMoTwG1tZvW8guzE/yyoy73IYu91knO4qTPeEcXklvHTzIP3NEpLLH0xmmuxzyEpZhbUxcdun889PXuG0Yh8sWbG0hmkqU3gd9ixQOsAlPdYg4HK9k79UWrIM+efaE6PCaqtMZ5OC70nGTNJpK5xExagd4Ma+ri+UN08RKjJZMElBnXxCNJLQ7ubjnfk2cNeZ3D2+of3m/N+cLsxfZtQUQ5DAHwBbC9lnapa7o8302Kx++dQPF8rqNesvLOMSY4X64YnqIv2BOoHJPzFPdU9j3z3rNf9xgdWQ331tgN1dIzvjZfc/ppflRL/MFaNHBtGYWlXr5puUAfW6v1Ut2zTAguXqx7NrOlDcQK0+zNLnFxyutmdAHWqrEusnDOXegWaVy5ggY+QxEQLr4zypqzaFIWbfR2A+piNQ+b4XYebbcMJM4QKjkh3FkETONfFIg/ABYxtAW17aochhi7BfDlqeF9I6zZVzVnYjshWN+acV73e6HoCgrpOQjceZwtCzsM0288vbm+3KtbRzU4NfCEC4pYYN6Yi3PgEme0owAKLKAg2OwVk6F6npU52O+s1+NlXQnIgWCNGLw2LDRfi6KlkwvTBc9KFmvLcFTGHP0hPC935tOjrG3n3fM0gv7hPPcXZrJOFYYgq3PDMkEDhV/MYPvqtOx9BDfWHTHzt4eAQgOwHCVuwNpTAVyGhl57Fls3fkt/w6rqAs7xbm7EuOCWePPSOhMYaoK4zDusDxlDCX5oovfDYbb9z9Mb//oFfP+ZX7d5CbQfqV+2rdX3swsvOzq07+h2FSOqwKopk0A+qE4R0JI3LaTkIWR2a+6gD6u0+Zuv3T1D3C2Azcm2j18xHZ36zpEUx3AmQgBUVhAu3QJGY3DjESoJm68YNZufaPvMySLeyVjlk2IX4RuJVEJM/wJRVWPIcPWVcpwj3PfW6o/4EXPq4Bt6uQPEsGCWwEJhVmljA2Q45j95Fsw6OPIEl7s0L1L0ho6UF9elU6RxTn0/iFOHobuemim3FsqhUhUsjXY167WwhH9PUZAdGRjsJERouo7udCywJijV8tww+A631VCxmhgZ7RcOdpDj7TfW22OtOHszaHgcrvU8JuuxyqQIgoZgsQP0huCm+eO2d5uaHx8F83yIytwGksBUwroSoWcZGBm1Qmy4ovGpm6dI+yEyg7q4+VcVFbgS4diAwUq1NPHP/Yd21t37lDa+6c2nveOnP3nagfu5dD6z7+o9+9cHs+t2vfTZbWpeEpc64m+y7bD5wswqXrrB1okQLqHfiWUs/yJbqClJqUTy1LKhi7V0umERVxmSx2Ysh+bwwhggnXOxreqJQeRsyO7cMm41rB8xQwmcG8X2CuZTmxNf4XYqYiBeA7nuMLbqEG8xZ8d9xj6+P5WHg0OqqVwe0oD1Jg91LkpNbbqiS6QmbQXryBJ2GWLdEjTwVqHsBnUI8AZZFQ5sU0V7MNc/mYJ0DzLMAdcJvKIodE9zNebzH54tGIcACMKfFztz8MivZoe1CQG9K8PqxY0rF46a3J2kSyA+U0JruAWyb2w2RzevX4rPNh2QbeI6lWujoXBC5eut+568TAPV7JhBP/zaU5DIJ40sNI34OMwObvwK0EQjqoRJAXQSROvXUFzJ0pxOZmW1snb63CJTlgvkXHl8XGHnvN958+uWY68K9btdjqcb6krXHP179y23ffPChcwLDR75irOLvigZYn9pZ6rogevN97SogjNPmRdPu6DsklQX11XQ75cZJJZBtwapRSIW9ITFmiUfy08qDaBDEHHjZVw8p1Vv3XEhx4rYFSQmrfpQWHUCiVkgbH6zyUDljNg12md3bNpqjQX5b3xcxSXyFIjEqFEMLi+MH0VlY9wLCOB9BhwVDHEjTtcowj2h94/sEDXoHUFZEGO+yrovLXjcEdU+RG19OWEZA3Vrz8iW2w/SW98ygrm23ZAfdDS2KcCocQ1+4VcDDxaH2iipqOZNGvnkWcfMC/lCmu1PCInSxh6RNHZFVLHV6WbgRsmGyKkIhjHMmoRDX19UFYA9CfAZeFqAmc9R5cIwIycnzwMsN6prOqIRHDuERPMWdIwXzr1+9yqSj65G+xupsIMZhDBUJ6rj5IHLWte7A5NzqJevLVXpiiba1Uljsv92mVIoAWe6F22jLnJf0VoB6afy5ger+j/z1H7z64tN6fayY27ZH24H6my+9+4SHsubTpXjfSwuU5mI1q3qAc5p4GgGhNe/Xdlk7e7+mcinNdSQ2whQt35zUXpOBQ0LLLUIvzRrYBCwtI8r25wIudY0p8kLsxPfLEWp+s8qW1LrCe6rXzYWPsexiBTFrEtpkb8C0NbKF5cICqiVMSk7WGN4P47PlsX2wykclr3zLUI95CWLlG/qTZmM/WOxcTHEaVLLGXXEzSDa8t1ba5GekJamEMMuwl8VBF4O6td7SdDqpWi1q+yG2q9vRLHj2Tb5Go5787EcCQVGJpbwh9VDUKewEdbtj4TpJ+VbmpQsY2UtkkKo1wjQ1yLwyz18EP5i7Dn86f2f3anYK2d8aohAPerWIdkRfMMzBTAW81ZtClTVY6NycleEFCNmqbXoppn+p3G+9pEOTWtzkZ14sN3yz90+vo9QK7UyOKR5QEzf78Xr1w/vMhd+/1RRSG00BNdTr8tV+Kua5Gnt8DtVM6BzzbwGJ5MyzDbk2lcp5iEz590cmnv3Mu0//9U+dsc63d/53s/zfXPCycrAf4bUX3fonj5YTH/CFY7t8rNqkSa7zPuY7GOZ9wUX84nKDulvY3ILrfbTGzlmB0lvXmP92uFaGhJtU4SLos5I4metAC/ar5P2C8VxBCVOJuzKtDNazpAXBmq5gQxePR01mbD8qo6VND9htm3oSyC0fMLsh27ptXVj013uA5HAAC6BDadz6bJz3oEGuPFDXtMaQFwssFj4cmoF9MUCdmx1XL56MNAF9qXwI0PIAfhGx8tE0Y+cFU4B0bglILeVrLdip6Ac0AhhLp/tZHSrC/paiOIT8KtLbYKGHwkHTRVJcdwJiM7pdEqW9aT1ps/NOLFY/HRjU4SVCyIAAn/OFUUPdZ75626/Md+94wJj+LYijwwVf080jt6I1H3gDJPrRS4FsnHZegxY+fpfxDOTaYFEhqCPClq+MPvOd1x933Hvff/LA08t4Vwu+dFuB+l21WuhvPvfD9+1LrH1rsebb4g9HJrldFtwih9oJWrUWpvFoNJqlsZiK1W0/r7FBAK2IqSi0cEEmWOuhMqFMY5IfusnxfWq5BQXFWZ0M6Wew6AIA7iBSnngWunErFkj8MOUCsHIqCLdUYOVFyiBUpfeaPvAqNqyBSMxhh5mjtwyaYdQ3JZgzHS1uX3kXtC9bQUIr+q2+Yy6GyyRLnc1B1zlzyZk3DrCWHgXYsne5jc7CKmfO+QQIYGUWXyE5lX5oqRFOp4qyjqVoC/LPSWCtYBPAPiaoazU8at5DZQ3CP6lE3PSgFjrqslhCnIL65JQvG2Krj6qD03fTgbqG9TBuGZ7BJmYcW8fnMNA//Z1bzd1Pj5pa/1aoy8XB+7HyQ/icgbVOUOfU8DfV+j04z9K5iraAEG25tcQ45PpVGXn2hl/bPPz2T/7ekQ+3cxu1FaiT+f5PX/vhRypDW/5wNFNYV5PFf3UuygdtUC0CqNMql0kBQOer7rSsBVmPyRLMCeoEdxZTwaTCR0JQC4uyzCgBA8BeRQyVYIJlUqZdIAhSFQlxFOkgD700AYZ0DtZcxfQFi+bFG/thmQ+a7ZvXmT4EyWU0YN2MADUSzGmWf5OQBQcoxos7HDN9+bXTl6anZwvqLh7dKGziPBh6XzwPMtMkrE4HM3POsxCPmZjQ8qh+lI4lgMtnGapwcUv5kyt9Km8KM1wOEhvFbIenBepwfb1dpieFkqTyjcYPy9A2ed/tUuzui68HawE7IKjjOZiFUcVGdBRP8BRqAH3ky1ea57C1zMfXIm8dA5PqhQwdcUsES72KB6txTNd1M5ZmHHTOeoAWoHiVKADhFRvLSHrk7u2J4v+4+I9feWs7t9vBmhOL0kbn3Pf8mktvuPfffIPbfmu8UOr10/3uxEcW5QqH4EkmVa+bbRs4C9wykbn6ezYIdC1yrVcg13iti4WqFa/pYyGIP8hiDxDmvrksrCMWX1FAqIBBzaIdEeQshwHoMRDf1oPFvnvHJnM0XOxHD0aE8CbbCIA3ncTACQjLaPRW7Ci6cJkXzZx1iwh1gt9sH7dtPzdF3N0l0QsqNi8BSO6RJ+V2SPLNLR2Fn8oUambvvhEUYMmI5Y0dl1jnAubsK2uda6oavoF/M3NA1fwQd6bFTm10pAKSLxFFiheFZbqTEdEFsLQJm33gyGetDb9yLHXemQSPSKzE+C2DDDeKJ73/hYL52Fe/awrdm8yoPwneR1zc7FIaVnLgmCTJ3GnuhjtGybJNLaxXLOBUg+eEoB4vTPx8bXnPBy77s9O/sWz3tAgXbitQ//BV9x1+9RNjn8slh06GVzYRgPudKUedYwEtsCBQp2WuS5sQfiwhjuBOgBbrXaw3TdvROCrB3FZDw5oWgfubiz5rlksRDyYl41Cp0BIKZACoCxnTDULV4UNd5oTD1wPM15j1SUi34nNFAEwiEgSQU9kN16N7k1W6yGoVYMFfpSQnmdcaF7ZpzoyjzWjqTZenLXsDPMdixWwX0IMH+OoBAN32uxIZ3TKg8XOXKcK2oqs9k6uKVjvZ7ROwzumMD4dQGRFEuBI2W7TO66x2ns3DMlZwVzlfelu48aKaXxLx835UWoPqq6jO8XbY9bwTgW2Kz0xJgltZoE7SJMcvK65RHnYfbv2GXzxnvgCSXLl/sxmtxgTUKVhEDJcRKO5e5cqTc9A5lqkFMOi4alToZcHvsUrmif7Ms//817/1u+efttWXX6a7WvBl2wrU3/Od20/8yT7/Z0f93SeIVicX6PbX319wJy7nCRzJRyxr6Quxt5peNbau1nrzgFOmtDCfJYUM+mqQBi1nJxBnL0LZrWSGeyNm54Z+s/uwYXPYGii+4QSMk1O32RSLsPZop6vlLxIn1vUvrnzRB1dlOaar1VPJvA3WVjNgmp4WL0nre15Ab/zemv6lUWuyDZyFrnK2IiSD/+Uh2j4yNmHScLfTU0m2YkA02kEwkt2R9c1b14cw3Gm92xx/xubFESN1xpnC5kPKWtR0d6dMFzZjOompB6BMd634ppkG8kiTgH3lgTrvnWV1Ub8Fmu9QkvvxL8yVP/2VycaHTBbM9zJqqKtnirF3LeDC5lJgnx3hbznn+Kq9trPU0TmkOUaq2T1rc3vPPft1J/zzawcH0+363G21pP3J+de9/gnT9/cj/vBRURSCoHXXqsg0VeyrXTunHe47UIXtIYsTjeJmy5CLF1WzJFMZFrOzvCRFWRZsCnEA6AHglGsMIr/Zn8+aVLBiDh9GrHzDgNm1pd8MoYh5v+iww0LE9EPGM0qekgGP64J0xUFcTwO3xV3oDhVNdhfbt65hehSE0OWOtpoBU4wIFzyfFtRb2fGNaLsDdJ6VbndJRaPlgn/nC2XEzgsC6CWiOcltTFHD1+lmZ19K6VAbS2GZVW6kCOp0uQtJjummuC9uv5mDXkMfpxIR09/XAwudvUgjHoup7Q/xEthCLfKk3tS6+qOvHFDXDA+qDcLSA7eAKLAHPxf94G5z+2MjJh3uNuVon4xYPouAuqjnaWhK9kH0JLX7GGyHhWq6e2TIDpkXRSwmKOY02l8d/cqbjtz+929+6QY6XdryaJvhhEUi8trP/fCv9sZ6/zTjTx4eDISl/jVjIa2qQoIXLUID0/VOR3p55nHr3Si5dnUV8aoFLFQgCNEUL9ONRfc3DnSLVXtD3Fy00+Fmx4JGi17jsDTckB/KameZ/QD0glkH9vMxUHs7Di72w9ZCgARSb1R78xsQsljxXAhzBIOIpEg5ic76oohzOsNOl34JAshvLo6v7uAW66htZsEUfdUK6vV/OzBn0FALn7h5wY9IqSMB5wa/nN8AxQEx87wZJbM9g/Kz8IQo+BN8tO0YQ3dHDa5kar7TvmbMnBstCZ1gPDD9kMIyOXpe8NrX0216kbJGviJd8CE4o+l81qI2MxzLVOBmOiNBxxEbkqmX0HvHmB7BP58ESe5Tl15jHi9ETCHWa3KBBNpZJYzIkFdLXZ/V9UkH1Gfq/KV7n/XsZXOKTaYpTWS68vu++7rj1773PSce+ezSXXVpz9w2y9m3Hq31fO7q6z6Sjq/93YwvsikAd6pUZ6Ma1TRPIeQsLyloirbsgPr8BxjbN4x62FzE+aNtzZQlWuXqPhViEC04vKcBE1ptAALEIYPQ+O6B05Kx8p1bNpsdyC/fBJMc3DfJK/fXkL9MDXbGV8UdS033GPob4KFYJSDu+l9Uo+zjOHvOies0gbquqI1Pts0smEVfTQXq8rXG9oYQqhY34YibLP13JlcCmKdFREbi3LDMhSjXBOh6LneoEA+7GHwGEuLQIRGKuDMYwn5G4ZxELGy6ISrTlYzKBq9GcKPTX8iMrSGZaZ5xmUDdezduLanH+i2ocxubxrOk8ez37Sub879zrdnr6zE5WOp5XxSbIa1O0HC/N/qjA+izGNNL+BESN6U3wM8yhXQpknv2+mMP63vbeb954hNLeNklPXXbLGcXPjqx9oLLb/9UsWfdKblAbC1TETi5NI1qSdtoVZ+8oQA3C2vJ2xLUuibQYpGWmCI9tABbrYoGuxo7YOaTR6AL7sMiHqQUIxnsiJmH4W7vioTNGuh6n3b0NrN5IGXWDoZEFY6Wm5Y75VJJSpa1Z0ikEljnuxaVRIbUsuqFXd/i/hfOtS3+Ye/dSwrTP62ymKbE1z0x9DqZT0Gd6WkE84CIymjsvIAqLFlY50xRo5AMP0NvirjbRexPJ5iQ6hre+/po0Hrq6Cu4ofnREHZvdL1X4H2JReFx6ekCqMO7wnOIix4bPPIceKszza4VAObT3qIF9TyaewzPkwHR89oHnzeXXH+nKSaHTTbYJRXb2H4O1LnJ1Bx9Pj29H531a6YhsFTvcyw7cm+FPJEKSvFkn799WyT4pkve/IpfLNV1l/q8M86ppb6B2Z7/M3fs2/jlW//r3NLA8Ellf6y3Bj8hXXxVu6jP9jydzzW3wGxB3ctEFotFQB3xxBImAkRhwmHm4gZRpAOLOVCBcdUoY1W5DMA8hwIWORODethgLGB2Da8xx+/cZo7cGJWCKiS+8SDYVDCxGGcPif6Adfcyx1n05qwYCc10Zj3wPjAZNTjbCMPUQy8to7vZJnRgvspAvcWVLfngQj5Tn4X6Uhqv6UxJwDwDVzvDI0wTZeof+6KEODnd8w7Q+Sqg7pFdFlqkBWopyMKUNWjv+/H9EGIwawYHIcEJhXx2JTdhiJmHRYymUY3hgHNyBYH6VGEoepGQHGBGYI2n0Rhfu+VB84O7HzaB/sPMBERnCjbjgqAuISThl+i4bpBLO6vScrSA07+gLgaiJtholk2yOnpvjz9/1tVntm+1trYB9Q/f+NjW7/zk0X8rDaz9DROKJ8h8po+wSqugbZ5iOYbuga/ZqtVeF42xX/OmbQlYulQo6rOTtY4qaKUyrDsW0GZKGutb8z24YkNYwH3pUbM2ETKHDXSbIzYOmt1bh83mXo2V0wqMI1E0AIDmBi0kDHXunrH84XQsderc5FI5jZdnzVNQj0DlUlCXLHV8TqusNA5JiicANacMtRqaai+u3GNKIJnqdlss9MZHmLJTFeZ6AP3jAH0C5iXBfBzudqf+JkxsaWTmqCvstoav2KTsd9fY3GzJxoEWKMcGLHS+JmIR1EKPghiXUH4F+8/elOzBcA5+j/nqerRPPzQ3fxWMDx9A3W8oGP6FK+4wdz6y1wR6t5pMDaEpcH80Q0dFZ+jTkI2RlY1t9S6t3JG4+u7MgTo3WNyYBZFtkwhM/KIvv/dD33vzb30N690UfqmV3w5tA4d/e/2ju667/9lzit39v1ELodoyVinu+itk2rbNU6y8ATEXUJe797h26UascHOFBT2IzRUMcyxWcJuDwR6EBR8F4/kkFFQ5CmpvR23qMgPwzIfwHQrARpi3zDij0IxYq5wuWcZiqSzHmDyBmu7aBq9N3bXqlhdgF48B3fEE/9ZBoN9vVH3jzWsVLa+TnhuIlTx8JoHqlLnb+mxTHZRppfvXPTdUXUGAK6CaWkZKoZbgemedc2GsoyEqUonOut/hVlfA1kOtTPe7e2WlNmwcQFotQR0wgHBYb7cWZYlDt1+dzFqStt7O3qVS/shrrFxQd30wmZ+jIcAcxipFZx5KV80FV95ofrkPjdy10eRqMQjSWBoguCE+Fq9xjWlBXf85x9DXlD3d+eNcW4CQzZi6PwjSNYm3sNfDZvyRrvyez3/sz07/9Mk+X26u51wJn1/J61lT+7zt0nuOuy9d/FQ+3HNKhfKwYhzA1cfc5gbraSW06UG9h4UQbbza7ZNvWheaOtlwKj0AuNsj4SSscny2MCYs9khxzGxEbvmJOzcit3y92ToUNXGMMtrTPhRmoa0YBlteoZSLnDKn6/pvddlMtbQ1XU74qU23OAWEW+DxfGwSeDTczu5Ts4rrHtQebb7YTKBOd7f0U/1rDiBsDJ3ck5CmomVyZbMfKWoUkSEBjmBOHXa+J9exuu0S5KAlbU9KV7pew1bZ40as3ra21jyJkthoxUGKI8M9idQ17vE4OxtAhi9RT15OZjdd9hrTmUTTLlDuCwdpBZsK2GnIcWQS1MfwlLc9sd/857U/NnvKcVMKrzHlUApVBtFqTPUk4RM/TkaXlnpjRHdAfTmmmAN1zgOwftA/BeMr7n+ye2LPFz92xkn/fEqb5qofpCmx8C573cU/fPlzlZ5z8qHEiQUW/eA8oQViY+ozsdwXfgcr+QzO0pnO4qlna9ctbQK6liz0MJnrK6uSeapYjJyQiM9ZbHUZUbirGOtGPnMFdcu78Nntw33mhG3rzRGbUmZjD6qjCRAg/xOLPaOoKipCly5BRIceU52C4iJ3CC4OXjW+YfVz7W/EgZlDrffb6rS135L3xIC3HuL6APeAR7Ol3uy1X2m9fGBQV7IivSf1wjr1BxBHr2yKoLRrRicyogaXBRdFUtngiiegq8iLagiIz4SiPfymnVs8nWz+rOPe/e5APYQNGsMv9KJ396RQOjUGjoV10WPTzYwHstzrHSOlZ7UzqozhWwXBlQ7qOq5a75ItVTFZhI1Q8Nf84IHnzDdu+onJhPpQbhWjP5IyeXoUpR4C3e/QYbB9UrWWurZMB9SXa94RR7gd5dgPgfhRLo48G83sufStLz/5H965u4dZim13tA2o/8F/3vCbj6f9/1pL9h1TCUSQKoOlqC4iMv9JsRBLd7l7mwssLTWGQYV8I/E67VKR7ZTftBaR82YoG9xWJ4L4OklRku8PsCY5TcRWRWqVBCtWMNK8c3pFuDiTrFaB25ZExS4sUr2lfeborUPmuCN2ma3ru00/THJXGS1IVzvj63I9vBI47P05JblgU0UVy652Lua6a9aF1g/sop3tYJ7CgF+2rpwOzFrxg1ayArC6fBUYbYScVjX7nLkD6HeNcOvPBByIo+MZxM+zdTCX0jhW5S9o0Vk2WwI4tiiLLZQkJW9lj6VjgfF07Afk3+xXpq2F4S1LQsO9CzoDibC6+sU41SEpfT9ZGc42+Ww77WD3UN0ToGtL3VLn3tNmFLAvqIAIQ8M8gc3KZT9+ylx++wPG178WbveYofFB0R6ld9ArxdRM9T5VEGqqr1odVcx59+5Cy9YyvBRmlgfIndxfYry/EM7uu/yPdhz71//rtC4KBLbdsVKn1KSGfO0XbviDJyqB/1uLpY4sB2JwH6rClQ9x9YXsdNsd1AXACZou1mlfnVoVlpEm1zVFP8SdSl12vJMHsSkI0yoMQo9YYbAsONAF/Blfhcs8TBIbFdqQolTLIV6OCbCuv98csb7P/NoxG0CEC5guMJwZ3abNzbg5yVEhXob3Z7W/XadyV+wWSq+4mzzLtDHjtptbs7rh2YC6d9/DTZyCO8GBAM82llbG5owISpc6oiFo+/E0886zsM4R70a6Ga1ixg+Fhc6NILUESFKUm6AFrcIyslWw1jVj7VJfgZs+mOOiC4Axw3r3JC3GUD2HhLjuVJeJhdStwtNxQ6eftXjeutLUgWyFxtJnAHW60dlSPtTingjEzS9LAXPx9Q+bmx96xgT61kHv3S8yu1UpMKBzQDa3bHv8u4x+6oD6rKbIAT+0YFBn4I8plki3pZGIJW/Mlx257jVHD/z3D718GwUC2+5oC1C/vlYLfvjzy2QCXgAAIABJREFUV5+ZTQz+Hag42yrBOCYGIATWBBWBFgLqbddjTTfMRVQXRZePLRFoKajC1dVJs2qMlNZV2AICLW9+JhBFPAm/FwtQPwYoBCEmE4lExCqrFLKmKwEQyKdNceQZxMsnzK71A+YlR+wwR24aNkMpv+mFq5VMdmuUiYVGQIfBpmVPXbUOz327mK0Aiyca3AH1RihALXVliKuYT2OqintcLD6mAFIqWbXtxQK3inATmSKqqhVFwlSqp9GOR7oawUg2bewf4jg1Bth/sjtQWhvr17vKa3Srl0osXQtQh+YANwJMWeN4iuDNniQs9FQcJVQ1c8FFaaQenli1Cur1u2+LFUeaXg9Ptof0iLXUHaiTGDoGxsjP0j5z3pV3mJ+PIBTRA0sdbVnEXKhajweFZ2QTYDdUJVjqYsGLJ2P+nsb2Xr+W/+5ZUKdGbxO9UGJh+HO+9L5bTjmy683nnNqeqnJtMcUurdVin/zUVW+rDaz/y0w1sJnud8akuIDYsi7LPzqW5Q64ADtLhwuxdRWKFW6VkphixqEqoVetjsaSpwRbLiZFDGha6iEs+HS3s4ykiMlACcyAwe7PT8ASD6JmeZ85ccdGgDlY7DhlBKseKp1rqpRAgS6E/J1uLFZiY1lcipy4QyxECyDOEvQmjRxqVrptsnr7eGHbsdTqKYXWXBcfisi76te4fatQd51gjL5j3HxsjMx28BEQWvGhX6nr7tpb3PI2tEJQF8ac7RNvcREFdXUXC0NYNg6qEkdPTywWg8s9anoB6pApsBa6hn+4qZNNnsfrvhpBXfuvCuZ7yPz42bL5/HdvNPt8SYMQoSmhg0qinaBZBZxz4oK3BMSyZHp0QH1Zlk3PRaV/SkV4Iu1Y9/vLgcz4Hcf3+P74vDPaU1WuPUB9Ty35rxdd9a7w+i1/Pl6ubKgGIb0IUOdi1gF1db3W6ErFj7DF62U1dQEnsIqbikDOeAPBHd8JMkYu8q609rhAlaDpgiAsflLwnw7AtXr8lg3meFRI2zEcNqh2KvKtsYCy1vm9EGRbiQ1cwFniVEtmavyckFMv4lI3feyMsvnjUmDlEHO5exeyukHYZK3RxLNTs27mKi+CgG65ivoR/FAiIJPJA8xV4jWAut4MTbn65lqsxRZh8aYkUgmuKf5kvT5iQSrYe13uTlQmHosift6FHPSgiYrlqhsL5pxzTAlY2YecJK3q/u6GwXKv6tNdfxaWurjR8aQjmAFX/3y/ufjaO00uMWSK4TjKsNJKV7mkBnir+IzE1JnYSU8VqSsdS30ZRwH6h4RO1riHVwvayCZWy969pbv6R5f8wYm/WsYbm/el2wLUr9pX6/rQxVe/J9i/6R3j5fI6EwK01CjqoFbEoet+136XdVkKbSi5rQk0LKnHVc2mte6Y0iSxhehaRTwJdgWAHqVMkau5tjtujt2+2ezeMmQOA4mXQE7yG19JwyqXAfyYCJEw8nCxeqEul7KlsVS5DQUNdE2Hc96DRp1tuT/rYSCh71A+JoG6bS8V1iE6qqiOZAugPd1oZ6vy94msVlPLoDQq3eQ1uHtZ7EigAqcQ97wMCd08uaqGTvzFL3n+jUOZ7+reF3cxrw2PC39ooSfiMaSspQDoyG3n7clmDh4Z6g44ch3Ghgh72GptrZs2ZezrOF2xC9AsQJ2ZGHk8wX48x1duethce9/jppAaRHGXGKp+oSWRequgTgIo/SBTgLolLB7Kc2A5n53ziiEmptvKsoRRnagV790YG/3jr59x6gPLeW/zvfaKnVPeBzr/1rG+L955+/sKAxvOzFWqwwgEA1NAcGCOurCz5x+Tak/NINs6daUqPL+tnqUWmQJlc7qaWs2NWtdYeIHIMbjYfdkx0wW//JEb1poX79xsdq7vMoMJqr0BFPI5k4RGu7CfARBRhD5o5atSK1TjZCHnCs7Fy7KxSaRyI4ulVesLOP9orcE6S78thuB859eM35se1JXP7uRvCdaMixPI+ZMrQK8dBLix9ITJQLedljJd4kEKaaBfWDCHOvyaqmZj5tJTGpapsmyxxEJY9Y4bB+tVEY6K2yxr+VR6X8LoNqmDjsIscfAsbHV6EYDiJoCZEU7TwAnWuEp+uuFrHN7a7Su292cB6ixLM47PsUbnOV+/zfx8f8GUkgMo4oIKbdzYUAOA3H+2jYupK9sF7HcFe2/VthkHS+cDk1rALiPzbhmCOjNwagg3hlE+twReUag0ce+WeOat3/zjU+6a94mX8Ysrdk552+Tj1z+69tsPPf6JSu+602CYrOVuCllYWuqxbrvMrxXbG9SRZubnDpNub9rQFBJxloG63BkHlYUXgByAS53uVC66Bah/VXMTZttg0hy5fsicAMt81xpjhjAiSHwjc50uKebX0nlL7TfyfZnUJoqX+LHEXvW902Ni3cEawCfYk0mvgNJsrSlLWr7X4lmYXy+277cmu9+5QbNtI+jKjasFAbQvyVfZPERkIO86jtzzKtyFjJ3T7V0mGZKWs7PKrbXv2r+e1UA4sTKwVO9jXJFhLOkjsbIJ+LwPji96YmomFY/AQgfDPWI5EuRS4FfClm7mGNNn7L0RTnH11VcrqNO3RUB/HtPkIxdeY/bW4qac6DVFeD9K4iFB5oAFbyXJKVmOG17+nVZ8B9QXNncXCuqyseKwR2piApLG5KL4i+mfbovl/uLrf3LyjQu7u+X5dluA+seu+umGbz+ePq/cs+ZF2XJ5jR/uRYnhcUkhuhyilrpIsQDUqyxjGoHLr4yFHc0h6mx47U4mTCkzhlKYEFaAi70C9nqlkAFr2W/WrVtjtq8fNC/ePmSGYZX3g7eTQkviVzBBFVQYY+ceQa1Dgjod7UqGEyeBruXNPlQal/U33Ac8H3EoJlZiy3eXZw4s61VVlx28B6bVWPc1b4heESHJkegIAICaK6zzihlH7DwNRbgcrHTq7ftRSIdNSQ6Dq6LmrXdel692gXgbUxfnCTcCACSmuRHIy/DcEKgjLLiCdLUSvDQs0tKD/HNa6CzQwu+xOEvdEUMOBft7Ei/CZWW45p06dW3FLkAtlrr0ic0acN4PZOKYCfz9jqeL5vwrbjT5xBozjlTbdIlEwqgAexWpazKJRCAI/Uy3vAV1QryC/bIOwUP74pxz1ODgBhZWCvbLkLfO/3RNbd/ffu+tr/peOzbOip1T3sb80Pfu2XLVIxPnl7uGjsvVqv2sJMVVTiyABQo3tPOEIqiHAkhHo/4688yDzAoA+FI7HdZ5DfXKk3jfX5gwteyI6YGVtWPTerNr+xazabgbKWmq+taNUSCMeLhtGTcP0WUOk4/lN11OszKjNSNafnMRDzeC7Ktbn9zbbimvD7RWUGdHt8UoXPzp7W0rJaJrLNpZuyLQg8aBzg+s8qwZzyLnHJaElkYF8OKnJJoCXrJhK3hadvskkNJdVQCkU4nFYwMRBlqTnV3CuGGqqAP0BAAqHqM3QJ0IjgXBYICI4cipWjtxdYG6zAObjuZAPYuWYDz9mvv3mYu//2NT7V5rciFIxKI/mP5XxI6pxtQ1DV4JJ0GDIcxTV4+akEk7oL74k2uWZ3ShEYI6510Bsr7Rcv7eoer+v/3eWadejb6ef2x3lvew2B9ri+X0Pd+5e9vNT+UuLPWsOapUrfRiJRKRFAX1xW6S9jkfF4gA05XocqVFQHcfrAPWs46AVlsaf8GE8mNmKOYzO9f2mBN2bEFK2oDpAXJTi53ktwiGLIVluAAxXz0QJgFKouaCtUH6Cp1V7ZrGes8bdnijzVpnQB3UWxcu7zkP0T5s3QBRIIZjOghzme8VYfHliyjtiXxzxs0zhYLAKPuZMq/i3hULfPoMAsc+F6EZIS7qVZXASHIbFAWxKeQmLorUxpoUZsmYBLQKeqDhnkrGYbljRNiO5Pccw52hr8mg3grmOjZWejW8SbO+ZRPkBXW/FeiZQLtTneSrNz1irr4b5bcB6kUKY7GxmBFAUioyEVyqoFjlUpDIut/FNd92mLGiFsiFb4gwd7iZZi8R1FF7Apb6AwOFve9/29mv/O4ZPnEFt9XRFsvpu75x1667Xih9Kd81sKtQq3aRCEZQJ/QI5rTFUyz+uJAcYhbIYMwacdUC8i05OCMwuwOltImUJ8wGqL2ddtxO85Idg2YInly616V+OdaSEiy/KMwvpiKVKSqCRYaysQQJLjdc/6kO18RysqY6/zzTcuS1GaedfIdo3wmw4odyrQqyViAGjca/ZCEJR2lXlkctUzvAuTNs3jP1ASRmLS772YF68whU1GIaoiM7VqCORg9PNBI0/Yifd3c1yqbys06qlqDGu6QfwRV7aVjqqxfUXX6/F9QfwZJ//uX3mP96Jm18XWtMhtW+0D5U4RMxE5GDtTMBRl/Ayi5LTL0D6gteFBcD1GUMO0sdoB6vFh7qLz///rPOehVBndmJbXW0xZJ69hU/Pfru5woXFWM9O6BlRVxSCVKm+IjAQ1u1+SLeLKLnsLQKsOSCVHzBwIwC0Ku5EeOb2CMyrr9z0rHm2A1xM4SrMnnJB5nXZAQxVLJy6aKXGuiMxYOxDpBgXJd57Sp6orXR5ZB8aQ5+jQ+6QyVsHKe9+dEO2W6ZoYe9OuJ1h6z1XNAsyOQqYLVnTDaXhziQutedi11cv+wK6+4WbQDpnulb2yv64z4rG0EBZSW8ifQrNoUxWOu00KkSR8Y7tx4KSY0+d0VUFdTtw9avPx2o28+1emxW6iCZhaWeRsvcPWrMZ791o3k6HzSVZD9S2UArZIPC40FZ3gr/bVtQPGsA9daY+iIuCIfcqRYD1KVKhq12WIJ+QKxW+lV/8Zm/+ehZr7rqRJ8v226NulKnVFM7vv1rd73o7nTlwmKibzvc7zEuSB1QV5YzpT9zIE7FEMOL0BIgGW7sWXMYyp++5tQTzUmbUyIakwDxKekIToidEwz8kSgrmRMSBDYoviCuVfkTXgnu/IdNi9Ir2hC4BSFd+3QhbxpM3sW7ZZQd4K12mz9zvl9vpS+RHLVRVqkQD+Iba52zoloOsXMH5jWrytf4Lt6xLHOqyPFwXqvpbkgcLlazwLHhpRAQXI9lpPPQBZlMxE0frPN4LKIqcYyr2+wE14XevpOIP4eH7hTspecI6pMGzpybdGm+0ALqvIiz1LmpYU7IOFr9luerAPXrzAumyxSjKVMD6VAqzzE9h9+REkjNlrpGtLTMETfIC9UvX5oGaI+zLi6og5CK/or5i493jz/7V3/6ulde9aa1vkx7tETjLtsC1P/0az968f3p0IXZRO+2aq3KjCuAOi1JyqQuzFJv54IuXHfoxpPyllhE4qzXPLbP9Pmz5vdedpz57d3rxN3eg+UjDJmMCtI2Av4IRJMi4BkGJYbuR8iIdTiI3fWa5oR4ekK4Ntmx0iC6M+xBi11QAl+aRjxGFkWPA15Gmlqdrj669eQfUjy5VlAnkBOXc4hrp7M5iMkUQdYhXAIMRIdBwyuuIqEr6CIdxBa24KPs98lH6/hWpoQegtcom0pgj0Ujpq+nS7T+hRBnZYQDJE16rPSG3S5FRK2MrDtZc6TGezf1q051kytxFZoC1OtEOYmMV6EkFzRXPjRivnjNHVCSo+gMalKEIKDM/sImWjYBdfc7HxJhMbHUmdZmvS8zBrHaDVIO3v1K5uxU42kOtyB56tI1zDZhGBKWur/yeGL/sx981xtOueyMIR8THNrqWInTaVIDvuWi2156fz5wQT7Rs70MI52TK4iVkKCu4g7zb/N2B/VCtYj8yrgpjI3BEofKG1juu9ekzJtf/RKzBcHzbqi/JSj47pZ85NCW0WBQO5bNAMq5yOJcIUkLjeFHOhPBWKw6uBFpQXrnjVY+94L6FI3fNNEaVgp7iW/p3Wgpl7rlP/8uXGHfnI5poOQ3ITXaJuO/M/mSKaDt03C300Iv480w0hPJbXDM9kbde57bstkJqLSOOQ/YJx5QrwqoNK4j/gBrSTvCl4A6LXH0fwplU3u6UiaBSntioFtAF2+AregnAjW2/1Q8xmoUcpzIP/WhpltjpwX1Bczdpeh4dUDZMBMvIFa1KC7I/3X/S113iM5g13v+LY+Yb935oIn0bzQ5P0SxEA4jWVUETYQtby1yuVnNU+cBkrVtw5mYKUvxlKvjnK2VKefzVARycYQxzIX+YkncpKk8mcg884H3vP7Iy147OJiez3mX8zsrbEpN3RRvvviHL/9ZNnZ+OdW/LVcqo/4IGNpctOBG1nrFXkrWcjbn3K7tprN3U9K68zzQk1UhDlOoZE0CRTVKiMNGkIseGtlrXv/yY83rThiiSo9JlsZpdmFxAliTBAdFOAVqFRmhVlwT0shawy0wffXu6p67cKu2e5W3vAuTdd97m6IN3e8zGQBeVbS6G1o6z2545LXhyXDuVqeqAFI7iI1V89wLo2C5a056ACEUchYICvxc3TontrRwGVzzMgVND42182jkq1uXu9tG8XbIgidEkWQHMld/F2RfUykTh7gMqRK8doDkyaY5NR1rYm7jvenTip7Lf3juw4G35o5zHNM9jiwEAXbCOmWUVQ8gj+3QU/Cw/9Pl/2XufGbMJHqgJAeSldB3qbuPvEPJUKhzUhobMpkx7tlxjfZcvbTrFrolWe5n1xoHlFTWTZhkDpUKz/TkRv7uzcefdNmZJ/mwgLbXsRKm1YwtdsYXf/jyR4vx80tdA9uzxWKASnJIahPfsLix2uIppn5MsVo99z8XUJccV786yEsAhjjITgO1vHn9KbvNq7bGzFrouKdq1GnHVSCtW0N6TUXc5YzjKVPeR+1vuQnnx6VkqFpierRMu1a0k3tvAfUZe3Tlf2C2oM6CKEJydkscCTdcKFwcnCmHaENRFmO4CJ/LYsEfQ51zSrwaWHdFW/60ESf3lEOdoakcqNM651GP30q/IaKLucKYOT/HBYux3hLCMCRWdgHI+7tYNpVV+rRqmKrAtSoArvz+mvcdekBdW53Fihjq5v+1Y6HIi7nDDASCOovqQB8AFt3PYcP94+V3mV+Ml004nhArvYr3qPlOYSB6EsXOF+EZnSfeud7wwMz77pf9i+0O6uSNSAiRhEYqMsJQipSzT/fms//w+hfvvPQdJ/aNLXsjz/EG2gIOX3/uNac85kv9R6lLLXUufkF0Ag3KeqrPHB/cfXy5NwStk2IuO1cuPCEGvgHo9H76kJO+LlIwZ8L1/pJhSL5yEQKoSzsBPGiXS11t/BasgdQpddeZR6u1uLmC8V3navU2aeO+1OJoRHDrhVfn2QPt9jXtsUb1MV0M9N8OEIkCGisXcQvRbTdQqwIRDoz2Ceac4zUHcz0aS6mbnQtKnfw2F1DX9nNpU63j2RVmYe47rZIyhGVqWMj6e3rNmoGUidY3JO3WD4t1vw0vhFXFFxe5F9SZ01QCX0V47GxD1J0gIe7Wp4rmn6/6kXkh2AVgAEGOBY6A1DQ02Pf1jAQPqMvYaVp15zLjF+uZO+epr/+U0KbuCdVJuaEFVS5cyD7dU0r/nze85KhLOqC+RGPlzAuuO/kX1a5zC7HunflqJcTFz4+glOpdL+yiyw3quiBPnRI205MFKkg/K8PKIlkOynGl9B4zGJow/+30l5lXbgxBWCZrumHJM/oJO15cg7QbAxi4IaOkTv6GsiwC50qVI6g3lOOa78FWmRJQd9sR8hYPpYVpMqg7kHdALxncAGnJTgCYMv5ayEPiFboAVIYrwlom2AcADCTEUbPdgbqMB3pWcBwoTW3S2LBV75q8PgJO6G/u+GiRwJNDqdfuVAI67kmkP1p1uJbrNzYsbbHnn2mazPC+zj4bOLHbo2ZQZ/w7VyvIPGM7FgDqVWSdfPe/njWfveEeU+vfIBu2cDTJ/bVK8liCo7SllYj13kijnw6lubPArlqCr4v73VrqnHe01KPF7LPJzPg//v6px3z5Pcf3ImmxvY62mLVClCsGz89FUjvhNA5Ro5cr5UxpPO3SFZzg07E4D7TpoDURKIPcJHFSWBIlkOXK+8xrX3aEec3xG0wc6W39iNMGhUwI17vdQNDKDpqcxAmRmQxQV013Dgba7BLa4CpnXYaKMDQ9Gjsop++uVv1qXpimdjDWARyLOeJB9fgwLTTZaOoeyeTzEJFByuFEOisMd1ns4foWwKaQDF3zdqA6xbc5gapU52uM9HoX2VSpCFzrpUIe/JOcKMYN9Pea3q6I9FgJMf0oUh9qdhPhYviHlgt+GlD3xNQJ6tlqHnn7mB0shgR99wxCGRf/8AFz6T2PmuC6w6D2VwTBMSEFd1jfnvNCKiKyyh2Hgs1WqPMeLGdhoezt5V7jFmoULffzszaC+B1Z2EhCVDUTL+WeT+bGP/6Hxxx14Ttf0TOy3G081+u3B6h/+bYXPVgIXzgeTu6o+n1RmSyYPbTU25m9PpvOOiCoY/EQOKYACXeYPhR3GX3SHDOcMm/6tRebY5GrHgUZKsrtj+UecIGSiDli6ky9oaXuMIjkQynWIYBuiT0Ox9U7XyfPNf68mgGdPXRgUOfijTRLzRagm922Lwxzg3XevDAyIkS4opU1lrHLz+B/VVrINvbuHQsun3xW46NlQ+Xc7bIPky0Dq/QVRFSmlylrSeSg0+DkHo1iQyxRxc96xGvmtKmYzU2u6M80QF17WxnqjijHqYVIn4B6iFLMaNU8AP859O25V9xubn5qzPgH1VJnxgK9YSXs7Pwgph4I1MU7cIDN/IpuMs/NrRZQr2o6gomEfSZWzD4PS/1f3nD8URecdXI35f3b6mgLUH/rRdcf/UAh9aWxcPeRBHWxaMB8D5OQYnfAbdXqnpudTnjCbVbqqUhT9hSDtixEAPc63LwB5MZWMntNNxjvrz5yi/mDk44xG2FEpgjWusqrm1FAhYBiI+NiWWCDgP9pZhLPK+w5e6fW7PQAiJvMWsxjLq2/EBbBXK4zu896n7D5G9NRgHQT4wU+WrYEbtYkYCPy19GJAoRkcoidozQuwN6P9+hhkrQZKvnhwlz0OX4dMc2bbjZb17sS42zqmfym/SYkSP7gWoloFCpxKei4I42RvUsOBnkpFtBn11Kr9VON4JdzwTcqp+E3TgWAekE2wWzfsKHEGNLTzWe+dY35ZTFiislezAGS5NAXsOaLSFEkqOtAUT9MXU7Xzr/V7d1qn7FCS52hMFrqPGipR0vZ5xITY59444uO+UIH1JeoL//4wut3PV7ruSgdTB1V8ql0OUE9irgWFOaW6KoH57QLAXXGg2pIY6M7twDAKFehGhdBDvrep81QJW1+5/gjzB+evMv0YbVKYEGSkqpcpGTZV0uci4+E/UiYouXgQF0e38aPLXDUW8TDY5CPH2KgLo/PTRFhkzFr1qjHnyDXbtIA81HEzSdyKI2K92JgRedRZs3VGiewi/yOdXk7ydd5ud6lH3UxaljoDUAnkKRiMSnKkohrlTW/vV92mXOze0d6q8U+283FwZktS3GVyaDOcS9Z+QxtoLO53qMHEfHjfAlJudWfPFc1//6NK81IbACu+IQJheOSxRAMxSDbjGwDmVdOL7AZ1GVmtWka7lL0wPKesxFT52wKIMsBNTOe7c2Mn/NHxx97fgfUl6h3/vQr92x/YKL8pUy865hyzZ9k+k0R6lsEdco1tvMxE6i7Z5vKzUVNmRDeYLpUFiZ2ESs7y2+Ha6iZntlnQpCL/b0TjzGnv/RIsxF8tgDCe6jvAk89yHNC/LGKYHTDi08eqxdybNVpq/52ryFet9e5CeAGoJ0b3t77ZEt9Ond7fccjAE4QFUAWYKUiHMujQkBmbMJkUeu8hlK4wRAyDqwASRNwer1LM1R2bI1veyutyTkFeFiLnd2H/iIJDyEXEuJikZBZ099vwnQgcNMmN87a7d67We3hkwMPUo2oNtrAMeAdqEtkC29DH07mBZnwZE794MF95qJrbjP57jVQkosJE4VphfKKz9WFUezG2GupO1BfDe73dl8CuOQVYCCGUIJYZjK8nZHSxDNdhfQnzzzu1P8462Rfx/2+FJ389m/ddfhPX/BdmIl1HQs1tC7Jvc0XUBISzO1V7n6fCdQDiAXRfVSAe7fEdEsu4ARsuOAjhXFT2/esOQn101+5e6c5Zkuv6cNn/HC/RpGiwy1RAO3HBV8kxMVNrKUiG/nOegcO0B3Ui/uZymMtMeF2s+xmAnWNb2tKmvg2OO/ZVBYYSYobS+fM6HjaZPNY8mGhsWJeDbsrVlKrCyNZdrorhqOiFwqy8zmc+5+WfwWbCG6ywhBsp7u9ClBPJaKmv7cHVfjoZleWO30LLOLjUuf0uh1QF1C3u9dpQR0ewSrmB4IpZi8+9LXbHzOX3/kzU+tZb/IQdKKPXrQIxA9zYFDXypIND8t8+r/zncVpAS+os6wwi7LFChNP9eTS//66Vx7/hXfu7hDlFqelW87yP796z5bb0pULcsnuF8Gi7JaFLI/dFSYZLfWFkDWWm305U4PNSJSTWBDcv0CZKkuoivgJc2qx46SQRgGsa7jj10Jo5ORjdpiTj91hDu+DFYdvQaUaJLqKZKqLRQlkj2BzILnvBG0hf9lFv66MpWg2XSyaBDDvsdJBfiZQd6BHMHc8B8IwcBRFV0pmHPKueVQ3K+APBHgfwJyEKRLgyHRvBc3GeFsYqLs2pqgMVeK423AWOlPWepJJWOpKohBta+k0jg194kYO9TTa/TMNzFXyft1StwPB8qVsfYNGEn8FC36Rljra8kns3T551d3m7qcRWE8NmBJy1GcL6k3sd2z0vLr67dikC1l7ZRwus6OVyxs5EAH2If2TAPVIMft4b2H8k2e8ZPcXOnnqSzQq//L7d2y8+XHfBdlE6kUQd+gTwhHY73UZzQX4gZd7UMlaSzfuNIN7pkkjZTXsQs0BSvnXMtzrXLTDYsUVTD/KaJYmRswLj//CrE2FzUuO2mZ2bR4yR20ZNj0wMlK4Pol0XN4J9hzeQvMRs5QGlIwZAAAgAElEQVRIRZOTr7aDhWDHVCyb/tbU77Oz/Fr2CEs0cmY+7UygLixxAjSbAz9MV0KIHFrtOTOSHgcZLmuCqHYXRCEPtnkJ5jnzzqUIC8HdPahYxJZV7WXUz2CpT8VEd4BMQGfKFAlvzEcnQHRBMri/t0ty0EVIkNsKhllICJIYrz1aqqrN3FKr8xMHBHV55AYxEtXmBdQfhJLc/730GvNcNWaqkS4UAZGixtbDRTc8Y+jaXg60vSltnNMUfNKzO7W59mzfmdanmZ5quddfrpmarcC5Cq8lYpThYuaxrkz6nPe84cgLOtrvM/XgPN9/z6UPrb/phdFzc109L8WOeUAWTGypdXFrb5lYwc760jG3BqoSELB6kE2NKjdiZTPOLoxdUTILi9AJ47IhfC6A1KYI3O6l9H5TzoyYzUO95sjN683OjcPm8E09Zg0QPYVb4BIVxaIU42ZDhOIppehAXa2XBqg7x7S7dwfqk1ni8gm7T7C/OjVVD/h5rMi5Nce8Pt0AdZuW1gJ2BGk/XNj8HKqhIm5eMBmIyORLaEe8V2EltSYXdkNitSn+7bTbp9Fwn+7mXXpbq8dD/s6UNBB7avAUMAe9r7dbUtbUd4OcW26+RFDDIYydL3bTMa8GW2VfqusttFjqArYySOlx4Z4WojPwYOXRuLfBVP/oZVebQs8wAB1FXITp3gB1bxMpqDfKq6rrvRnUV1mTttXjcGarrgCJjZRVRg2N3PijyVLmY3929qkXv8nXKb26JB169vd/OXTno89/Ih/v++2K39fHi1AmVlKA2pxF2hpRnZ2dq81MUK8Bxau01nAiCFVKu3AdoaAMGbY+LPZ0D0ciYXgDAPAgGIb5kTykSlH8JVKFPnzYbwZhzW/fsMYct32r2TEcN4PIMejCzZA+wvx1YjqZ9twgNPKoITIrhbf1EOCxsWPGoWVNrAOItRG9oC7uanmS5nO4cy3JaGo+KelPPBS29X71VUv6+nGDJBFmkXiehlU+kcmDWAMfBR8Vm6gqY+fWW0JrzKWnCYGubqXP/0GmCl+41DcBdZTyjIMJx5Q1l4OugwMuRW7KpE8mg7p4h+S/Q/fQVtEttdv3qPtdt2kO1Dk0KgD1EsJ9FAK/8qdQkrvxLlMd2IRm5jxjIR6+cs9qU9l4Go88rKuap4BOQ8TF1Ju3hIdubyzPk0sGEftC8ATrGVKEApnxX3YX0h9+0+mnXvqWrb788tzZ/K/aFnP6zy97qv/W5x77WLm7/3Wlmq+Xi1oYE4zZbFracP7HXEB0/leZ/pu89ykVwexXDnR/zlLnRwMsIMEVSXx/SG/DwsEUHB8Au0RLDq/RcMTkJ3Kw5v0mFe/GSlVEFsEY/l1ElbcJ8BQmUEu4bNZ2x+GeX2uO2LTWHHVYn+kCPvdgrWIuIa14UZDHd5jL7gVtB0ACbFZpTtnbjNErY97hiw3ZA9Qbln7T9z1iKEvR7u6cU4G6giZtLO5A/HCzT4AIl5HYG0FcvBQEfbRzjmRBuNklVY3IQKKaaEgrZFD1cOpD/z6TeNIktrs9Gf8eoHfGXzFDfT0gxvG+1LPCTRvPXikXVe1OcqXpYWlY6nTEr5YMhvmOj1mDOvsJHy6jCfeCS/HlG39mvvHQU6batx5trKqAM4G6u0e3Xq0WUF/I2ss2We71V4W7VJyrCkCJIBwZzIw8lMpm/s8H33Xqpaf5oOrVZkdbgPrfXHFv73VPjX+4GB88A7bioKbwaN1iivEvZGAt96Ca7t5ne18s0kluAYGaeqMiZQxpWDJ1y/wPC3oEqU357IQJoa3CQZRpBcnQB6lLaoHHUUPbDyRgGVbkQyGrIGOycM/7ylmTQqB9fU/SbB3sNcdsXW92bRg0G+CfJ7gDSyR9KkqFVJGpVatQAF9AXQGkIjoCjPw34E2Z86qoRlCvWYtGrVz7fUkP8h5af12OpjcY9NblwftntbIcAmorC+jJb5btjN8A0577lSaU3HOGMDjfR8bSYqHnyGwncAPABdC5uwdg0oqXso3sB3lKW7u8acOjng4Xa51c7/zAq4ZztfNTGqvHpZmpgLZaAw33eAw6/xbIORk0hk7XO/pZiBY2ni6kRxsWcU3TZgvWYt+uut/JabHtIpa0jXXLoNFwUwmbtTLmz5Moenju1beb659Jm1LXGrylKnNqb9tQoCfTQT0AdvzZcaob+dVhqS9k7bUzcbG7dE7nIzlYSuQC2OnxjGMi+TIjD/QU0u+/7uxXfhvzqHkZmtPZl+fDbQHq/3b9oz2XPPDY+0tdQ3+SL5l13FmhVqQQwlpTqpanGRf/qrMdSk3Kbm4RkkVD76lmGTveTYJWoGIiD1xNcL8TwSgZW2MlL/xUcfEKAJ7pUcU0snJhwacAUhsB8Nv7B8zO9bDgNw+Yw9eQQa+kOo58Uuc0w10T4lis0hH5uBOmCj1jvFXWmgbCUTSHZDuCnejXM8/ebhCc/e6oXbzbhku0vk7qL/IG1NksYPHRNc/YLqgMU9iv8N64gLtNByVeq5RuxftOxogs9vGJEsqjppF/jrxvnl7CCfo551HgfXtZ8dLUruNaswDs7Yhb3rl7hSTHyl8K+CJIg+dwKWfybwqe4H2mHfKnhDKqdBl2JVNmEDF04Hnd4XuoW97zm4WOAsnNjwJ4Y/PH7oFpjr9BgBk11CPmvv1l87krbjL351GMp2sdqt65UTP1Nnw6IpkDw9lu3uf3bKv/W7NdJ6drCc5lZjbQ6ykbYXgvu/2Ve9YURv7yireddkM7tmBbgPrFP97X9dmf3Pe+QqLvzeVKYH2FLlDkU1NNjmDQzsdS374DoNb4rrpvwfaktwOvFfyb1n0V1idf6bonqCQi+HcB5gmAPZDPmgj0AZJY4IYQw13XEze7tw2aLcN9ZiNYdir1B/cvHioqVivkUJFaJ8xs/B2VeGzpGCxl1u9colVsGeA+mP8OGMWBLR4ZMgV4WEvdAbX3lesxY9/1T5Jz0QzqtMi5gWCMXOrQiTWllhWLcNj13GSwhu8fSUuJVHISJMQjSemNqSLWso0jTJtSOS0tuLGMi33HlDRGJ8RSQJt7hzPfw7UlwERpWXhGQqyDnozC3Q4LHcVaEFWpE+FWevrgypynHlC340xe6shO72sNgF5DPD1s7nw6bT53+c3maf+AKcb6ZkzJWig7fGW22cq5q8VZP7E2cD8nYlxVk6wW7xgq7n/nlW/7tbtXzpPO/k7aAtT/+bla4rJvXvvuate6s/PVwOYKGal0v4vNs1AH0Owbayk+uTiDcn53RgAla965Z6VqGH9gubJtywK2tHIJl6zGDklaxOerxZyplPJQqCPr3meGIXJy+PCg2b5uwOxY12+2DhgzgJFFK54lLoI8G9z7UtrQOanpsiZog2hHURRuImQtBWDSohdr2wFz3Y2u2Ep3vbjN6WmgTY7xQDqBs5loUzMLQM1z/GILyQmR3zZVANcvA7Gpyc5lOweNV7rZ09BrL0JhitY6QT2AcUZ3eePQM7hgwvSKhtNMLeea5UloHbBN6Clg2pwlIXp7E3WGxY1OQRlyEnuSyEHvSpkYCk/ItgS34wIVHVCf3zwQb4+3X2Qc6rm48aoyLAUy3B60+A8ffNb8x1W3mUL/NjPhizXy/ae5dAfU59sns/veQtdPmT84CRUDGZ3i/j2aT/9oa3Ts7V8/8zcemN1drKxPtQWoX1qrhc/51A/OLvYMv7tUC26rQDaNkqiMp/vbXPt9oYNyLsOpNeeZA1rsXxtz9YtbmgCjzG91SSPv2o9CMXRDwpIOAUyCjEEBpCsAvyBKvxbGx0EPz4JMVzXDibA5fKDbHA2i3fb1A2Z9f1RS4whIUtaVrnZe0wJVRM6FDQSj0vQ+04OAuDWoZ2IFSfs4JLb+dwVw5a9oiRIbCyfICeAKXmook6AuGqrMCOCPbh7UmU+JyKqkpo0JGW7ClHETzDuniEwZ5MPJVdT0ZnQxYJ366TxFswV1fUDvxsG532nFE8z5EwVPoqe7C6AeVdlXARwFdGmng0QsnMt4a4fP1g1yN85k09jIx+DGkqBexHh4Dr9f8qMHzDdvfcAE1x9jxsqIfcykM9AWK2w79NTU97iQ9VPmMPudEttY3wjuYZ+vGprYd+PO7tpZ//nGVzzSji3TFkMOi77v5HO+95Z899r3VnyxIytY9Iu0suCKZIGKdj4WMijn8txTud8FuGmZ080LAPPjD84ClfiSLG4AQdRjrWDxKiD+XsbgZ5yeRUz42ThhBcpqPgBjiAZPFm5rkPJScLUPJEJmKyz4w9YPmiO2DJn1SEaMA0vD+FwUqyWkO+D7zgNzNY5MK93LnPfipevl6djiXmNeLHwH6hzhBHQ8Y1FIeQ1XegXPPEJXO+65hLxzWu2stEYwlyg8wzyThlcD1Nn+k+9nblPKy24Xt75T8ENYhKx1MthjcLP3IOWwpyshzHbnwFfegN5PB9TnMhv0s26YyF7ReXbwD1eemJ8JSnjIZzLo1ifAlfzclTeZHz86YoKDu8xEBeNjuuIN9nY6lvrc+2Uu31jI+ulAnXOHoM5BgHBWMTSx55qjBiLvuOiMk5+ey72slM/ObQVaxrt+1We+/0fjkYH/XfLHdleDEFXpgPqce6PVUmfwokx5WVrP5JuxghdfCa6ygwUYwsVOUCeJjuYpXd/U22fmAWp4inKZBJ4RlKLbPAx1LYJqGSVHy7kMAB4a9JBeHETZzx0bB8yx24bN9o2DZrAraJL4LuPwVLGTgUhXtPAk6PZu5L+7hXE6cpE3ACPfEvaaQF09FE4lMMbN+FjU706zkhp+8sg75+5FwBSArulqWlVbgbJ1iiwuqAu42Fx+Z6HX0Oa0zgnqAuhioUdEw11Ic7glApEIy0xRj33OA+MQ/YJ6oqzXw8Vm0MYulMM2JjeD44/56fePlMy/f/c68ygQvprYiHKsEFrugPqyjp7FAHXOvwpEnAjq8Wo5G8zu/85vb9vwPz/06m17lvXh5nnxtgH10z79g9PHYj3/UDSJE00kAXUvlDfsWOrz7Hb9Wh3UAREkzQmEMcdagIP/ghY8EjdZSpKWLA+mUgWYQsdoIyZBNQCIZDpVFbS4gi6R4SAAiIIcAGjsB5BClwbAj5lafhzWfA6AHjPbN28w2zaukVz4voQxvUiAT+Lb+FVi8RpP14kmx1xEhlzVFWGri78fMTMF8yxy0DKwzMfJbM/lJDWSz8gjD48D49oi+QrCoGxcrFu7MVFaQX1hU6guJOO8FMJ4RwlPIHcYG6k+pKwlYhEUL9Lm8FMdkOEE+hJkM9DY/CxoMByCX1ZQ13EfYBI6DwvqDNXw7yxXTJBnZbabH9tvPn/1zWZ/sBfFk/qwIY7XSZ7TNV/HUl/agbUYoM5NPOODYNmgQltuLFbY//Xf3HXE337otOEXlvbul+bsC1uRluaepjzr6Z///qn7wj0fR/b0Sx2oM/2q434/cCdMJ16iQMmUssYhjG4RY9D0DgUOdYkHmWrFZY4MMiiqBRB/DwBpJmo5kIjAoMe5aGEzVY1ubfkONgCS5gnXVgh9FUHMvZLLmszYqGjSxwMV0xP1mW3rh8xuVJLbuQ558D3G9GNhpfWOt23+tfOlT/WszhlNMLTv8zlwL9y0QKyoHk8fzVXBbB8XMCcfgyV8edAbIfmqrFvLf4syHJ6P2vm27vlSgbp7onouugX0ZCxqkom46Usi+4CRAG608KiSPojPiPyo9JFHwewgzsfVcCkOFxKkhFjZBOrwRllQp6hTFeNgH/793XufNBfffLfJRFHExfSgIiL9TEyHmr41OqC+tCNlIaDOOyOUF5FZErCKm+Fyel8sM/rF///wnR/9y9/a2HZlV2VZX9omX7yzn37e9cc9b0LnlwK9u00sFcpAJCWIAKN/JkmuxbuFVXcmscglZ90djoGuKR6aamYTykiiw+eDeIPMcX6P62AWCx5f1dLH5KDCmgAO8twlJYvEO2wObD8JxhNzuSmgm7uQAdCjQkYpY/rjAbNjQ7855rB15sj1a8xwMmzWQqdWWPQksQPMCGySAc8ceqZ4oeylkuvgNkcOdwBATa9CIMzCsuTd+8xorgwiXBaV1MogxWk+uH7HppER97mfaSGbecPp04F6Q4F16qnktcSlEBHJb5blzrYpcnMTBzMB184jXEGw7gW7vb8nZaAZJMRCyw+svypbm23MtuiA+nwmpkpMO1CHd4aDmH+jVweb1BI3tvgvXEWWDTanz+EioiR39wMmvHYbsiUw7gJR7c8OqM+nC5b9O45gyiwYMICxfmSgx1Hcmyq98JG37z7hwjNP6gcDuP2OtgH113/5lp2PZcoXF8NDR5ajiXgRBCuqkUlKU+eYVws4UG+Uf6QIjWW9A4hd8QmCmwi2EIgB5gR1AWcASpG57czxpCtY5F8Io0BOyzwi4YxbA1q+KroiiVgAUWW3sxhJDK6vAJj1ucxekx17HlZ6wWzqT5rNqDb2oq2bzfY1A+awNQmTklrxEuIXgBMvOwh6FMkJ44/6HEhPIWiHoiYN0E9nC2YMRViySED3IyQQwuQlmNK1Lgu75KDLEza1oRfQ+cZ8Qb21YxzI8+/MQWcoo0KGO8s/AsFT8ZjpBqgn4cFg7Nyx3B2w13nZAuralp1j7i2goI7MB2upc7PKYVDDOCxjXSmLD8uP7AqEn9D7T6C5P3fF7eaWJ+GR7VoL3kUC408rsh3o6Fjqc++bg/kNeh+ZTluDMVAtTJgeX/GZ+Pievzvz5N+69B0n+rIH814W61ptA+p//s0fbb79+fKF5fi64/OBUE8VJC0Ch8RuD3AsRlGNxWrslXgeAmuD66OWepWWNV8J8BbkmbPNXF6JdQs408qnCIsCngNBUaPj9/FHkaK37wirXa5FQLfEPHwvjJg23d9MmfPBPe9HELNazpkCSsWWJsawc66ZDSCK7Vw7aHZuGDa7hofMpkHE3q0sKh3oItSJNTiA8cC87nwJ3wdg7oGrfQKSuCWEDGqwuIIk8dEaZ+1xvDA0MNOifKA+kyI33MywDQ6QUlZXoBPFuIYMLs9N4C4g759uwC7UQe+Dhc466Co+2rDS9T68lEB3Zx1Qn8+8cqDuYupB7kzZn2CKMu2RsC5kSWwxIb1k7p8w5l++epV5CrnpuVAXvDwpKcE7E1GxA+rz6Z2D9x2KzbAgE0W3TClrBgKFx8Ojz7zvb971u98+3ecjDaftjrYB9Q9df//aqx984TO55LpTslX/EDyZYqkzhnugowPq07eOgwgBOC5hdfPUud2pNKeqa/VmJijbU5IwGiaYinCMCsAImJM1L6lBmqZWB3Za2VZblcVIuEFgrru4pUkEozsUOcG0oJgLzxz2CuLfxfFR40OaXC/6fE0ybrYM9JqdWzYiVa4fqnaIwSO0yZKxst3AraQnxs3zo/vFBkMmPc6HvHcAOu2uGiziChn9HDuwjBc6PpgKyGM6UG8UvLEbAIYqrBu+RpU4WOkkxaXiCdMNlT6E0pW4xVCH9Is7pgJ0eeK2W3RWwg07UKdFTugO1rXfOVoJ9fwPyopQkQMDw9z8ZN588tIrTQ5FXMZRbtUfSEC8CGN4BgJnB9RXQm9Pfw+qpslQIta1Sh58nsLD8bFH3nvdO//wKsxpL+VoZT+I5+7aBtQ/cfWTfZf86uGPFhPDv5fxhYbDyDURbewZFrWFLtpt05PzuFFJ3bFALFa0BUVV6VOGNV+lxCt+q6tsWfDn4AmDYKbWu35ac98V0N2GgK9yiNueVr7TXy+bZBwxS2QylAG2VJ+hi9ylljFezeI0TPFiqpsf9eCL6RFTySAPHu72Nag4s3N9CpZ8xJx05BHIi/9/7H0HnJ1llf65vU6fSS9AQgJSQw+9B0GaCqJr3V10sa3urvrfdVHUFbE3xBUVUEFXlkWqIkWqAekdQoAEQspk+tze/89z3u+7985kkkzuTDJzZ76P35Ap92tve95zznOeA827/kHJwfJNgJAXaWhEzjmIe2Q9gZ1Psh/d3SYtD5YYY/5lC3u4w314g448VdymVmcVqI8MvnbhEDttje7/IsIDZLU3aQ56I6roqSGv4XLq7JE/YBMWK0/jgHgNQ32LU+yYOgsiMXCjNFCNwhhZWI5mWnApuN/pg73p2c3y6zsflkL7POSsQ2EB8sVGH9Fki2ztcEB9PHpr513DLr3KMKK7kJL2UvK51oHOf779n99x78676869ct2A+vWbS9Hv/vbOL2SaF74/4w3u5sHkY3ELNyaXc9TWAoQf5QfRIqRLnG5ki8BmxNBt4pwN2OZne9Bo/XD8XFZmsh7DiNaYmtEFjV3ahVDsutWGSc8FMZ2JgaPiRhoc89vBNoflm0ecXA1gsuchNKTajZp6xA0EFmGAexEudld6QEK5Xgml++XMY4+S5fvsLcX+HglTvg6bAG5FKDpLN4MSKu13wgPnQK1XsRe9UXUAYWttWRuoE8SVGMfnp6CPpd6ngj/47cyWBljpAQkGjQeEgK7kOD6uXWVtyCONUI2utu6f1mfZm30zVs2oNqEkagQS6BFbR0ZHEpZ6H/56zT2r5J4X1kq2YbakwXrHygNPIcYnayeMGBYxzeuA+uQdZrrmkYODR8wxGwaWenN+4G+zvN2fvulDZz46eZ98209WP6AOqdjvXX73x1KRuZ/K+8J7gt4Aw45xdZOWtLXDsdS3PQBMycgKMFNVzmiJU1HO2Jdkr5ftTwC9WfysuDtcx3bVMXUb22x6y51pu9512aTLW+PqtMgNyDK1LM9CJvwiCPMzBFtY7Pw3jyppWqucEw+buIIL7mrqE8BTwzrwYUlIvnujHLRwvpx59BHSiqt4QaIkIGaSCVi/EcTZaaUz7zyHbLyspuCVsBf0It/bBVWa7eiHaPsMZ8bbrbo9S90GdTuWbjPfmRsfga+9Dd4GWuuMrauIHRcai+Gvoj62J6Hs5nVAfTwW28q6YEY7HS7sAlpuullVvXePxMD5eAv6RD+99TF5dlNCMpGZyPgISIHqg5w33HhtA9Srx/94PLdzjfFrAc3mYciPqoEg0ELSrBBKbr53SXPpn687/9i61H3XdXb8mmjnX+n4n9z7nn5/y8VpX3Qf1gB3o0cYHnWO2lvAlGGtBDFcalqwxIox322XOq12yxmvn1c3MT5CS9/UCTdWOC39asudrHdFK2szYFvc5olpxZq0M+ZeE7nLCl1WQXM/Fk8ywzUFjTFwXCeLBZceAK8HEXPsrsOw3CEFIu+Etb5XR1By3QOoEleUBoBmNpvVdDo7jY3x6yLJUBg/dIFTO75WUNfzLJnibcXU1SrHfZm3z40Fj6amJpnRCoV7utoty1y1+Mszkq3N1DV6TKr71wH12kd75cyypU5ItjZUGu7RsQ3SJvXeYTAMYPy9DDm5H//hPlkTwwfCM+GSB1PaD2AH+GN0OqA+Hh0yAdeoBvUS+tNfSsWb4ptvPKo1cvE3zz/kzQl4pHG5ZV2B+lk/u+OEdaWW7yd80QM8PuPWpPvd5D4DiKwve4HdpvCK1XyOe8w0RDkuaLuorX+31z7DI8hbRHyr3PiV2KN9lmHUlw/G7q0RWR2nrNaj1/i+lWNM5TU/gbkECz7eJacvXyYr9pklrt60NDElCZY9Nx2EUQqI0Gr2Ut2WZDwVmFHbrOaJZKxqOGpB9uMzMV2OljVDCOVceG5qGMNH/NyF56V13tLaJFFUudGUNXUBWlucLR5lJFCv+XGdE6taoDqmzh5geEY1B2gs8AsWOLg70glL/YE1A/KLO/4qMU8jvDtgZiI/Pc2uUZ0DelO2RmJ0mnxXt8D2eqJ6fTKg7oY6KepZIKXNlx3s7shtvmbFkqXf+eLJe3Tu6mcfr/vVvqKN1xPswHXef9UDB60qBP877okeXKRpiF207e6tzv9VkLLclttzv28PtHbg8ZyP1tAC2yIZVffjSJdWjwAW1RDi4/lkt+w3r13OOXQfaceC3IyJmofuvISQS4+TqXFPlz6y5lQ9jvF8zVcvJ+PV8PA4hSz+csoaq7pZ0q1lHXc8CzcQHrxoCKpVTUhbi4LQZ0npK6i7rUZwirLU1ge1nFWd0kb73A0ipXGMENQNMTPmDsh6uOBvfXaD/O/fnkMsvRkbSGgd4vcZfJ71EDScwpQL55gULbC9nhhudGiJZvQja4m0BPLrAt1rf/KuY/b52WeX7U5l4Lo86gvUr1+5eFWP/CLhbzqi4AEtdRiosweqU4hG0yMOqI+mlXbeZ7YH6tu6swF1WMgoDevODUirNycXHH2YvK0tJBFWi4NaHbz7UAdDmMbya1NkxDD9jaU+VlDneGPMn4fKzeJnhgw0lq4pawgRYCWJhGGhg+EeISZw06mD1RaXMfRpB9R33jgbfmUb1BlUYr1BVVDiAk/JYwA7iwsR1Nfhr1ff/Yw8uKZTcpCHdRUD6FemurGWsFEIdEB91/Xb9u5UC6i70I8Z8HOaPblVvg1rfviZz511zfkuF+UJ6vKoK1D/zAOPz77vqb6vF5pmnlP0+FuyXNCrZDKHW+WO+33yj8ntgXp1H9r9Wx1eUaIaUlE8JUg85mNyzuEHypGL2sXTl5Aw5T7xH2u1Mw+VUMqducb9FUTJczaAWuuhJEGL1c5rqAXOyncomZqHBKwfTPwGaLi3IG0tEgTYW4CupEIFdgfQa237sZxXDercZrEgEWkdYE4y6ULTHQnqryN2870b/iIvx8DBCAHUUUNdeSDw+qj7nTsBx/0+lq4Y13N3BNRt4S2uAVwefOnB52dnui+949Nv/924PtQuvlhdgfqPHulp/M3KJz+Xa551Yd7vn5nRqqAVh8r2XO0jta1jqe/iEbeDt9sWqFNqlkDtLmWx2MYlkOmXo/aYI2ccvLcE4zGJUH/eUrfLYgazOA1jpyw+o8VpiKlDStrs2MOpyj3T9dTlbhYGzXuFdU6yFZ0DBPMGCOY0wvXOpzWueKbzGZi3hLgAACAASURBVDDnM/FwrPQda/uxfrrifjd56i4oDpoNlhEmorbCAAyG5xDB+c7/3Art96gUgoin5ylmxBx1gDszP6orCY71oZzzd7gFbKPAXsdHC+plY0LlZRCKw24/kBx8YjdP/HM3fuzke3f4QSbRCXUF6tcjre3y/77rUwlv66ezgeiCnMW4Hkt7OqA+ltab4HPR/0WAdNiPhTY7KO5kl+wedsv5Jx4lC5D77svGlcVMd6oWqNEJDCsdoO6ChJ3ZBNZuaWnpWsvQ92CBZyoUhXQErrxQ0CdN0aARlSFBTzcQiNXS5a4bURa5YZqfU5BlIkaR3ffoMWtDhfEAroWKz2DTlcEYGcA27N41g3LlbffKQLBVCoFGkCLRl6grkOf4YVamA+oT0X3le44V1KlIygqS+WK6FM0OPLh/wPvxn3/4sBcm9KXGePO6AnW+64or7/lAr0T+MxtsXpJxQH2M3V/np6P/WfKck9IjafHBUm/KxuSMI5bJUYs7xINiLiUAu9cqTqM5w1iMaSezuplmT1jpdjW1BO/P+DwlJqkoSd0EWOhBJJ43NQSlCW73AECbTlpW7qaSXkVWlMx/kgKcgkQ1tf0YT7JBnSmStNQ5HkqqzY90SWy6kvAC9QPcf7fyNbnliZeRn94h+UCD5NLItvCHQayydRcd9vsYu2JMpw8Hdfti28vKsc+jfgWzUEr5WCKc6r9zxZ4zP3nJqXttGNNDTfDJdQfqZ/3kthM2S+N3EFc/aJCbastSGu6+HK0r3rHUJ3gEjuL21TF0frycY8w0JLhCWXI1CFp7xJUWN6q8LV+6UE4/dKn4QJYL5pMg0tFEp03G/HuCOq3jcQB1XIUkKy7vJboBAOihgFuamyLSGA1BzILWOVPZcFetR29CRaZqKosXUAtgFA3gfGTcW6DipbE5FdzecdOHTAp0CnQOpQd9c8Ufn5aVr3ZKsXGGFPxRSaWweQxEBJpIWteA+RNOTH3cu2fUFxwrqPuQsljMpZEkk+lx9W74/ceOOPrifzyyqS7rqNuNVndLyidueXqfp9f1XhELtR2R94SRpoySlVYOsq3WZb+cin4oQWrrhwPqo54/k++DaikTnLG7gwhNEyq8uRM9MgtVzj5w6jEyB4VeZAB+HejEFyBQQ3a62x8CWxmkKLhRTeW40bnfRyJh0pXux9jjpoKbBlro7a1RiN4E1NVuKq0ZKV0eRthnmAJi3c3AyTcMan0iCgFRFKiIMUBuhAmNiCQhUxyDbPFa8J+/f8MD8mbaK3HovUsgDDetkU8SF1jwsOy9JgWj1kdwzhtjCwwn2g6Prdvz1kaB4Z+npa6cnHTf+mii58cf/bszLv/gLFdijI81oafX3ZLy+T8+Mu/Bl7u+mW2ZuyLjbWrL5SwZUVtjuypveDTpbQ6oT+j4G9vNFdRNrrALC3QYoE49+BYwmN951MGyz+yw+AZjkJKl7CD04jE2KEJDHTBXwcjQjhbUR3pQNy1wlm4Eyz2MaiwtKJva0hRUQlwun4b8q5G3tSAd/1SJ7ajQifU1tlZwzq6xBWgQMPrBdSJPeVisIdxyxUCUiHl98tTmvFxx8wPSJRHJeECUg7gQQzgkNyJx0Ro/dBc6oF5jF4z5tLGCejGHzThIckFJvN6c7Lvk/33ilN+d4NKqPnV71B2o/2LlutZfPfK3T+bbl/xDrBhYQN1eWuqjSV8bqZccUK/bsatqdAxLa7U+fPncsMRhkQdAmjvubYvkhP3mSUMarvlcAhYVCVElSavqILTgIXNgFoTRWepbA3UXRG6aIshBb27COCyhXCyJN/g0CHoUlTHxWvsgxBPYq35VdzOwjsfLsEcnqOv8p+ogMha4jrCMcAJ56L3YkN3x7Cb57f3PSiKMeLonhLRIhG1gmXMDAAkyo09AUocD6hM2KLYG6lt7oC1SaMnJKWKNyPe/OMOT+NStF674y4S9zDjduO6WFDDgQ1defvO5yYbdL+4v+vfShBRaXOUSmjuWHuSA+jiNpIm6DPLUTQleHKzDzqz0RK+8bUajvPPoA2QhlVsT/SzWgEUYpTSpAIZO96EmNvOSCfTbWpSH58bbr6mhHW4QAOodLc0yqz2o8J2DlQfivSrIaZGW6sPWcWfo1vpb3U3AiernnXBfLX/LHGWIBWXgWfF66cHJa7nVTuQj/vru5+XPL3ZKvnEOsicwgmBAuH1G26AA/WEN+ynZ0bHUd0L3jOqSYwV1bOPEl0/l3MlNTy1tKX3kuvefXLeFXOwGq8s15Zyf/O+pG33zL00FWg/OIcilBRm4pg8D99GMCgfUR9NKO+8z2xOf2d6dqSin7lD0PRdoD8TdC/E+mYl/33X0oXLYnADi6gmIzoAwB0ualjrVRfxQBisBgLWAzDYW5W2Buj4bgCGHqnAzOtpkdjvc/fgVDfES9OCDqAWvQ3Mky9x2v2/vBZ2/77QWUFBnVUJI/qVRvY+bPh/wOQny1Dps+H5840p5HC74fHQmPueTDK15bBK53hTyNCSYdWE2k84xMS1gC8jYGLC99dxeb+wiTuTZRD3FHm9i04NnHjz/k/955NL1E/Mm43fXugT1C37xx2WrU5HvFFvmHJfJ5j12rvD2SHEjNdv2BsH4NbVzpZFaYCygXl0NjmlIWrqVldzSgxLJDsgp++8lp+8zW/yJtHgKCeSEo1wvc8RZihXKYHTZl6vC1dg9BVxjU+dGsO89MmfmDJkzo00asI+wE9VMjXr+zzHNa2zinXZaHvmI9PQZlzrCJRgafiwISZCnXoyJ/OD//iKvpFA7PdDK7aKJuwP1S7DiS1SgU2+NA+o7rYNGcWHVbsexNVAfnhU1HNTZh4Fi4o1gatOt5x+9/OLPLmupW813u7nqEtS/cNfjC+56YfDHucZZJ4K1GiWo20x3O7Y+GpKcGlF12QKjGO118pGxgrrWvqa2OwlzLNBCSe4iQHywSw6c3SIXLD9A2hAz8xTiWJjBUkfAm6IxHiiDsSYQq77VenA9zyiod0oBZLkQrj0Drvjd58+VFhRtYbieyXP0IaiCnX2vqlBRpehtrU/hnFdrCxDUixw77CNoGbCfQH+TAQD2oxvi8qOb7pNO/0xJeMCXgPudY6WAMcSNoJfFfavCPrU+g3Pe2Fpge6A+/OrDQZ0hF3dq8JnGQve37r/o5P/BWlL7gjC2Vxm3s+sS0n6xcqD1yscf/2YyOvscWF3tJMvRDasiIDo1LU1v6nRapT2HgIfVbw6gj9s4qvlC4wXqOeasM70MXc4CL6WBzbJ7yCMfPHG5zPblJURLHeCuLDYS7PBBVm0brUzsiHUFMNpimYx0d3drfrOXlhsW+o62Jpk3a6a0N4dVC57ArlXh6ElQYh6nne1/t8hzI7Rgtdeef67LyVrzyNj5JxLUXXC5M02N/WTZ7dKNneE9r/bKT299UNLNu0kcAB7w+PBZiNIgdZKrvuY3M+vC9uPu/Md17jCsBYzr3WCwsdQxw+xJss2Sz+qc0YOCQ5FS6r6F/tK//N+HDn1qKjRyXa4TlIv94Y/u+Ndk86x/gn7XArrCWIKTHeVm5S24WLOWfrPyj5l/aqnP6SDALwpaLpFfpmqXc9RfC+jEBJiyQAv8okpg4obOB3U3b35QPLEuOfvQ/eW4feZJMJEiIcZUUQsEZBDCNL4g/OTUaR/x1e1BMeyv9iaRwAw3fhzX2di5iRVAJBhCwBXXKyK9LhoKyeyZbbJwfhtoVwy9YyQibhv2M+qOuL/GcAn3dNRbojR4Nluhjqz5bali1eXEnURDzGzSmKNulgEPxIsKcMHnUUN9M35/+R0vy90vrpci4+kIpKOEi46vNP5OPz1DKroJGOJ1mUQvOC0ehRtl1X5Wj4tu1ikqpREVs3HmZo0Gn53lopr/TG01URdwa1DEMd59+0l7+j7z3TOOemMqNFvdrg2n//Kud20oNn0l74/uQwESX16jY1giXQJdEYA6duCMs1L1CZ3NOtpaoYvLvgXqdKfxbw6o1+9QZgpSiUVaFNRZYAOAjvQ1jaHHe+SoPefKGYe9TZqY2kaGM3bmtOYz9OLgy0NrqyZQpyKcR/qQB9/b32fGGMRnimDDFyAXy02mlltF/fT582ZJO9zxxBF8AupyHIfWYgS9cQ0ZUW8OYMF/7UPTNa2SsfxdtYxS3U7cSTLUbFC3DD20PfQGoAiYQmW2tXDo/OC2Z+XJ9QkUcWlRC92H7AmOlCRFZ7CZ8+hmEjBf1T+T5NWm0WNYoI51HGWSzNyhGJWu+WwG4xlT7o2u+7ZVzwJM5jMhl7vH07X+qnMOn/GNfz9m/76p0Hh1uzacd/2jB77cmfhBsXnG8jzyTXxYI42lbios0VJnuU12O3dtCuoUptF0ImzPrGCMA+r1PoxNiprKriqokwHPsZBUdbmFEbe85/gjZQFU5YJZWOuMikIBzh0Ogc2cAzHKrtc2vB22Z6mbRaRnICaxBAvHcKxR/533x/cAd5SJwIYjLzPbWuCO75A2uOMDeEzzpFZNd+u2Q1n2luU+7JHqdrJOwiFWbakrLrtYpNclUDSQZ7oz8t2b/ybrsxCd8UW06I4BdVrqFVCnLDAr/jnHRLUArTSzOda5b4H6kKfRerqccybLRd30lneFeIDl4U1399pvfOzc06/5yO7QmZ4CR92uE59duWruPY+89uVC25xz86VAO0HbFhOh54WATousBIDn7/l3my1tQN30ngPq9TuKtUoWOpWy68w3pQyrSWvjFAc5Lt0nKNIg7z7mMDl0zgwJZqDyhoU4k02KC4IxFBzxoTDHjlrqhoxpFpHu/kFJwgvAwyZO+UjGw0OZEqxw28JD0Airfc7smTK7o1Wi8MfznvQK+vGNKfhiDl5DC82QH1KWON621HH99uDEPbm9idKUNobqIFpU8CAsg565/9Ue+dFtj0miYa7mrNPdHgCoMzSSBmGOoAD2hpb9c0B94vqwWjjKeLiseWKFyAzU23PL/Ms1w2bK+9B/DaXciw2JTf9y96fe/ueJfJPxvHfdgvrNXV0N37ju8X9MNM34bEoi8/20ws2yqB1HQGe5TcZZ1C1vgbp+Aq42/l3LcFYNgPFsWOdao2uBsYQ+tJ+RM0YQ9KEetgF1oiRJFJAPhrKcFwVejttrsZy5bG9pAEM9AOu8hAWanhqe7yGoj8iYNJY6c5GrSXLGI8BsC8ZjXbKpdwCgnjXCJcyVpzuf3iLIF3Ms+pGrThnZEkAjBCnZWe3tMhcbjEbq0uOgh8kLa8MDl669ADEmb+5tcqHNwLYkZq0ZuxU/wuga3flUuU+1v+Bez5Bv4Q1LD9rmxkdfl988uFoKbQslAb4OA7MB6INzw5hhmR6Y9m7L/e6A+kQPpmrmybZDqQronLvWHAqUCqVIov/B3aOeC3//ocNfmeg3Ga/71y2oswFWXH7H2RsDrd9KehuXkMdsMxoJ2kqNsN7OxFQqjEcVj6CVx9QmB9THayzVdJ2xgDrJjgWwlykiEiz6tQoarSmowErRCys5H5cAhGgWRX3yvqOPkrlBt/gzCfFDmCZVSuti7gbTeTSgbqdIVoM6y29XgzoboJzmhO9Vvljdf6aKGy13H563ubFB5s2ZJbNaIYKDv5IuV2AGBz5LFTpjoONFKEFKKVL9EX/QOuwG4B1Qr2m4lU8qW+oK6rDAyYXwBuUtNPkv//QE2O8DUmiZJ0nlazCmjlAKDIccP6zV2TC+ypa640kZW2+M39lbKMyRGMepo+JU1jSipw2/C+VzMW/3W9eets/+X/7G6bO7xu8pJvZKdQ3q77v+3gNf7ov8POZrOAh1qsszi7HNCivVEKHKgG+lPRDYDahPbAdM97uPFdTzrLJFUAdBxo0vgnqR7lTEW1zFlIRzSWlIDsj5Rxwqh8xvFU8qKQEXirt4EUPFouyFshw5F/YGsNIfQy314aDO+zAVqrtnUFKw1AngBHRqJvh8YEjTRQtGXB41Omm5E7B1YQGw5/NZFH5plkXzZ8mMZmQ8W3H2InYJbpDs6L5XUKd/XhvIttZ1JDugPg6Tpgzq8Iq4IByUxVhIwbW+Kg6S3P/eJauSEUlH2jFGsDHD5s+LGh9a+IXZNKrpT1An4aqSvTAOj+VcYgdbgJwps801FjsLNJXXesvDZYjwJE0bPpV+Dn0YLaU2BjvXfe+znzvzJ+e7XKjJNzWOugZ1Vmz7y9rCL5PB5qMgQhOx8xQrwjNY2DVzxXS0ZgpbHW26lrZd3WsN1PVIHBOooy/VjQ4wJah7YaLnMXPzsOCLIMaVIELTgDSlYtcGOXfZfnLi/vNguacAnAlU0XRJOp3CYh0eE6hv3NQlebh9COR26V83qnmxeiAlKCk96vf7FcjVo2B9T7APIaC+57wOmdneJM0Rny5PhiGvPH4m0ZZJPcYFb4O62ZDav6nrATBBD2/XU2eow4PQSRrtGcPXU/C/f+s3t0hPaI7AAwiPngF1N9YQZlbQRCAgeDCuzDozrJTuBL3PdLytAXRa3egPLuPoI2az2AdB3AWCjaawWfOFfWhrU0Tz8VdmZzr/7U+fOPPWqdR+dQ3qjKt/7brnvp0Kt58vXl+Li4spzCd2mw8xSq2fjQ5nbnpFRtDEJjWvkbCu+arOMVEtMCZQp/vda8IuPhAoGB+nnCdTGvMEeyy8YVhYhc1vQQN+prz3xAOlGXO+mOiWQAAENjDTfSjMarPm2QYVi33LmDqtcY4vWtxe1NuOIfe9c3OPWmtKnrNnE3kctMoZw6taZCptbJYYN0h7JGB1tETBjp8lba0hox1PSoAlW4qHNMCuX2Yjys0Bc+TddMdb49fJl97xEcx66sxjZrAugY1ZBuVWb3y2E4VcHpN4ZJ5kA41qmVutrv9qGqx+Z/5SZKzHCeHteOOPwxlmrm4b1EmUdmOu2vOwiDlPr5nP7ym5+tY/dnCb78Jfv+/YZ8fhcSbNJeoa1NmKx/zgrnfFQjO/VfC49yhgoSsiXzmLRS/gReqJphVpdL0C6tburpL1q5GWSdMh0+1BxgLqSpQDqNNN7WfFNQVTRDux6uZwYTpLg7zBQLfMBci/98SjZa82gGE6DoGatORgqft9URsXrUXb7oFtg7oHCmME9a4umHbMsLBSm0YC9vIVqzaQ9BAxV72EGH8Abvo2yMsumDtTWhsRDsB7Md3Gh29s8hy9EQRzNyuDVeezO6Be85SxQZ1+kTgQIoG2vebBtXLTo69ItnG2ZJHOVrAT2QkfXC3pvrXFTLhy6MbKianX3AljPNEYZ2Zjb3LSqy11bIC5J0Z4RVNdaeCpjwthN1c+4Yl3Xrti9/aLv3H6QVMmnm62OXV+nHftyv3eiHmuzHuDByNRCeqNEUnlDKhz8rlgDdEHb2t8G7dlxY1p8SHrvBXq9/HHDOrU7KalrimNZnEtYKIT1PkHH3blFJ1x93XK26Eud/IBcySUyYk3NyjFXArucWOpDz+K5QczfytyUaAMLZXhSJRC7vJALCG9vaj/oKA+9BqaSqmpb2ZzUI7hclmxfkeyVQA57fk0RE6QO9/YEIVu/ByZP7sJmw7jfSfBzo/PMIdDXYeUoq3QR5SFrxPZUTbb4UlAUFddCxgCcbR1J9ryRzc9JSvX9kixaa5ktSQbXe5sXxO6M8V56AWyDAEnT32H2308T9g6qAO61QtjvGi01CkY5KOLHooEhUxiYzjd/bWvfOasq053gWQzhY66B/VvPtQ15/ePPX2Zv6H9HfGSq6XgjSL/mE5Yk2LkJutYRQdYZpPKQ0xj4+S0RSOMwpxzTEwLjKXpKzmnnLDVOgTUKCAIMt6elwbEtUtIbdt7VpNccMIyaebkTvUKyPD4DGUpRgfqBFOCOv+lZd4H4Zl+KMqRC701UB/ufldeR9liRyoerXKAdiGXVXAPQ5VuzuwOAPssaULcXwEbqMLPGaOEErNGUINpdA6o1z5uTTtijNDrgu9ew/++/j/3yZok2jXaLhnUBnBj/PBgbF0VCFVmFEDPTdcI/V770zhn1tYCxlK3leOMkcYwibHJS6zvwLnDsrnoNz8lpJH5ko71vjA7mPt/91x0xm213XfynlX3oA4d+Oh3vnnTx90tMy/K+kK7JZHaVKRABFKVVMBjC1A3gjMeK3hascgmbyc5T7aNFmAZTMt64gaB2d66CFMcRjdvRQlANtZfSEoI1vmH336cLIwilQwSss1+LwhtWNj52WEzYSRLneOJIXICOF22fchRj6OsK+Pb27OUWe/dHENdtYzxqR49gJ2SsLkUqskVs1Cha5N5cMfPaA2atHvuO8nspe2BS9HCVEC3LMXt3d8ZQ1u2QB5rQ4EkKpCpSH1+5K24fPfGv0qvt03yoSYoDmLTpTUiqNbvM7oGqhvOKHylH8eyMXX6pfYWqJ6zQ13vRkm0wLUBxp263jF3/OjFACiRYF4lswNdt+y/YNaXrnn3stW1P8HkPLPuQZ3Netrld54+IJ6vZYONByVKAXRmEMBtWKlcDEsgS1UsdbOsGtERk7fo8N8n5+Ac1VMxvqwLLXO8jQwwPTG0wNmxrMJVykP4BSls+f6N8q6jD5EjFnVIJD4oDSTUEdSJlzsA6gR3pq51dfdKOoOxVWWxcWxxPA2PstpjbIhYicbMkU6VM+qUAQjV8B3yGTD04ZpnKdd5EKqZ0dqspVx1vIJF76XFiBuYGDvH+ZaeglG13TT/EEE9S/c7rLkE2uK2J16Xax5YDSW52ZLzhiQLUqQfa4eCOjThuTFT9zuOvDVeSLR1QH3iBpLuazWWzmcYaqUbPXjkkjBNFJ/zQ0CIm/tgKbteMr0/eNf+x17zbyc0osTi1DqmBKh//OZXFz+59qXL8uG2FRlvQzSZhSWG2LqJoxhQL3joMrPE/dVSNzFYYLsD6nU8prnQmvxT40plf6vFXoSkCwlNSirLYuJD7z3dIwfPa5Nzli+TmYiz+6EFby/II4G6iYlblrkl3UpLnaDOYisE9VSW4hYVULU3iuXrDsuusIUwzE6C1wFwIM1NXftZqJYhzuuFdUjpWOasMz+a0rLzZs+QJujLan12VHjThYyxdStP2rHUd3wQMzedctKQIZJBDJ+r/7RS7ng1LulGxNOt0qoUnVFQdwXLoM4+RF6N/p4WoA30O/4Ezhnj0gLWuj4U1HUGge7CdNI8NmeYZyi97M72Iz89+0zQnbnkmxedevshLoj+T7FjSoD6zx7vbfr1Xx/8dC7YelE+0ja7ZzArDSGko2CnTXcsN3F5gDoVyOxdnRcsCr48Yy+OpV7Po9rovRd0q45pbOWsepCixOpt7Ft/0CvZTBwVmVLSAZvsfScfLYtRa92XiOkOXvGVHpuq2VAGSasuM9kYCvIK6pB+xVKwqadH0lwSVGWsMooqOglmg1F9DNk8sFQk9MY19RIAQ7e6VwkfZMgxZYoCJ7gBQLy1qVGW7DZP2ptCJp8dv/PCXDe1CZnbbivPWXfTmO/QY0pM9nEcqgR1VlxjPL0zK/LDG+6Wp7qw/aOlbsfQLcleBHCULMcCIpQH5srCQ7MYnLTYceyVHbtU9eptNvecHFbKMo03eLIK0ITwYnKxKA/rQTS7MrfN9Lo+//sLj3tpx+5WH5+eMvP85O/f/M54oOW/ksHGvYv+kJSyKNoC12jQHdaqbSzgkvfQDQ+XJVnHyHuipU4rywH1+hisw59Sc72JfwBbOGcUlLmFoxeGJVYpAcxtHImQVC/wFqEulxuQFQcukWOXzJUICrz44Pomw5xpcBQZsfQHjXwsY+eaL063DvPaaTlDYx5WXCJeQMnVmFrsW6rRja49SecsSEgXIT+yNNy8F5i50LfVTUqBFgg9DQAWpt81h4KyaMFsmTOzRfwWhmfggQjgOkiEwwaA09lMaWNNkgRqAgK27hlJfUN3GSMjv4bwlYBkrldeKCbdTmHo7K2OdY/UC/Z7aCYBfkhhnMTQn49uzslP/3Cv9EqzDMIqd4XCKh0LpcqqcJ0p32lIWKZFydlwUmJHN97H+1NmtnIBMOs4ybGcx7rZYhydG3B8MWslQ0VHKEw2ujK97tiGn5/3tn2/97kVizeP9zNNhutNGVD/p1//dd9nB/JXDIaajsqBTuwGS9mPBbiExRnLuQXqWNrdmKiYiKZUqyFUOEd9tgB7jtX3uKxmkOtd0fpn3rpVJ52xdcSgGWbx5JOwzjfLIQtnyAXH7yehZFYCjGcDNKlCVwJZjcLxjMe74b6nL0dBHZvBkguucQCAgjpisLFYQXr6YkZgpsZZZEA9qJDpBah7QZozoM5xSkjltVEyNoiKcqgEl0wMQnnOD6Gadpk5o02aw1is8B8gCHYk8j0sHgE9xhDY0xqvTMhi+xhnpFWRTr0PVp9vBaS3it1TDNSZy9SH1vkjqO9Xwf2e9rRKGoVdJAhZIJJs8TcChOogcJtk9TeSJc1mR9vDyZ6ZiBVEV2/dVCl9FKJTRqOC88eLzbaP8xUT340skQQ8W5EguCipnjeC8c5LLjznnP/5yBQptTq87WtcjiaiC7d9T6a2/d+jj3272Dr/tL5coRWioSAeBaWYMTtrtdSZ0qYCBDao06IZWz3k4bHYydcyU/eJGD+nRU64Gg7qnNDqkSdIA9QJkr5SRrzxLpkNNbmLzj1JmkA6CyOO7QaBhlYxwb9EVTp0qota8krCww4f7PkizlUWLaw6AQlzYDCjoE5hi5pBnQBBMo8S/Cxmu8ZoDZGTRyaPLakfErKwNvLqkofbHc/agaIws2Y0yby2KJ4H/ADU+WZhGrwKyfjK1EtjIxAMY2OrsG6ARwvSENRtHBq+AtjhiGHDZvJb6juyOad1Rw+LW1nvvWiVXz2yRv7w8EtSCHVIPtAADg5AgimR2wB19rshaDmgPhGrjM4TS2xGN8gkvlZb6vibB4xGevJSBHUW2It3Pjvfnf/UHz+54oGJeOZdcc8pA+pMbfvxD2/9l1zLgo92p0tz3ai46LsbDQAAIABJREFUZGpsm2bMc2HXmIvJSjYEF87HHVkMtuwSB9R3xTAd+R7sP681qTN0nVepSxHU+Xda1bCzKTchIfjjgtkBWOi98r6TjpK9OholDKa5FxrxKk5Ei57rPb+lQ9sCdbrDSbbjQVAvAvAH+tMK6m4w1msFdc2RVnduhX3PkJCGDwqIkuP5fZA+TiBMkMOG1B+kdVgEPwAMXsT1W1F9rqMJLvmFM9XfhNC8gD5g0t/IGzTBd7VcbBwnqKsL3vjXqyx2bazyz/VnqY92HlvueoB6HqCO+i0qOnP5H5+Uv74Cb2zDLMn7wnDXUo+QbcJCQUMtdSNqYix1B9Qndv5X9zrd7/YaTwueG2MvjDZNefVhXuViA4F0910HLWn61ytPOeTNiXvynXvnKQPqbKZ3/v7+Y1dtlm8XIx2HFIqswmDiYbqo4U0ZW7dzl5hvWonH7NxGdq6+c1rABnUCEFnMKjhDTwznsAXqylIGWGcgPhEGKy6Yi4k31iVHLJknZx+5rwQTqJBdQC1tWMGGoGZy0cVlGOlUFOPvXTCBafET1PNY1RXUB+JaDGQsoO4G+ZYbijxFMnS7ScETlPqkzoKuRcZCJ6gTZFhMRJ8LFnwRddqbw2Fpag7L/N3apAGWCCvPeRBSaPXTKY8LKHmbsQdTpco8q/FW6aaH8UgKqlgrganhbsiHOnWGx9Ttrtyapb9zunqrV93uY2yxO7FBvQAynFcG8X6r4yX54U0PyKo+NFZ4Bto6iFQ3bLY0z9m431WxEI1pQMMB9V3czVu9naawWn9lz3LDxY2ySW11Szadh0gTwB0eNUl3b4hmNn/942efedVUdb2bOTuFjssef23Br+5++Wuh+UvPjCULLSjygvWc9GSTloIIC/5v3I+GNzxURGIKNcW0eBX2H93vhCgb1DmbbbccQTGL2Jo3EEAhFhRvwS886UHxQk1uAQRo/uGcE6WNv88mAaRww6ub2vAsuJgrA17Ln/I3JvOlBOnQfK4k/QMZyMTiPJZcrXEWGaJPThchipswX9omYJEroJ4kVTTDb8mMA8jwfVws5mIx8AX5088897SEm9yy/Ih9ZcGcRmnD5rWRsXQI2YS9KF6oMXRYMYyxq5XJ9zRJWYw58p3LpWUtkRwCl0rSWjXct3jF7aLprhmC232MbYB6BvyIQTzmyjcH5KeIp28uRqXgawGoY+MGtjSJk9QOZ2len0pOk+vAL3aJY6nvmh7e3l0YKtMRbESBrIFqtm6GIxOEyFQe9R5C+cHn5vpTH731Iyc8sr2r1vPfa1yOJucr/7lUilxy+d0XZaOzPhUvBhcwLmZkfcl41xUZX9CE10XOLJYVyc7a3qnWBb22uzlnVbcAQZGgzoOWLi11HmpfWW55LsoegHqeizKrsuUTAPGYRAtxec+JR8n+sxolCHlWN6xbtZWxQpBJm9ewjBEo8nDnr1AIBjzuA+l4iQ2kZRBlXMdiqev2wXp+OHj1+Xl9Y1Ebxn2Qtb5R9EXz70kGomWNqlPwxUuy5JenV22S19e/JRs3r5Kle86Qc99+pOw/b6Y0YbPQjo2CD2mdmiXHLA96q5RVb8a+5RdQi2Y4qNvtbFHrthx420XTXTNWt/oYWwNz+7EQlkgD1FGOR/7wxFq57oGnJQ3Xe9HdqGVYSwB0tcjxv2pQZ/U/nfMA9Ur0YvjNds27O3cxs93IfhvvU7nGh2Y1cfRS0AlzKTOY9CW6bzxz/8X/dunJe3RO5babUqDOjrrgdw+c9OyG0rf9HXP3S3DNRzUugjrTm0YC9bF2rgPqY23B2s8fDup2OV3bvcwrUy7WDRnQHNCdNbFDAEp/LiGuVJ8ctXShnH34EvEnUa0NsXVEyxmxKYM6fTncHJB3ZkAdsXksIDaoxyAR62Ud9RpnkaksRUcANxDcilgeB7ratUA0C7hkNHrrA9gbRVsAOiRMO1FM5rk3O+XF9UnJA+RDYaijJTZKoDggpx21TM48Yj9pxXmg0eF3JhxhwlAkDfJNzGbIB3Cqjkuq+91y4JF/P5VBPQVQX482+PW9L8jNT6wST8fu8F9EUOXRtBEV55jnTAKibanboF6yLHXT9Q6o1z6Lx3gmM1U0lKSzpxxCK1DSmSOb6YdZhqNK61z9G75yyT+feu1UK+AyvAVrXI7G2BE78fSv3b929xtWvvgN/5xFJ/Vl8+3MTXfT7UpQ14ALJil1nN15WGNMURpbE9S6oO/EJpg2l9ZEFsvSZWiFWs/mMLt2HpzYeQC61w+ZT8TVA1isvYih0w0/P+qVD604UjrAbnfH+qUBpDcWVinB9ZqHl4emmtFdBwQiZ9kF2dYSNgj9sbQM9KKymuXWHssYQFlB3BPgrSXSjYsdCXaaeknGnLLvuWghxa4A13/OFZK+rEtWbeiSZ9d1Sr+vQXzRJuTV47nhcXBlEV5I98uhSxfIu045TPZoEAV3NyrSsT6MHyGpAnkCdDGTQAQPhtZI4BYCsrMsEqMFX62iMdUV4Sajat0WlvoI+Mp3cSPlkQffkXnLPEBzlNXgP/7oxvvl2e6sZMMdaGkjD+vyw/VOMi2IVluAuhWe4TUcUJ/Y5UbDZFwHME9IjrNDqrbHi8JOYcxveOYebinEPnXnx1c8MbFPvPPvPjZE2/nPt8N3eKir1PDF6+74p2Sg/Z8GPf49cgyja3UlzmgWeGGesUl/gDPV1uHa4fvYJ4xlQa/5ps6J2gLDQd2WjK2AOi1T9LXmHplMCDi3xQNQd2fj0uzOyPtPXS5LwCD3Dw5KhJYsBGYK+GBWK7GBsAZg9zJVDEDIGGse7vCBwaSCutrwlkxtrV1iy87S3rDDQaBwGYuDcrGM2ePZM7Qe/RHpy/nksRdflRcB6NLULqlQRNyhqLjgQnBDOSuMTUce7H53tlc6QgU5/+TD5Ig9W2Uurs6M+AArjOVg0SAm76ZrH5sVthvvrnn4AHWNo5NIqjK55t/JeowG1FmL3s5cNcV/zPsM4K0f6crLFbfcK29k/JINtqonJAdQ94Itned5OJHud+Y981BLXXvKbAyMXqVzTFQL2PJIFVA3T8JwHKe9Dwt/RHKxQve6nx6z96zv/HiK1U4fqd0n72wdwyi58HePHvn4xv5v5aPth2a8Xn+RlgjnMr0ztNSxoNmgTmarc9RpCyjL1ZDbbIKZeRMTjzYpY5RdMfnnBEjKsbqg+07ZFneiW86Cm/roPedIUzqLKm6IpmKQZBF7z6nVTBY60+YqoJ4DsPcPJGSwL4lrY8c4BlC3yWiqT0+2NS1KVpPCzyxFwTGbgYhSfxbVpdpnSS+Ybg88/Yqs7YmLr7FD0rC2B7lBgRfCg92rG67IUADCKWDLZ5CPX4h3Sps3Ke867mA5eZ/5sgB/ivB9chBgwvWN44qbBkMIJOD58N4KfPjZtmgn8+jYKqhXyfZyg6JKcxaYc8QU0c792Lzc+lKXXH3nIzKA/PS0D5sjpDIW6NlBpoTK96KPaamrUYCr2KBuONeM5zrrx0SND1P+ln4l45mj107pDvhJM51IcMV8jpaSa/0bX//ipf9xwfUnuKwKPRP10LvgvlMS1H8MIZrr//rw55LNM9+X9AZm5OC2JBnIRbcame9ME2IKFAl01mTdBW3t3GJntIC9eJMEWY4OV0BdddSUKQ7A8oEkSTc6QM+PHKXswHo5aG6bvBMx6IU0umODADLYyfh7wco/92cB7LTGsNCX4MLNYuz0DgxKrB+bAlyXw6dWb42COgZgEcBA5TpaxHwLP0EEYJ7HhUvQWyg1tMja/qQ88uoaWdObkpw/Cuu8hYXYJQvhGS1cRA8U/BB5iufQzY5AfMiXl8H1qyWS7JG3L1sq5x2/DKx/ADseOoT9SDoD3zPeiRZ7ESlyBHEvSYIIU5gcfzyH5areGV03HtccFajjRmhO9UjwP4YduHHpwxpw9UOr5YZHXpR8x0JJlaCrj3GkHguKVVmgTvBmNoIN6kxrc0B9PHpv7Ncoq0hqXJ2kUENwVdIsKzdCGjqa67tvT7fnot997ISXx37HyX+FKQnqj4PF8rUr7nxnpydwSdzTvFcWCyMTTEmmYMer+12LYRhraCwFGRzxmQke5FZuuVZSt1TYjNgKU9Bg/apLGcxySE35rIpNLkiyBlHQJRfbJB2etPwdWPAHdaBeQA9Ke1A5zgv3O9JgeG4QIjB+jhtasgBAVvTq7uuX+ACU3XDdsYK60uEI6AAR9STQSKZ7vEglPAjgRFqlE8y8+55bJS8hjh6aNV+KqEDYN5iSALTgAzgvh3x1blS92LSwBniWErn0MsB9H2ZRmHivePo2yX6oUHfeictlv919IAvCew/gz4JD4MdcyMF6D0DohnnxjLlT81xT2sgcrJvDykGvel47fEBQJ2lKk/ksD/wmeC1+cPvjcs/qTnF17KbZBHRfuBCiIKiz1j31dul+tzf/tNTtoiEmou5Y6hM6PMoeGctgK9d7IMUTCpKF+KB3YMNV7z1i0Vf//Zj9+yb0WXfRzackqLPtPn/jw3vft6bnx+mGuYekPJEmtTyY1sT8dBX+p5uRsUROytonpgPqu2ikbuU2JoWF4ZWhoI4gs3FpE9Thpi5Ryx0TnkQpFWeF0e5GcZdgplvOPvRAOW3JbHEjTa1UBNnMD/Cm8AiGhT8Hhyy9PCwAAvBLYlPY3TcoCYCq3x9WK3sslrqpKEWruBLD1vg/6nkXA1F5GUD+2EuvycYUAKaxBWlYqBYWDIH4F0Ra3QAS4WiCsq46UAgkOFqjFMlhKhYtzSjKulKMxpsakFzvRlnQ6JPTjj5Ilu87W2ZhrxtB80WB21lI5hpLHfMCoO7V+VGZF5M5rm6GxpaAzt/aMXQD5NzIV2b7K7G8XHbDffLCQEnSTVCSc2NjB48O/S9aLY/hG02DrYB6sZynbtzvY1k7JnbmTIG769yv7ncWNTIeO67LHmzQ/YWBtdF055c+8+lzfnu+S2NyU/6YsqD+q7dKbT+/4Y9fj4Vnn5lyN87h4smFmXnrWn2LYh+Ytyx36UzM+hznmkdsgzrdzwyt0NJFZgNBvTLhEaOGFVbIGS8NqOKw1mCtezHpk11yyNx2ueCwZdICy6xYAAEOBlsc3xPkApA5GA7qm3v6JQkGfCAA4MVD1ArqtjgG3fgwlQ3bGh6CQiAo/Ricm1G3YOXzq6QriefFBsIdjBr5Um4A8GzcoATpImchC6bbwW3OFD4DzmSIUmEO1d/w1yj87YVkTAr9m6UdQjaHLFkspx20pywJo157BH9DURv1FJA/zPrTZMkzxr81S72sCTDRY2c4mA/9mRt3jpMc2tPDcIUu+UZF99E3uuS7t6yUjb426fdE0e+NSjhEa9CBa9IbuVlkm8ILxLFWZLiEniArpj4WL99Et1zd35/9oGkjBsaY1eRirQeGrZjlUkrHvfmehw+b5/2XX77jqOfr/n1H+QJTFtT5/uf94q4z1uaavhbzNB9QcHPvzXx1xFQJ6nCrabkGtgA3cGPUgB9lezsfG8cWGALqlqVunMUUoaC8K+PUVowUEz6H1DEf+RVwoyegMNWIKmeFwY2yMOiWjxx7pMyLYFMAUMdqIDHktgYArj6gAM4w6m5YPOIYP13dvZKMo1hKILIFqBs3beXYOuCbJ3XBhCSYciFiDW9XuEESAJ/nN2ySp9a8Kd1JyFzCQs/BAmE5Fz+qh2Ww4chgExAMURfW8EJU5QyeBCb4FABgJeblw4dcULa3YdKXYLH7sQgWYqgjn0rJvnOa5R9PPUT2nBHC74sSgZymj88P3kEYQXm2l8pr6lF5sWrVLt7PPoYsJtXtUE1as3gPW8TCax0XW1xoqPVmspeRc07lQITh0prO50EYReTuZ9+Un93zjCSa50k3uBPeEAq5YONnRIGYCmtynel+54bR5PnbGf61PrBz3ni2ALa7JntDs1UYvmLcBH2EzaxPkm/IwIbvfuiIw6/5wtEdiK1Nj2NKg/p37nlx4XV/e/VimbX4nO5ssS2AScspXkDqjwvmmAeIroU6lBC5ndihA/qTckbYAENrauhhgdmQfjNuVFv/nDBZSqGcKRjk71l+IJTYmpH+kpA8FOdYJz2EdDFXGvt/jTNjzAB8E/kMQL1bChlWbINkrFqymhBmbLdhoE5FO4KtGyImdAUzHGDivABQfJjFZAr4XQJV1iTSIjFvVJ5/c7M898Zb0s80NXgDWFJS76Ha9iQB8R2M61c1aizQZBNsUaRIXfGM0TM+jg0Kwwp4qGIasAa53Blgx5974uFy4v6zUEkc0uf4aAPWRYJ7HgCHKsYWpBu1PUs1Fkl3xiI2qXiajKcbinKxmPI+wAJZu3u0FrmtImDTzWocWsPaWjd5mg1hvlRBD9/SkwGigqaoeSCby9UdWze56s5n5faXNkkSzHdBBgF8M8bKq0rj03ZWWWmrANQYQnU1vuW0Pm244md1GEhDTdgA0zhjKiq9TAF4mLLwSIVR/KgU6318YWP+07d96PiHp1MjTmlQX1kqhb76w9vft97V9Llc44ylcZgzXNRoz1AaTNdKummHZDlsBdwdUJ9y80IXasaPY91y4pI5csqBi6TBDY1ouO+ztIBZ5w9ufQ8laOGepoUfhwXf09PDEuww3KnXPhKo20AHox953xlYvpqPrrLFrATHMADd5kUQ3fLSn0gCSWdIPtwuT6/dLI++slYGYJkHm1DbG6x0c5hzCOqaJ227v7eTUlXONbeAynanaxlZbCg85BVk++TYfRbJOce8TRZjb4FHkjA2AQEy4wmUcMMzR5+gTpU1Fo3xYfGkw9NkbZtD20uBXVHeemyjZFc26Mcb1K37cHqa/HH+Z3gT2mr04OC5PdD2Vwa8J6j56Zvwjv9986PyyMaUpIItWnOboQut0seYrFbo48bQzke3NjFWvnq1uNGUmxiT6IW2xevgHNBwCvpOayRgUvpgqBXTKWkN+fqKPZ13nHrcnv966SG7bZxEr7TTH2VKgzpb79O3PbPvPS+u+3pw9tKTN8ZSYcZB/V7koiIvmUZI0WJJO5b6Th9rk+4GhF4yv/O9nbIkWpQLTjlCZgZzKNEKUhyroCEF0kOCnRZawe+AcIlkUnr7+wB0BDksJhbRbejLVTaGtmVBJrWmnjHejUWIsUAKv3BT4IJ4DC31F9d1yxOr10k/AN3b0Ipceaq/EVjsrA0TH7Z8AtYtt03ytO+vvgTLS6AArLnweCco63mgLe/PxeWABbPk3OMOlYPnuCx5WUjqYn6UmAbI1DpNB4PVimcmqJE5r/Xk6Z5m6EBTxsxMsmlkiq1lK92QGg0FzRzlz9UyOuxXJ1hXgTq5M7alDp8DvjcxclrqBWQUENRf6inIFTfeLa/nwVMIwEfBjBg8WTWo6yNVb+axOfFYoF7L4zrnjG8LcC5k0WG+gB/zEfML45S1EkgMDRdTqyKZ/l9859Nvv+IQlwu75ulzTHlQJ2Huyt/f8tFU0+xP9+WDszxQ5VJiUiYDS4nFO+wiAI77ffoM+wqgeBiHows+2yMXQH1t6cyIAhxFagDnSpSi9amuc8yWQWiuDwzGyZ9XSLJj6OWa6GWQtxjTVmEZFZOh9Ud1BCsvPY9xmIXgSSHYKC+uWS+PPPeKxMBuj86cC5d7QGLYQLBeu7EdTXmKSjx7dOxrOy3NY6nDkfympVZVKxshBlyfefgZyOQWB7pk79lRAPvBcvSSRgA7ysygLcIQqCEJSUU48X68FkVyeJBVbpc01tRgflk4Xg5HDFtlhoTbxzLoqi5kcsd5b76bkdbVcIUSYkECxDzP4Z2z2Dyx3OpDr/XJz2+5T/pCsyXjh5YuxgHfhe53uifKdQSqQN28j/EHOMfEt4BucAHqnCMkiZIfFYESYKiYS2e637zjoPlt37rq/MOnlevdzIFpcHzgt3857um3st8rtM45qIiYWg4rgBexUS9Gge7Ot9UKjtt9Co8QWJbo/DDCLx4I0Zx44GI5+cCFSP9KYnxk4X42JDtDwKEbWpAfHgOwx6HEFtCfVSndIqpxqbcrxdmTi+pwWGIYVkfYFiVgEftLwj3I9DhvU5t0F8PyAmLoz0NYJpZHvffWGZIGiTOBXHWS4mjh2xWoNKZdBfGj6Rjb1e9VIlFloCuwMyRAYR4o1gUDPhR+SUmme520exNy6sGL5dTD9oYKHcIASjVDvAEB6rAnRAF1pPPnxBsMqsVtQhBmNRk+leyfR9oyj3nxUWw1rn2rDqOCOjvGbZEbSgyRMN6KB2C9RpbtYWW22x5/Q66//2lJRWdJ1mtAnWuBDep0v9NKt92/9vMbUOfhAPtoxt9O/YyVsuoBqFOvP4DNpwcuePhe3shvev1HnzhtxW/+/qCGrp36DJPw4mOeV5PwnbZ4pB898ta8a+7928WlGXucn3Y3NKcQLw3TlYaJmduezKcD6vXQxTU+I0Ed0qpMUxpcL0shQPPeEw+VVhjHnlQMrHdDtjJKb9gAAnR7u/sklkJaJIRfuJBQ/c0GdVqL1Xw9kthclBxlzA+HxtbJ6QjiytgwDEKy+NHXu+R5uN2TIKVFWzsAPD6JQemNUsasoV5i8J4kNBVN2nFQHx5TVxe5Be6MMRcKdE8TwAoSAZnel09KfPOrSHvLyWF7zZUVkNFd3B5BKVeidxYkOr+2i2QZzcThA7CzAdQFb8e1t+yO4eA+PguPTYrTBDRrX0FBKQbGDfhSypfiPgbUoduPz23Ao//mnqfloZc2SCYyU3LQBFAVMo3HG81/ygtXx3MdUK9xiu2E08r9Qq4GLHRa6kxEBJ9VivFBgHrygUWh9Jeu/8gpD2GsT4vc9OpmHp+5tRM6bjwvSYW5S6++8+w3sw1fi3tb9soi5zRMZSgsmAUIk5gYpXNMvxYAwCILwluC8EquXxpRtvTdxx4mB8xrlACBOw+LGoBvQB2WHIC3twtqcimAbgT2APO5y6DOOuUEEYtQRRCm0QgrOBSEdwiWcQJg7Q6HxNPQKJ0D/fLS+s3y5Bt9kgLj3R9GnjQAMwEL2EVlN5R0zaAcrMfQ2cugbnM/OGbLbPdtdJymZdHbMAKhjqDuCzZJEm5+n74j3quQ0Zx2QXna3g2vymFLd5NjDlgsR+3dITOI4YhXRvCeIbCOVZ1H/e3cFFjf69NaZL5hz2XH23XRsQ3dMa1ANqjTUjcbJ2qxq+vdBnXKvpINgAWfoE4rfRXEZn52ywPySi8Y8aE2qEtaoE7vhbXp0fatYsFvCer2yzkW+85eN4Yz4O37KdFVU9o471BCmH2eig82FPqvet/RS7/12WlGkLPbZUxTamd35nhe/xM3/m3JE2/GvhoLd5yCuFprEJM8CyazC6Q5B9THs6Xr6VoG1IG82OQhxWtwk5x6wJ5y8gG7SYRSrWkkPyFnnYefFh/S2Lo6ew3wRhvKoM6/01q1+RmmBCQBhlWi/JJKI68cK48v2iylSIN0JuLy9Cur5ZnX35JS8xzkprdoPFdrvjO1Cu7jPNIuA3DXl2AdK0jhoGeJoG4DOn83PIVueOuXmfYWWNnxdH1mXDnHGDnJe2S4U8eBZWexWaEQThhFTRLd61Gi1iUrDlmK0MQCmcVy7siRj4Jl6lXiH81zQ+bTo+zit8tsGGKc/kmf3nLRj0tgfSugbqe1qevAKPbR4QYxXUFtO3l2c0F+eMM9sjEf0LZnZTYt/EMiofX8mq1uERv57A6oT8y83hqgG04ISHLYy2XhNXIhvZQBlFAxubopn/zPL33ihFtQvIVyBNPumDagzpKsF1936wd6vTP+uRBqWpJGnm44HMbCDJazY6lPu4Fvw4wb8escYtzNDQDt/o1ywOxmOeeoA6UDMWQ/JEqK4F4EEG8uZkBwQxrk5s5+MG4BwCz4Ahc5iwSp8AVW/Tyqv5EIFwBZhxhH8ZYQVODiODfvQYk0iMhsSqTl4edflte7usWH0qlp5roDVLSSHMHHIuTZWuOGUV5JG9M4r85aM3VHq2g2ki+qkhrHfHlTi1o3DXiZHCwfHgF4L13IZw+luuSIRTNQ8e0QWdxKkZ6CtGEzAJ0+bF4o3mSlkZUV6HAdNd5pKdt8+GGgbuv217wKaURf26JsqWub8HmsNmOBG2Y4oGcSeK8B/P1PL/bI5bDUPR27oyAOYu6Wlc/3tUF9a9kwlZi6PWUcS31nLh7V3hL7eyWc0qtCFUSbzoFu8AoW9f7ND56yfOknv3fMold25nNN5mvXPJ0m80tt7dkuuvmJ/R99vffb2VDHkSWPJ5qABeWDaljVkrnFqZNf87oee2KyPDNrpVNwBOOA4RiUYl0AT+y7j18uiwDy3ix40kWAOgEcrvcsxkvX5gEABOKviJOzzrmW6WQwzyr1SpY1iVkUeGGBFZyiBVhc0VZZPwhARy3013sHpBRukhLGnuFpm5XJdqeru5hYwdKy1eQ2zlbleFjnaIqVnrndBt0qqCNXnodXCXn8jpY1yHMAdYI77+9GnD2Yj0sg3SWLm33yzlOWy2HzWaZUpJXADwClkI9bQw/VIczqkrjGPa5eer5f2cUwltDXlqCu/gECOlmMemBzgc1HDr9LYoPRjd/87q9r5LcrXxR360IVnKlOW3NAfbtDaZd+wPY02TfV8WiBOjM5mJZMD5Yf/4YK6fWe5MZrP3DmGd/42CIX92/T8phWoE5r/T+v+/NHB70NnyqGmhdmsaDnKSk4YhKAWSgdUJ/a88JDXW8KuiB+HgCAh9L9ctbRy2T5nm2oboa65SgKEeAiAv94CrH0nu6Y5mqXbFBnnizi3/kcqrvBcggGTI31NLXcLXD0NLbKuv60PPrSGnmte1AKkUYphRrJJzfR5yoZVZV8VWCiS78y/ozWuI5Ik61hyZaOCdRV9tSAOjGWNcPL+vkas+e9DHvcDyEaL9Lb8sgSmB0ughm/r6w4bA+ZiXNDtJLwTPA5aK36IuLyZNt7QKJjHXutF29Zw2pt4fM2O92XfDbuAAAgAElEQVQWd6ltlFmxc9zbtrbL7Hcly8GaY2EafKWwacmCP7MWjX7FzY/IfW8mpNQ0G61py+CWYWPER9l6mGP7G6ra3s05iy0wkvu9ov2AucdCRrmkQHkk40/33rnX/PBXf/Puox+fzq03rUCdHf3JGx46ZOVrfZflm+cfVvCHG1hne+SUNmeyToeJQUzzwodXBCBHWEO7Z4Mcsdd8OevIpRKEWz6EeuWmwKpHYqjM1tdvctSp7EbwVs11HrAMtbQvLWu45ZnmlUUcPh8My1t9CXkCKnFruuPiamxHMi3IaRh0jFt7WHZVXdh6kSFNri5GegG4uFmgXs6fxu92pGzwiJZ6FairHhwAmFauXtd6liw2Dz6QAlPUdcDnw+60JDvfkDaI4h9/wFJ5x+H7AuRRxlUtJkq95FHuFRfAezGVzwexJ7V+LXe+vUhr7Wv9/XBQ3ZFRN5TlTrFnjdszd1ktdRZggTeFfYGfMvj3aYjOfPf3d8hrxWbJhtq3gHQ7rDH8KRxQ35F+Gd/P2hkcw0GeY4mg7somwHiPrwule374yfNOvPr8+U294/sE9XW1aQfqN0KM5vL/ve2TPYGZH0y4Q3tQv3vbVbYccK+vIb1jT6uyqQoCyBGHKzqHKmZz4Xp/zymHy9wwhCxyKH6CVDQP1N16AegD8SSAA/Fmxr7paoaJmkJxlFAgLCF/CMz4tBZf8cIaT4Ekt64/Jo+8sErWx5LiRw563hdG+hrAGn/TQi6waiugXgFTO3Zecc1vOVVHG09ni2zT/W659I21bjHtAc7cSuRYdhT56CgYp4SkIMz5MBX3kn1S6u+UY/baXY7Zf6kcvGeTNCqow3LHlx9+iALqvPvA5FevAjcnrJhmbRZouxuLa4zu9+rUNavrdcOAL63gRVEZcqTRzyiqK395pUt+ctO90tO0WFI+VGVj8GMbUrvbIyLu2GhzPr2jLVAN6COdy9EDD1uxMdf1wN4zG7945bsPfRjnTOtFe9qBOgfGRdc/cvD9byS+72ldsDxbKHodUN/RqTZ1Pk9Qz1HoBZakFyDggSsvmO+Ts49ZJocuapEgiG2uLAAZ9cs7u0yOOgVbVF0YojVFH7TQ4Wr3oUA7ykmALAeLF4CeRKnX1V1d8uiq16UbZLosWO2swFaECzgHVz7d3AbUlK6mDVopGmLa19Z51yh01UzdETC3e2pr0FkdejIWupUSxkQwq8Rolu2C+D+fN51MYR8DsRrk2/sgL5vtXCv7LJwlxx+8H2q0z5C5iD4Q2P3IHw6BGW+8FwbQ9dD11qT7mbXXxNprO2xLnaECUytdIxNWCqBqwOPeWYTYSugzprP9/r5n5MZHX5HB1r1RDa8Bz4H+dEC9tubfRWfZBDnb7T6EMIe4ui832NOe7rzm78454dsX7hFlgsO0PqYlqF//ZKzj6/c+8f+yzbM/BC9dGwlBw12flVExrTd9U39yUBIUi74XLGgXwDnkBwDENgPQ2+W0Q98mM1nsB3nc/mBI3tq0SRLIO6fV7mPJdlijebijWeilkIVFmIeFDh3xnDskqzf2yFNvrJNXewclMneOpHHOIFzYTFOjy7CYoiUMAOL3FjFOrVdruFXkYE0RF3NUKoXtaEGREUFdb2L+Qm+BffDXVMZT6VVWkmNKOrIASP7zsyoW/lAAHyWE93YleyAvuxkueA/y2ZdAlW+J7NHiQrU7WP2YXH5LjU+zy3S1MaBu6H7cQIwR1CnWzvg/Nmf2G5i3stPd3JLGwo8Av6wHa/GnN94jj6KIS2/TEoB6FIDOlEE7/MGHqnAMtjn4HVGqXbY2VIO6nZKp2hGYOwVuqDP9z+/bXrrk8+898hbovHO7Pa2PaQnq7PH3//aJ057sTH+j1Nh+AFWDPbo4mIWnYlTYFZ+4FJnUnMriSCuAVb7G4j6c1mNvcrw8Fd5IpoKFXYS7OIja6vn+TTILhV3OPeYw2X8mJESRVx6EG3ndhvWSglXvhevch+FCsleB4qMAlAwA3R1qloKvQZ5bs0GeWv0GLHSMmrYOGWClNYC5FzXKM3DPa71yL0RvgJZp1j7nmLMJZFVM9krKGZvKbDxtK31HQd1ubHv7al0NoGZ/Z8DWlHYloJvUOcrUsqQ6swAYp/bQ04DXyaF6HXXjPfmEhAGMMJbElx6QgxbPkTOPOVQOnBdUN3wQX6zVriBOlziviZ9Mqp5NUzNzzzxB5Ukr1EDrj9UjxpjkJpWO6m963crBJDbzEbjdsRnJYzOyJp6Xb1/3B1mXiULzfR7CIwwYUDzWEBP1cEB9l87LagGlytbVPAL/piRWKgJq+VtT4ZBcFPI0tCJbYjDW5std//5D9v7KJw5rW7dLH36S3mzagvrlL25YeP3tT/57b+P8cxFbnxEkCx4DpoiFV+tVQ/TDTyIzq/9gOLHARhHWHPOalUTkZmzVDLYhlZwmaUc7j7VlC9Aq9sOCS6PamBulRLUsKjTfXdm4NMMC37M1IhecsEwaGWuGHvxAb7fEYhCkAQLw89QJ92Nc4GzJByKSDETlidfXyVNr10sXgtChdui4I75Ocpu6m/EIZKszbm1b5NhLDHOtV56z2uVuO5btvw636Efbv5aiq97fLKg2Og69b4WQVx0asKxiPQUEJRKVWKAGyncNEajmpRPSv/FNWTK7Sd5z4nIUhQkJaIGCoAPS4uLKkIe4I/wbkPXU0q3Y6+j/mUVukuH4xe9ZINkqkqys/C2y9tSLUPm1SQHktej3IKDTNU8yoxd6725NZXtqc0q++7tbJB2eIYN5uN4DTVq5bWg7j7Ylnc+NRwsUsYkimJOkaca05i+AgGoIzFRUpCYCtsCwyin3i7EDYmuK4R1vsRRJbX5xz7bwZf/13sNv2H2ais0M74dpC+qwjPzv/ekdp71UaLwkHe5YFsCgSsFSK6KIhi52TCwCiUkrueGnrAssXixBLpbi5KLhgPp4zOkJvQYXEaZeZWFJk8WuEV4sGJ4CGO/JOBjeeTnj0ANhfTaKJ16U9WtXo8gLqpoFfZKE4psbFns2UZRgtE36YVE8u36TPPDSq5IC49uNYi1wzGtVM1rZXgVzk1eubmcLVIfrxU9og+zgzQmcJWyIotGo9A8k1B3a3hiVrjdXS0OuT848cj8558i9NPc/AmueWflsizQ2PAXorXPTHKiykCkDZYM6HwW+D/2ylHIrT2d502w2gm6WytfhBqGSc18sIJ0NrgZW9bjhiTfk2vseQ936DhSjmQFvA4SHLO/BDr668/FxaoGtgXpOO9Ty4ADMI/AQ+eg9AtKnkaniRl0Efyn+VqD7td9/+LiTvn/Rke3rx+mR6v4y0xbU2XNXPdcz/4q7nvh8PNB0vs/fNCMJv6LLT40s7AxhVuRyKawWXO0RR2RKDv41e0mmIiF0Yyti1f0wmMYvAA+NWujo5xy13OFSDgJFivE+CSJVZvfmkLwDYjSz4YXftK4T8q2ILWPWpLERCAUbsAmAhQorYuXzL6Awy0bJI13N1dgs3SDYeaHnznroSorDmPGSSa4WpUEgLmgVhbj66wO1hiG1zDCCB/XWaSMX0S5ezA1/JiauWKccvHuHnH/KUbJ3O9ynYP03YF75SMCDSzxA/XglHFZ9qRhOlSNdPWH8u+WcZbwfP9rxcybEaVKcBepFDalyx2Q2EJjQsNRdwhX/8psfl3teWS/FxjkoloNNFwr0uJTx6PBmJmr0VYO67TIxIVBa6kZ8icJPQYC6vSHOgszqheqMK91135ELmi/+2bkHr8TnhuaDTtQLTYL7TmtQv7dU8v7s2pUrntk0eKmnZc5+SMCBEUUNaBBnfIyXmqpNXBxYzcsgurEPVPTDYgdPgn50HqHGFqCwCkHJBTd8ltY3YuwhLemVVOsyixS3AxYtkAP2WiRN4SCEKCknTbCAZyedhcVelNVwt69ev17y/rDk8JWl2AkAw0OvD+PpZgSRzmUWKc0Ptx64jglXBPUgrGC2iRvtx0yCDHTxfdgghQDO3BgVkPa299wWOeOog+WYtzUjnxhtgcI2LRDpoc9riGluGG4WqFfZ4epG55eBX0uQVj8Hp6y2LTfcnK1k7HNTrorzTKEDqCfxyWf6RX5++1/lyc4k9PYRT88hlZUCOW5+dtoV8qpxtozzaVU4TG6S25oUWkeB40cnDn01lCXGaMPYCuD3cJRJOt7T31AY+OE/nHvCTx3G+9B+mdagzqa4an3P/OtueuySje7IWYVgS7sL7roSBlceC3oJu0FoFmmL0X3KGGLJTdYy3ai02q1qVNO+Fcd5su+qyxFcYdGVSJbD4s9CJlxCtGcRW49Ae7KUHpQMwGluR7ss2WN3rRfA9LY01OXeAJB39Q1KD+qr5xG7DcJCHwTQu6GkxsVIyW+01Ln/s+K9uJG6+g0JDh9Tinn9HtgG63ums4x3usEHDGrefhFkwOaGKOrSZ6R//RqZg9JuK47YR045eDfZA+546NVgDkGel+mBFt/AGMwEY51sFo3AgDlBfSiRzlj05LVwu4QC9xomo5VHOCip3AzncQDysCIPv5GTX/zpIVmbRU17uN9TmOfKo9AyLw6oT8gIHALqNJpsGmcF1AvoUC9IpXClgeuCEA6yUZqQodLfvWb1obvN/MTV5x1yLzbKJpXEObQF6ntFGYdOxILk+pfbnzz67lc6f5KOtu3rcYVQTpnSGWDMkp8Lt48Bdap0I16Hnb2KdFh1qOs5JjoOzVffl+CiQhU5gLlWTOcCwiItAOIcLPUgQD3ko5JcL2LHGYmEwgrqXrCtU6mcDMQSkqd8KkhiXHw8WHyoNsd6AjlYo6z17KXilQqeE2i4bsEDRAPVdifjvDLzug5bk96NUIg8d4rTUB4WsU6I1RSwY8khhc8PS94H0mm2Z714Epvl+P12l3OOO1j2avcqsHMDxS+GUPllWOuWP15XJ+MtIyPfHBXingF1FdVFGxvdPyOZQ0Y80g3xPYR7JY5/734pIVfd9oDEQjMk5g6KG6RGbuaYp+643ydo4NG9bkU+mF2k/iwVExoK6kV4Tz0If7KH/blBVGKLr/fneq796DtO+N4HFzdsnqCnn7S3nfagzp65ek181jV/euCbm0uB00u+lnbW53LDGssyxs5FXmPoQ0HdS1CndjyJdE4rTtoBvs0Hs0CdWQ+MbRPUA9zE0fKES9kLwAa8wzKHax51xJmOptkOTH7Av35IwJbgRqaueCgUUSu1p7tP3flBcDNKsCyAG4aJzaXKCtdUg7rqoE9gSHcs2ltMK6Jvww9iYDYV1zKx4RAFePIgw4GfgPahO54u8rmtDZLqfkv6174gBy6aI2cdf7gs27Mdld6Y9gaLHe1DWztgE+O0vQDmmFzVzgxboIekQw2FqWXOjRF4+BYDnt6XIrIX+GwpXL0LGH/t3a/KnU+8KqWWuRJHP7tYSQ9hAl7fmb8TNH2HgbpJGWaf0nAyIaoSsktYBZkCRuS6BHL9WV9s831HLGq95PJzD3tkuqvHjdRzDhxZrfKB6+4//bWB1CVxb9v+vRl3IBRt0TrYHgpsmLpclh1AzyB1smlfcMFxQH2CloRxuW2eObBwG/sA5gVs4li1jT/nAVBe0LONvcc4LW0JWvJMa4QrGOQdLjoZxPi8Ab8kYLVTlCYIK5UksGQcojOwYFWDvMrNSKtSE640Pjw26ZXxaIAxgzrLxrKoDdP8GM1GQRcVBiFxjvnuiJWy5Ho+jaIbyHVvh1Ef37xOGlwZOfuEw+SMIxZJFCAcBoAzvY1fqA9nNkEWoGv9eP2N0b9TxQirZr3xNbIxsSWwPPZFuNTzCJOBI4NSq35ZBSXw7117l7yVRBy/ZbYU4D1JIKc+CI5EBjuGSrGc8WhR5xqjbQHd0DJYonOBqZ/c4Bqvlg3qXj+IqFBk5B99yEppk8T6hmzvD//unadd9aF5LooEOsewFnBA3WqQP8dKM35y7W0fXp0KftwzY8HC/kEsVNDydiF9gq68IhYJLiweteiwUFnbe4K6c9RnC6hgiTUDSHwkUYdJVHpY7vI8/q0Q27iZ40LE/qf1gIgsNgW0vDVFrSqaZaDCwFG1Ja7qhVoT3S5kUhGUqbdW1CpuhtmmgG501A0gGwYz39NkjLAN6O2CzwOhLGQQoFiON9klxy+ZIe886QjZoxkWPiIWrQifUrAmj9x3P7wgzEjwIPZtGO8m9g0etGlppgiqWx6bB05TluVEx+RxoTTd794mZb1fdfsT8sfH35TgzMWqvZ8GY99NJUCGQeC2J93OOSamBYaDusI7J5MW5OHEQl+zBDBz1QvJpKd/w2PvOGT+Zy49ddnTE/PEk/+uDqhX9dGld69+2x9efPWyRHj2GTlXFOsQXKgoyanxOavutAssW09VHJRMTeeozxYYCuomtm3BhXH9EVwU1A2pjUc1qPNnShORqasHwLpSR8C4h22Qo3dHFymreIpF88bvbJZ3fbah7YWorjJn2sAo0tG9zUXZaiDml2DRht8DXhEq0Pn718me7VE556Rj5ai9WlSpLwDnSCPAHUmGCt4lbJzytMx1gbc2Cbw+fp+GhG8QEr5k3/MoZNIw2qH3DsTuxG7rLy9vlF/f9aj0e+dJJtAK1jsqzUWQtprtR2gEbvqiA+oTOfK4KSuQgFzeYFsbNfBazJiCF41VFFFnIFRMvjLLk/rVR1ac8pPzp3G99O31lwPqVS30x1Kp8Yqf3/GPr6f8ny8EZ82k9GfAywGHMpJYzYsYeR7IY5atuXpfkLc3OqbB3+3kVju2bUDdkm5VUKqEV1TaVF2GNjm7Uo9cmdm2tKrdbup2N3cwcqzGy2NSdwzQaa665Vyut+ZWTwTDF3h+OsYVxAG6ukBboF5EoNsuxKHtQBcrAFc3ULCom+ABS29eL61IIV2x/EB5x5HzZAaaxotUwSY/N1pA+CJMePIe1Luh+mP4h3KPhg9fgjWvorC4OMHfDdd/P0Dhuc4B+fkfV8qTmxBZn3eAdCG3zecLSDjokXhsozRFQgLtHGujVW+tP3We15QYtj08pJqify1QLyKgHkZXR33ZQXf/5ltP2XePyy5Z8bbnp87bj/+bOKA+rE2/uvK1/W5/dNUPCo3zDh7IuJoYUy9i0BV00HFRpkVgrBBdrNRN5Fjr4z80d80Vqwt0MfZb7Xgxlqbp2zIwqfVtu9vhci6zsjkKjKVuW/UGsM3oUBi3QjcEdVru5nP0BNTn+CGoU2iGbnfVileOCfPF2Q5G7lPrpyvL3PSnXZyD38PnpZ4PH9Le8gOd0uRKyrH77iZvX76v7N3KkppIfQNIQ6BZU9pMQ+JfxFhBWzA6EqyUxzRBaPNnrHr2xOmnXtsktz/yjDyybkDSjfMgDTtLBrNg3KNaXiEPiecSYvzIboCknAPqu2aqbeUuGCckxVmpwnY53hJS2DQjAhu/Bi+4Lpme5+b4s9/65MfOuOkEl4sJDc6x1RZ1mmZICzwCa/07V9/z3rUx18fj7vD+JdTJViKNkjeYcsGlzAMteDuWWL8xUafrFa6tZqgC1mpim+VPt8HbxWwHBXrmuBvynInvGkvcWKkWgNkCGtb1piKoqyVtv68Wg7HbwNq0WDucctlMaq3bGyWy05FRFgFhLeJG2lvvOvGlelGbfQ4IdAfKgdCXpViNVnzjbfBF/XhWjWO3qK4P9tgpdEeKGzD8CGV+ef7VPrn/0ecA7G9Jqmm2ZMJt+H1IAmGQX6Ep4MJGpDESkERyENkOTjx94tYBU4GQ2QouECepIqfjBGRVEh892LmFESIJ5ROdpZ7XrvvQyYd876IjlzpysNvpMMdSH6GBfv1y/+5X/umhL8QCTWenfZFZpPd4sRgxuY1HDotRFixoDkgPFrVa6ltP3ERy7lzdAuoKpySl4rINx5VP2FX47Kiw/Tn9ZNlqpzuZluTQ6aTKWPwV4/IK+eYYrp5V7z1iBRLKr2HzCuyYur4zyU603ulqVVEeMg4xr/xNqhmfQLnbANTyG/0FTX2bG/XKyYcdJIcvmaMSvajmqmlv3E5p+ANfbNMMfsGUN4L5BqD6Y892yl8eelQ2wdcemjFP4lD4S0F3IoOwhz8I2V7sIkLYFTC7Qdn0zgo4gcNvKKjrtgw6BxVQL0kolym6+t98+MT9Z1z83bMOpxwshQWcYxst4AzpERoHi473Y/+7csXfOmNfzYQ69kWZST+ruCHsp7nGGSxQaRdTdkDiIOu32ofrDLe6aQE7Ns4HZniFfVshuhFBDFizkhld7rZrnWBdLBMnTYqj7VK3XfO8pgF0kLGqZWEtUJ8sjWRvNGp5Hi3RSjIpw9lkomt83eg52Iem8GlmANoI3i2CO1PgOGdY8jYTz2qNeU4uF1ywXk8BzPe4FJL9qJOdlkVQ8ttzTofss3C+LJgZkUakxKGWh0WgU+l5easvLY+8vkYeXfW6bOxNiy/UCl3+ZhRh8koG+vJ5lujkJgKWX9RnuPPJJIr2hEPw5LOMjHNMTAswRENuBMcL5ZcroF6EEqAPjPdgZmBDowxc+bV/OPVnJ0RdmybmOevrrg6ob6W/7uxKzLns+rs/3+1uPy/tjszxYeWipV7CIp3FYpaFO4/kHBanKIN6ldvWLsdabbxVh05rrYddX8Nrcj+tDeqGeTsyqBvSjknJMjFc42knwNMVz28Myc7Eye30NbsKWzlmPkmBfaygnneZ4qluuFCZgW+LNNnvT4GXHGvGs30o5KTuVha5wXIOkGdcPQuRHvrViwii5qDFD/I6StriZ+S2F1Dq1oPcd+aitEVD0tqEOu1gxpeQFpdHbD2F1NO3evslBgKcq6EFIXI/qq1GtNBOBtK1njDc7CgJG8ROwMvNN35XALEu2tAksQRKveBmDqjXPk+rx8/I7cg1c1ucESoucg3NYqNMTQfyMZg6Cs9KPp9pzg4+dOSSWRd/+7TFjzlysKPrJwfUt9FOP3hi3f7/c+/Tl2Ub552YKLoCtDhom4QgF5pII54Kck4RixAXd5Wqrhq8KpNRTnEyzUxhBVtwoawyZmUzj667nE+NdwtwUSovRsOAV1XmRliPhnnZ9ZHM5yrTybbspzqJcqR8e3vDyhYpez62UrimOqzBzzMEYtrSEBKhoA8xH2hEgKZeAGmK37u0ApvpGK8HmwpWe6OCH/6lrDO9AtxEMGWeUrAaq1WSXRXJ0UqzcwC99hllNsWVFmQ40vxUrdJHkC6zTKybWRkhXBOx4fPAo0IRZZJSC9jc+ZH36M7GJBjvW72bK/1f//qpd/zhaJeLERbnGEULOKC+jUa6t6/UfOVNf/nAiz25z+YbZuyewYKhRT+QExuG0lEikUBYkL5AUyLQXoiq83SNOIcN6pwERpTEAfVRjE7nI04LDGsBWvl0pduxebr0FUaYbmh92UQ8/mv/3WnI8W+BMqgTtK1sDnu9I8Dbh80/MT8bkikProMBpClm0zCMPEHxUGYZxZOawm5pKMSTvoF1//fBY0/64icOa1s3/k8/da/ogPp2+vaa5/oX/fLP93050zjnxJS/Ye4g3HesGuSGeAZzKelerBzGyrDT3bRiVNmsM01tg3plwI/FATp1B6bzZk4LsAUI4JrXrvF4A9zVwM7fV4O4woaV2ua04M5vgS28MmWPTAVahnq2Kq4v6vdDMkASIC+WPFEU2UGoJDUojb6CBGJvPnXE/LaL//28I+/Z3eViwN05RtkCDqhvp6FImkMVt+V3Prf+Pzxtc4+LeyIh5uO6QOKJwg2fyYJow0WkvAvVpciobOCoFIyogPoo+8b5mNMCU74FqvP8R3pZG7Cr/1Z9TjlVziKrDgf0kc6f8o26C1/Qzu4oh6mqQH1rhYpINFUOCkKZJBrT8Mm4URQIYZUIpIG96a43m7NdP/7S35/w6xUNThW2He1OB9RH0WIP9pdaLrv2T+euyfr+Pd80b3EclaeaMfiKSJQtQjbWlH6kY8nE+oxFYZGq6C5kK1uDfWvEuVE8hvMRpwWmXAtsD9Rty7v6X35vW+2j3QhMuYabBC9kCKbmQaoJovoz+2gIH6XKcte/Yc3EeumFBDfXzzRUALkBCxRTiVB88y1n7LfHl//r1EWrJ8Fr1t0jOKA+yi674tn+Pa7688ov9/mbz/JEW5rdIO1kya5FgQhmsFdydal+ZUazAntVuptd/MIAu2O5j7LpnY85LWDNJ8sfNkIK6UgWuw3+TvPtnBYwoG6UA6n+pgaNBeTm52pgt8hzZSVFroAomoUTMlAULCCkGQ36JL3pjacXN7u+csVHT7rDcbvX1m8OqI+y3R4vlXxX3/TssfeuWv91f/vs/dK5UhjKGZItMM+yUtnLZu6azFyb9Wn/a9XtckB9lK3ufGy6t0BZfc6Kpyt0bMXVXt1W1edN9zbcWe+/JagbzhAPrXdfPipkYVtKWT2XINjxc8wgokxssJDaMN9b/Pn79j3wig8e5bjda+03B9R3oOX+Viq1fenyu85bM5j5dHTm3L3jqAKVU/ENqstZLkFrMDPtRge4VanLbmiKLZjiFxZrVz+/rTzOHXhA56NOC0yxFrDZ6zbb3X69asu82htWlvO1pOKcmPrOGxBGEtkYNOVkNgvUqwl05gmM4qJd9MgG9RIFgYIwjDK9fZnudXd8+Lhll/zHMYte2XlPPfWv7ID6DvbxzyEh+8sb7vhisnHWikKkbd4A0jF8QahTQx0riTKQgVAI4hmUvRyUaAS68civpdrWcFCviIY6oL6DXeB83GkBpwUmSQsM1SngQ9l+d2Op28RFD7yauVxOWUfU5i0gP90PbQEfNQagIORNvPXQPm3hb3zhw8c/cIgLlX2co+YWcEB9B5sOg9T95buePeH2Z974j0Lz3IPSbl9zLIOhisHpCwYlB5Ur7j79Xghm5gH4tOBVQtO6EWNK2N1yx2oOB9R3sAucjzst4LTApGkBQki1hFPF60ghIYI6RWWo7aEgr6RhI9urZ2KtbE9UFKMAACAASURBVHKnN7YUu7794TNP+/WH5rl6Js2r1emDOKBeQ8fdUSq1XvXL+y58vjdxvrdj9r6JvNufhihNMNIIFUpIXQLYI0h3SyVi0KlmCUHKZzqgXkNTO6c4LeC0wCRuAS2IZJsn1rf2r+ySwiqtTBlhagqwZi4OL4rqFJAW7M1n+xoyA8+996S9//Hzy+Y7bPdx6GsH1GtsxKue65l/9Z0rPzngDv6dq7l1biqHsBDT06E0V7DiTKUC67kZ0kiZOKLsT1O+1RyOpV5jFzinOS3gtMAEt4AxVgwDvlLwqPJQ1PDwwGupUr+Mtxch3oVQZQBM90IinnHFu/56+Ly5l15zwf73O9ru49OZDqiPoR2/+tAL+9z68MtfSQWbj3f7Im0p1AAuId+ygMIVmRwsd79PihjMBPRyXN0C9YLFmDfayQ5Rbgzd4JzqtIDTAhPUArYH0pDmTNpaJXUX7neWrPayKBIq+KHqGgU4vfwf1kVJ9KzeI+K59KILj7/xdJdrcIJeYcrd1gH1MXQp1eb+/ncrj33sjc1fcIdal/sbWxoGsnC/wwpnEUofyjyWMJhZuYqgTia8KfJix9UrRV7G8BjOqU4LOC3gtMCEtIDtgbSLuZA4x/r29kGJGUHKGiW6XPg3gIItAq5RKpHc3OrJXH3h2ad8/8I9XJ0T8vBT9KYOqI+xYx/qKjV8/47HT319Q89XvM0deydLXncSo9qFUpC0wU3xlqGgXkBsqZwKYlVuG+NjOKc7LeC0gNMCu7wFqkGdYM51zcTUDXmO7PZcKikhFL5yQWTGCwOnmM8Mwty55bSD5n/5smMWvr7LH3qK39AB9XHo4J+u7J577QMP/GvCG/3/7X0JeFxnee5ZZ87MaLRatuUt3mLHiR3XcfYASchGUhqSQFJoexuWtvS2lIe2T2+fUp72Pre35d7CQ1u6QFjKpQ2lDSQQyAJkX8BZ7CR2NieOd8uWtUuznv2+3/+fI41keZE90mik78DE0mjmLO9/zv/+3/Z+t2jZjhU5D9mdRlS7Tm0iVdjtUetHck3JVa0UZIjbsVbhNHgXjAAjwAhMCwJx7U7cejV2u8eCNLEstgEDplQqKNmGlBLaJSXpFnzTLb64elH2L3/3Vy95/GoVkyNvVUWASb1KcH7u4e1rH3/9wJ/nEguuDdMtHflSSUmkLLicbLFipY3UlKSVTsQuJRR1Sq6b4BzG93meqIc3fW2ift9VuiTeDSPACMxxBI7XQzKed1QYKLIdtZDqED+rsNZVaqmKvCIV8fQkCH24DGtdhdZ7vufAAj3/fz7z6zd/99YWdXCOwzsll8+kXiVYKb7+0fu2XvLy7v7Ph02LLkI2vGVYCSTKjSV1iqfLmJNsJcmkXqUB4N0wAoxA1REYT+rHGBHkdUQynALCFr0uKCEOicIaiJ2q14QZbmLOQ1lvIsj1oFnLD//w1mv+4mMrGrqqfrK8Q4EAk3oVb4QnwrDhb/7xsV8/kHP+SG9adJZnJJLI/0RinIg0jRxJln6QbCL6RE9yCMZb7GypV3EAeVeMACNwQgTGkzzNbQHaTBOvUy06iW1RqJGijiEEZ/SkhaS4YaU1HQ6WOnc99SvrV/zFFz+weQfDPHUIMKlXGdtv7c0v/PaPn74zyCy5s6vgrwqTyYRPzSjGJcvJDHgm9SrDz7tjBBiBaUBApMGB0J0QtT4kJBOQkYLWqShXI4EZ1yGxGShnYuZrMPx+pWf/i5efu+iLX/vApifgoRRqsbxNDQJM6lOA6189tXPFD36++3eL6dY7wlTzco+CTaR6HJe2iQdCWuph1HgiPo3JW95c4z4FQ8i7ZAQYASBwolwekoF1FUeQeuDBFwlr3aKfgxDKmqhPxxRnaaFj5npfWpf2v/AHH7z6kXe1qzkGdmoRYFKfInw//v3nL9x+aPh/28l5F5a0ZFt8mLh7kS+elqjHcMU5TJ7U6ctM7FM0jLxbRmBOI3A8UidQyFKPu06H6FhJMhw6GSswYkg9LkHamuXB/W3K4Fc+c9uN37iNdd2n5V5iUp8imHFTq7d+9ZmLOn3lCzk9swmyC1lyw1fG0ClRjmLuE22j5C6jWKIk7pgN8SwewSkaQd4tIzB3ERhP5hPNMyEmKZWqeSCHbSH7l5LjAuF9pEZscMUHuT2pwYP/8VvXb/6XT164/MjcRXN6r5wpYQrxfmJvaP3lfQ/cMWw2faasNyx3lERLgNoPUfJB0SZB6hOHl06N1OVqmTdGgBFgBKqJwCmROlnrMEoohp5V0aUSVrqLhlYBZcCH5R6z0PWDmy8+92/++pqV+6t5bryvEyPApD7Fd8hdh4fnffvbj72/kFnwaTeRXW8rlolWwog3qYrtlBQjETd2GXsiTOpTPDC8e0aAETguAqdK6j6InMjc9GCcOChbg+WetbTDfQde3XL5+mWf/4PbL9mB/uhod8XbdCHApD4NSN+1tdDxzw888El93tm/7Zqp9pwdoPV6QpSAuIE/JhmFrHfamNSnYWD4EIwAIzAhAqdK6i4MFBPexxQsdaVcQqa70ls48s7Prti0+F9+4+YLt0ExrswQTy8CTOrThPf/eODVdU/u7Pwz12q/TE03LckVipaPZJIQmsiVD9BozH380BxP24nd79M0hHwYRmDOIXDiRDlRwKM4jqOkrbSS8px80H/wF+e0mV/841s2Pveu9nbOdK/BHcOkPo2g/95929Y9vePAJzMLl93kGanVZc9XSW+OXFjxNmqhM6lP49DwoRgBRmACBE5Y0obJSjdCSMMiW0jXPX+o9+2lCft//eGHb3zoA1y6VrP7iUl9GqGnjPhPfmfL+h2H+/5cbVpw1bCjLPCSKUHqVAJCW/xv3BBhvOifUKKr2OKGCtN4GXwoRoARmOMIyAZVkIaFEKxlKoFTHNqfsQe++qEPX/TNzy5Z0jfH4anp5TOpTzP8IO3EHd96/F27u4qfVVvmbyxp1jw7LvZkUp/m0eDDMQKMwGQQqCythaK7kgSxh87A7mS57xs3vPfCb/8Nl65NBs4p+SyT+pTAeuKdbg3D9Oe+8fRVu7tznzbmLTzfDc2O0W9IS3ykLpSCVkT245Tn4s+fnlhNDS6aD8kIMAJ1h8B4fYxKwtBV388Ezn7LK9x93Tnz7/qf159zuO4ucBaeMJN6jQb1/p4w+w//fv+1vWb7Hxa19AacRrOCMjfa4gx46ZCXrVp9+ltE8PG7TOg1Gjw+LCMwaxAQKu6R4SDMB2FQaFEwXaWmU5iISFGD/ib/pR81xQrcQ6lS94MbV7d+4Wu3Xrh71kBS5xfCpF7DAfz2oUNt//rDt+7oDVo+hbqQpV4QZqkfsZVKKHa5oCSSSUSsKGploHEC1Jo0E79pigHBGS1wUfYmAluC+I/djunIfpwr5VughrcAH5oROEMEjumbFu1vvARl/JyP/bxO/SNRWutDx90He4fUdY1mFNFB0lB0z1AsdFtz3QLmGwfTjaskEglF16yj9uE9z9+8LvlXf/uhq7ee4UXw16uIAM/oVQTzdHZ11xthx7/86MHfVqzmX0tkmxcNFkpZWiQ3NTUp3b29SiqTBqnreFFXN0Oo0ZHIsgHVJrmdaqnb8fTh+RY4nXHj7zACMwOB0yT1yOsXd1sjMo9Jna5LDUgUC6SO7mt2qay0NFowJBy8b6Nxi93vF+x7Lu5o/NL/+/VNu2YGDnwWMQI8o8+Ae+HL24tLvvXjH3802dTxK3kjvS7vGlk9lRZx9ADlIvTgkRNeutvxE/Urps5v9GAeIxN7srr1463gZwAQfAqMACMwSQROk9Rje14wADVIlXLVmiBzOeOQ9a6R4iV+LRYKSgPaqqaVoL/cffC5i85e/Nm7P3zB9kmeLH98GhBgUp8GkE/lEF9/rm/J1x997Jawdclveg0L1+/pGki1dSxS7EJeSSDDNAHXlw43GXncA7jiPdUE6UurfezGpH4qePNnGIHZgcDpk7pwtQtLIVBMTBsUO9d9UxI6mMHTPcU1fKXsl5S0kYC+u9ptdx54dPNZ87783f926YvI/TnZZDM7IK6zq2BSn0ED9ndPb+24e8uBDziZpZ8oZhacV/BUFLEHIHVXSYVlJYE4OsW/qBOSqyZhqKNAdOS5muzzFVvsfAvMoFuAT4URmCQCMamfLIfmWDEr6XJHbg6OmHQNBfwNS51ap6qKo6NXuh4qJSmPpbRYiR6v5/CW8xdZf/WpD1/1CuRf4/jfJM+XPz7VCPCMPtUIT3L/n336jY5HXzxwXT7V8Xt5PbsBBJ7WYKknEcsyQldY6+R+D7QkdSsWErOy/I1JfZJQ88cZgVmAwOmSOpXJQg0O1jhZ6EnXBKmrCPGRyQ7pV5C6Ry/MPY2GejTfdeDRdfPTX/3Tj1/7HBP6zL5tmNRn4Ph84efvzL/vmXeuHbLmfTpIobNbYGTw+IHQA+pYLOLrksbxE8XdeRRn4CjyKTEC04HAxKQ+Ku8qPXITlb/SZyhuTmVrpotu6JFKnK95SiB+CRWtXOxN2EM/Wddo/NOf/c71L3HHtekY0zM7BtPBmeE3Zd/+60ePLvjp1q3XFLILPl3SUxuKvp6mXuywzeEd8+EmI2JHN2PIxlKaC2+MACMwFxE4M1Ino4A2Df2gqb5GePzgWae3TcXpTZbyz65s1r74B3de/Txb6PVxfzEbzOBx+vtXjy6450e/uM7OzPtUzmhe71kNGcpRLaPFoQXXGLU8DMgXT2vqSDs+vpwRAZtx78/gy+VTYwQYgUkiECu+xd668Q1YRucBLP3B1HEXSJVq02GhU9JtiBi66+UVM2koVFTjFUtKJvC6EuXcY+tata/91yeufw7fRZE6b/WAAJP6DB+lv31i78Kfvr7zhm4n9buDetP6sqI1NGSbFN/DT+jFTgF2elgnInF6bzzZz/DL5dNjBBiBSSAwGVIXuyUjAAlyqjAGIDCDhFtywRspxNH9suI7tpINgv1Z13lwSUP5a/d9/IZXOct9EgMyAz7KpD4DBuFkp3DX1jc6vv3orlvyqdZPBA3z1vaXvAYzmUANO7nhkS5Hso5RUxgicXrFRH98Uo815iebYHeys+W/MwKMwHQhcDxSH59no0Ueu1jmVUfITiz6YReQhT5o51FoY/vt6cRh/+ihhzcsyP7DPR+75i18Rhaw81Y3CDCp18lQ3bV1X8c9z791a+eQ+jG9ef7qkqI3U02JLlxq2I7X+Pi418ekXidDz6fJCBz/Ka7QkiIij6eBSlIXbvc4DEcsTvOGyM2BBDUsc8PU4X733LSpHVFzR546f9mCL33n9ou243vHk6HkEZnBCDCpz+DBGX9qf/9qfsEDTz5109GC8fta4/xzXDORQRk7YmPwqonEOWmxx253ei92y4/ua6xYxWidex0BwafKCDAC8nk/CalrmnzeVcwFwosHeWkV3j058QdKJm0qpdyg35LIHLb7j/zHNSuXfvXvP7JpH8NbvwgwqdfZ2P3bO7n5//nQszd1lo0/shPpJZrV2GJjeR4TeEzq9Hvshh97iUzqdTbkfLqMwHEREJVn2ETeejSbj2pXRH8DmZOlrmIFYIxY7BSmE10lIBpn79P6B374y5dv+Kf/e92qAwx3fSPApF6H43fPUNh6z73Pv/vNIwOIsbdvLBuJZZXJcuIhj0Llo5b6xI1f2FKvwxuAT5kRiBDQI5IWTVEnIPU4x4ZInTLbE1FSLVnsEIkte6VSl+Xkvv7BSzb8+19fufggA1v/CDCp1+kY/jQMM3f/5wvrXjlU/C1Y7O/XDGNxAFebaM0AQidhGg1PMbVQpI2iY2PjbXFfZEMiEMnNalgNyMlh1K9HjWWOt3HUrU5vID7tGYPAaDrMsTruY5+vuNXy6KnL2vJxzzd+91GmRpXn5H4XXjuQODVuNqlJC34OPbs/dIvvtCb1e9+/af13Pnf5vM4ZAwifyBkhwKR+RvDV9st7w9D6/Pe2nf3yvp5PlQz9vaGRWqY0pBNlX1McF40T9SQe5IQoY/FdpNXhQddNtFJEC0UHrrdkwkIdC9q5it7JJDpBsTY88FGThzjxhhYIZAnIbXSRIH+Lu8fVFgs+OiNQjwjErnIiYHqaKjsykGSrfL7ku1JJMkpwjS7W9X3FMHS0YibihuIklcIgrwZNUvGMY3/ohU65cWkDi3enqFiao6Q0b7ic79vWohe+cufN1z/92ysbjtYjdnzOEyPApF7ndwbca9qnH962YtuOgx/0s5mPFNX02f1lJWNl25SSjaQYcHnSSCoJZLhSMxjXd0TH1gAPvweTXldSwpqnUhf0ZhKkHkXopK48TTRCX55W/uNIHdY9NHB4YwQYgdNGALFt8ZzJPg4xaYt2qHjgxpL6aIcH0ZYZnzd0lLZigW5S8hteIcpcPUqcBZmrSfSD0gyIVTmKiQVCAx7WxrAwXBrq2rG8OfN3v3/71Y/e1KYOn/ap8xdnJAJM6jNyWCZ/UtS69ZuPPvz+cnLhJ72G+WtdM5vKw1xPpSykwtiYINCNyXcVH6nyiURC0fGwF20QvEmtFsl9h2mFLAPSpiC7PE7AqSDz02scM/lr4W8wAnMBAeH/ouQXCn2FRkTu46fkyqoyPJlCFppCaZHFThUu9OySoAz+YuCPJp5pVcHz7XmKTQlyiKU3NaYUd6irO+ztfPaSNR3/dMsdV7x4h6rm5wLOc+0amdRn0Yh/a29+4X0Pbfvl3UPe7yTmL10z6IbNRSJ0SpCBiy6B+FoIN3zg4eFH21YdLrkS2rrKSB1lyKJ+lUgdJoMkdUwc5MITd0mceReb5rGFwbfQLLqF+FKmEQEidcphkXkskqSFAjt50CtyYOQfpGUuSV18U7xNteYBYuRUuUZ/CeF9MxBmo2fYdR0oxZl430XZWm9vxhu678p167741feve4dr0KdxoKf5UDwjTzPgU324+w6Fbd958Ml3v7i/7yPZZasvLobGciWRhLgEJg7E3yyQu+ZiVe+hjStc8rYGDWhKniEXvGjMhPi6YHGKtUfELk5aNpAREpPifUnqlVm3U31tvH9GYDYhMOIVo+cqSmil5ytOh4ttdGGVT0Dq4inFfzxY5JQQp+LZdn0PZG6LcFujpcFyL/bkuw91tZn+vb964aX/+sec4T6bbqEJr4VJfRYOMWXG//hHr63b8taeT9ip9uvcZHYVurwheS5UUqahJHUQNh78EDE430AcTq75ZdY7NXgQk4hM3KFNkniUtBNZ7JS8w6Q+C28evqRpRSCuThExdHHkmMork1Uib1kFsccnGdggcCS8OkiGpZeeRHIsPHO+m1eSXu6wP9D56Mal2e98YONlL3xsU8vgtF4cH6wmCDCp1wT2qT8oEuj0P3/klQ2PvLjrv/eFmevMlo4lWrrFLCFpxqNYO8idYuiyoD1QfHLrwZXni7K4iODj04ysc5FMJ9zzo0pW3Mt96seSjzA7EZCudMTSSYc9csXLZ4w8Yqem0EqOeMtKK/mSpxRdPNcNGcqfCfzi0aGUM/Dy+W3ZP779o1e9gfg5d1mbnbfRMVfFpD7LB/orLx9Zft9TL3xwby68M9OxfHHR1VuRIKskkRnrlm2UvMEaB2lLUlcUl0hdZLuTx08SPt0kQpFKWO3ylhmtf+f091l+C/HlTREC8pkzpaaEIHMZY5cVKLHVXjlFV5a2RYtrssrxCDq2j2c6qaQSyeJwX2dXW9L50lW/tOBHX7pyAwvKTNH4zdTdMqnP1JGp4nndnw8X3HPvY1e93Nl1m9a07LLQbFqaK0GIAv0Wkwa0n+2iAs+8oiVB8ejRXvbhmgehm/Dj+RR7j6wG0YsZ7nlZT0sueshOSoHKKp4t74oRmBsISI9YJamj6yIlu0VNV2hhDWUJmRUvstzx5OHxCxFDp+JzUZOOb1DfFUpwzehKZ7n76EvzG9T//M2LLv7Jb13e1D83kOSrrESASX2O3A9PhGHDI89sW/PQ029+Kq82Xdswf2XHUIkqYCgOZyka3PE2THgfyXQkHauhppWaQGiYMGK3O01CyMZBXawusnXJFa+hRlYW2fDGCDACk0FAakDIBbLIgo+TUfGO1IXAOyKOjoQ3VKpQZzXfc1COirJUZLj7KFF14XJHPE1pMoKeYHjgoYWWftcnP/O+V7lcbTIjMbs+y6Q+u8bzhFdDQjX/vH3P6kde3H/n/mH/RjvZuMxPNbQN2y4EK0IozEGIBu53HxMFTSAp9Fn2y2VB6tIZiL/BsvBB7LATxHsG6t+Z1OfQTcSXWmUEIk0IWkhHCalE4oLQoSVhWBmlUCyJ5kzgcVjpLspTUaKK9bXvlpTmTKbo5vp7LXvogY3Lmr78zduv2IVyNV5lV3mU6ml3TOr1NFpVOtf7ewqL7v7plsvf6hz41VK6/dIglVmigKxtlLqRQ92EGhXMAMUtkTQdhCyQVSvi7sJqMBQXhe8eJhxqFqPDWmBSr9LA8G7mGAJE1CB10Qq1gofxfImFM/4tQx7OMBOoPUdLZVKOw3LaQMxdw3On+MXe4kDfjoVJ/e4PXf6eB//kimz3HAOQL3cCBJjU5+ht8WxPmH1859srf7z1lY8W9cbrEVA/K9DTGU9NIL4O9zqS6aigzUT5G8XvaOKhGB9Z6D4JXkC8hrZYn3qOwsiXzQicAQJxaEuqwcnnSQrMUBKdCHXhOSOFuDKsdd8uKC0WdN6VshuUc51ZLXxyWUfDv9148RUvf2yFyuVqZzASs+mrTOqzaTRP41q+vnPfioee233Vzv1HPqhabRcYTW0dOQ9qVIGhpDIZxXHQGoJcf5EWNdnyISwIesn2EuzpOw3Y+SuMgECAFsqyskSWsokJGRoRkubpj3jWIChDndUak7pi+cXh4d6Du+Ylze9u2rD0h1++cfNedrfzzVSJAJM63w/KT8Kw9fGHd6zZurPz40d849og1bK0pCWNIlLijSS6vGF6gX0uK2pFclzcKYq0qBlARoAROB0EZAsluNXh+dLQIVHoRogsdyTEkcWOfzNWCnlwyGj1bTvhFQcsb+D1BS2pf3zP1Vds+ZPV7G4/Hdxn+3d4Sp7tI3yK14cJJPH5F/Ysf/yFd247MOzdqDS1rjMb29r7CyWRiYupRyTqUFc2qQ8vJ52A+jaP9FuPlejkQaVLUbSfGDmL0Z7ucb37KZ4gf4wRmJEIjBWJkdWfkTbcyOxa4c+KctgoKY6EZ3w0cpGkLuvT6ZMBhboQP6cYmIXE1YRvD5pO/q2Um39+/bL2f7v919618wZVLcxIOPikao4Ak3rNh2BmncC9hbDjZ/c/v37Lnr23u+mWK83G+SuGfc30BK3DVofShYbEOVP6CRF0R99m/C7+RhKzyN/RkWhHJbQh2rySBQJNWilkg5ewTii7N2pgMSpmEy0ETiKkNbookJ+XGcOnv7Ei3uljNxO+eabjP7rgPN5UKL1SE2/UiIXu79HeCfJ8RrXapRsdteQ67nlaBMONrkMLghLkvDJoXU0L7fYkYuW+YuOFdsnox+D5JaXBSgaqkz+g5vtf6EgZP7p202VPfu7yeZ0zAXc+h5mLAJP6zB2bmp3Z3jC07t22b/mTW9+4aV8u+FA52XiOb2RaPC0JVVlNaMeTxU7xdjtA+1bcRclEBrW0CbR5hZY81beTWU9WOghdtJaMy+IiXXmy/iu3eHI+mTomk3rNbosZeeBakjrpOYRE6thi75WUUZZa7XFcPCb1gEgdWeskFmNB9EnDQjlw4OnCh02LWiHn8Pey0tJs4d9CqTzQsz+p2j+7cGn7f918zXtev6NVHZqRg8AnNaMQYFKfUcMxs07mZz3hov94/KnNb/aWP9Hj6ptUq3WhoqYSqHYDqRuwNtDONWMpxWIRVjlq28k8xyQnJ7sAte/4F+QuG8Xg85i8NCwKdHrRxIe3fR2tYEdqdE8ueV1tUp9ZiPPZTD8CsavnZFPhsRa7WKqKt2WNOSW8EbnHG5G6igWwiweG7tvYQqdyURXJb1QiqsKrpcJyp2cIue7KwrZGxRno7in2dr6ybmnT99+9afVP/nTzykOcDDf9d0a9HvFkd3K9Xhefd5UQoFj73+7Yu+KnW968ums4+BU/1bzBSDQt9MK06YOtSdGKjG4YHsJccfwCXIikSIepTjSGjrq9hZi8QOxE6ORyl8l2qH3XXSb1Ko0V7+Z0EDgzUpf9EeIo+mgS6Six0yOAihGh6w7Sx/OgokSUwli4+5UQAk/kfrfwqKTUcMjP9R+03Pzj71qz6rs3X33+m9exdX46gzqnv8OkPqeH/9QvfutwOO+hZ7cvffDlXbf3K+kbjdalywIz2+LbDpJ1ER+ExQ3RSsVDMygDpTekE++XPSWBWluy6lXSjAepC1U6UsMiGUy4IUlmVsYkx57LeDf8+Cz7OBZ+5u7XU8eAPzkbEThVUo+vvdJiJ1tcut9B10IwJir+FO+RL8r3yooF4taQ9ObZpM6I95H8ZqD+3EhAXCbIQx0OC4NCvlPJ9T27trXp3t+45n2/uGOtyrHz2Xi7TcM1MalPA8iz6RD3HgqX/OCJFy9/5XD3rUUjfUEq07zM9UPLBQuD3qE0B4MdOvIiXog2rxb1gYN1Tq532jxMaC4+Q1KYRMw6SF1MdEzqs+k2qaNrOX1Sl8JLUpQpJnUhGiM8VLLjGmWOJg2EoFCWRtZ5Cn0WKIbulhGu0gJbC/v6g2L/2wszxoNXXnDhj265YsXBC1W1WEcA8qnOMASY1GfYgNTD6XSFYeb7L+xZ/Mjrb938dm/+/XYis8K0mhboiWyygK7NNl6UAW+S6hwsFCmlQRYNxdphpQtLXVo8o73ZJ3srxhYTi9/Uwz0zW89RNDkiS73i9pWlnNJmF1UguPd9anMMZbhMCoJOZSewC8XejO4dyfhH7r983ZLvv3vjZYdvW6L2zVac+LqmD4HJzqTTd2Z8pBmPwDNh2PLYM28t/cXeg1ceOtz/PjfRvEG3Fiz29aTmBqZIUDgbzQAAGU9JREFUlKNCOCJ0jXpEjyTRSSUtUs6KhWxGo5KnetlM6qeKFH9uahCQrVOjxWmU605xc1ntITdRwkYfQXJcAu9bgTpo5wYOWGZi+9qlzfd/YvPZz9zAIjJTM0BzdK9M6nN04Kt52dSv/bGHX1z10oFDv9ZZTLw3vWDpsv5SmLEyTSIJSExqHnq0E8nDFUlWDWUEa2gKE6LdK4lvxC8id4rR00bvxT+Pnu/4LOQoUanis/Qd+i5vjMCZIyDvJVljDo8TCcUghESbS7/rSUp3E41WRN9CJMFR+2LyRGnIfCdlOBP3vG4XvLTqH/H7Dr64pi1773Xvu/Lnl66wetjVfuYjxHsYiwDPfHxHVAUBTHrG9waURQ889vJ52/d23TzkqpcbzQuXhabZDLVZMdHRxGiSljWRNinTkQgHlbxR/2hMkPQiUh8l+IlOjUm9KgPGOzklBGghGpO4vD/lYpNeROYBlWbifhYpcriXqZuaSBylxDha0Kq6oylOr1LofWtVc+InF6w46we3Xrfy0OWqWjqlE+APMQKTRIBJfZKA8cdPjAAmNP2bb5aXPPrCto1vHOm5bVBLvFttal7kGhnLR8KcgQz4FERsdLR5ddwyPPAgeAQeyXoXZT+wguhF/d3FpAjip23UTS+PH2fHj5QUnaalfjKxGx7vmY3A1PUekN6i+J6Mf469QMITRG52qCkmEgnR1bBQIp7WlHQ6DYGm0PHK+aN+YeCtVlP5xXlLGx+46baLdt+hqv0zG1E+u3pHgEm93kdwhp4/qdJ9b1v34qdfe/s9nYXSTYO+cZGWbFmoKWbScyCPiWw5ShwqQg5TRbY8CcuTNU8bETn9RL/HVhKT+gwd6Bqf1lST+vEuT1jr8DFZcK0Xcnl8zFAy6GpohFqpODzQZwbFXU2m+swFq5ruvXTzBZ13chJcje+UuXN4JvW5M9Y1uVLKlL97276lz7yy7zf2Hs3d4Kip9kRzS7thZNJFWOJUAkdBd7J0SMjGp7g7SF01QPSRpUT/xqQ+YlmTeE2kXCcsd7bUazK+tT5o9Ul9bG0lLSrJ7T6S5wHP0si9hpuWehgaWJBaml4MHKfHGeo5klXcpy46e/n9V757wzt3dKg9tcaIjz+3EGBSn1vjXbOrff5Q2PbMnq4FT+x4+9Ku4fwNbiK9sayaS5yElQmRUKRBuEOQeOSGJ234SqI+PqnTt2QCUzzxTiZRjt3vNbslqnLg6SL1OEkuVoeTcXRfSWtBLsznugK7uHNBKvncecvPevqqa9a8cUcTu9mrMsC8k0kjwKQ+acj4C2eCwBNh2LDl2c5FP9+596oD/cUbbat5bUnXFylqojFhGCp1s6IJlDKLKzcm9TNBffZ+d6pJfQS5qEyN7k0KC6m6WswoQVci3/PGvFT46LplC5+47Lw1Xb/J5Wmz92arkytjUq+TgZptp/lQGDbufMme/5OXX1vfV7JvKpTdTaFhLg6Syfmer0MiHtY7BOW9iNxlzjssctE4Q6IhlLzwCvAm1cNT0hJt0K0VlruQAInucCkrO3q7j+0KV+lylUl78VbZmnXiTnKyI5foL089sSdsBUtvzu5HTfQHP8klTkTANFZyq/wy6Rccb3+ji70TNfcZHYfjt06VSZbxPUP9CMaOuxBKwt9VfM5EXwONKjTscr/qFPuSqvF6k+E9esHqFY985OKVR97VruZm2zPK11OfCMzumaY+x2ROnTXcmMnv7VEWPPLKy2ve2td9y7CfuChItawIEpnWgZKt61ZCuNV1anFJdcGoAzaQLU+Tdtl1FNfQhSythUUAtYMN8B7VvovN1Kk7NWqGI7c+KdILJqB/RddrfEFqz49s6DwnyAlxUtFFLpr0iXRkJy75kqRB6t5S7laSkJAjiXYVkwXxFcmFSnI5tiCvvh/BkYXOCD3Ky48JnvT9420i0tepZCzCUq6mZAMg0b60QrNAwkdd/2QbXxlqQUlZVDNOAxIv+GTDINkCVSc9dvwuNGFExrpcgflkcVNbYFNa3iYqMyzVFN0DHQ+eIpxXYOBnFb3O0xA5dgrDfqm3u9EpvbS6pemByzdt2LJx8/yuG1S1MKceWL7YGY9Afc8oMx5ePsFTRYDq3O/rVBY+u23Pwq0737l6wNMv8VKZNbqVWVLwvBYibsqWp2Q6z3Mg6IHfUUpUhLqHqB/20C0Ok7GJO9qgRDtKcAL5O0hmIiEQ0SITEzY1lqHJntz5pN2tapLUVTDOCB0L6z9eCIw+IkQagnbGkfrogmC0bzwRjuCzygUDHZc+XGGynsy6PVX8avW5k5E64XAizwehPkLqBJdIqog6+42FSiyaJHwVim0jwyMXD/HY0EdonONFAnlxKkWN6IO0n6JbFCVpJu6REGWWaD0kfifuD1Wv4LrlId/P96eV8gtnz08+fPHZy15AK9QuLBAghswbIzDzEGBSn3ljMufPiJLqnjy4fz4IfkNnvvA+R09f6lgNi+xQa4KdjqK4lLC67BK6XmGyTpqYlGFVCdUvkDtoXFrZ1FsDMfowbrIhLEBp0csGMyBeTWrSC1NOkMpY+MkSly7+se9XhgBG/zLWSj92IOOdjO30NRsG/FTc7ye+zoiUxdKKegXEW4yp9IrQJvXW5SfiXAsifCLigDw6NLI0nrRwI2U3LPCo5akYM6EMR14fGRLRoAhH4keklyAkEWCZh7DKAzt3VC+XXmvX9S3nndW+ZfP6zbt/Z51ylPuaz4a7dXZfA5P67B7fur46Sqp7681DHc9sP7DxzYMDN9pm+jwt2bTEDQyo1KkZmpQt0xKWOgnVCK15WOdGwhSk7vieVKsT7vFIo1t0jKPGsDKaSguAuPVrbImL+DzN75HUrOzCNbrFMfQxVni0P3LaH9MmVu4t2kFE6NH5yH3M3qY0x2uNG+MvtdMrFkMxHiPWeLTYGvmIrJJARqXEM3pfuvlFh3JhgY80WsFgSGIHgdOHyWJHi2D43wXpW0ZWcRwH9403ZGhesTR8dEiz86+u6mh+ZMOy1U9cd8Oq7ptUdbiuHyQ++TmFAJP6nBru+rzYrWFo7ulT5m/Z8sbi7Xv2vqenEF6hmI1rFTPTESYSWTdAYh1ZaSJ2GiW6kTudYvEjnTBlh7iYBSi5LhTJdNJFO+K2JW1vQRrSfT6iPV/pRqe/j7Ho5S+jCXMSZ+kMwDHEcaXFH8fWpVuYLNL6JvXxC5gYl0q3vARjbDZBTOpCa4CQiMId8QIq3i+4OCJvagokcRcihNEyS3hRMM4ybh6NA74EtXU5voDXp8RJqi+nZDe4aTT62SBXu+aVBu2BRKj0WXbu1Wbdfe68RQ3PvXfTufs+vHZeL7vY63O+mOtnzaQ+1++AOrv+58Ow7fnn+xds2bnzkv1HBi4tqtZi10iuCPXEfDOTbAlUS4cVD0NMkghZ8JJoKMhKxC4tOnLXklteQ3IUETtZ79QiU7hsx1nOoi92xRa74sVCQBCNdOXSvmUW/LGkLkIA8YZjxMl1KnWvq+PtZKQeX5qMb49uE5M62dJy8RO72mNXvOxdTomSWKhRLkS8GILWekzqIuhCx4G7PRSWvHS9xx0Cw8DG923X9fODYej0aa7vZrXEofnJxP3rVy752UevX3uUG6zU8c3Ipy4QYFLnG6EuESAZ2pc6lXnPbt/Wsnfv8LqD/d2bbN3cFKTbVrpWar7vGxkXsnQa9XQXxEsWHhG7jKEHIpYOqzyAJhgtAsSjQORd6Q6WLvg4g1t4A6KXtMpVJQlOhgEoyESUtNGPEaKVcfix5BcTXFwCJxcFk9tG9zG571X30+NJfZTE45+irP9xuQpxCeCIy0N4NGhhBff6SBZ8vA/ClVZQ3sgYjiy8omQ4X3hdsCzDPuhFiwJC1KSKhNBRNLdc0NxcrxHkDiZ1e1tzIvFSa4O388rz1h9cu3ldP1zsdnWR4b0xArVBYLIzSW3Oko/KCJwAAVEW93bfvFf2H2zf9s7hC3f1Dd/gGtZZyWz7At3MNAS+jvi7kqRdEPGKmKtMTaekecqmG7P3uAvXsfXwktSpRI6S8CjhzsQPgtTHbMfGyCX5HfPBCjf+ZB/F+iH1SuI/JhExqhWPSw1HRYbGWfaRhyUeu5FMdlqn0cKL/PSi4x/Z85HNHvhFrVzKmUqpLxWWdmVCd8vyVv3Z9eecvX/NZWv60VyFO6XxzDLrEJjsTDLrAOALml0I/CIMU1t39LftPHpg3suvd14wWCpfqqiZ9aaVQvw9nXYVPQvjOgV9G6WE0jjDBNdTbTrVwBPNRzFb1aN4PAhb8LN0lxMle3iPCJ3q38mypxKouCWnaCUrfpcudSTkR3+LyDwSpxnTIz5O+BoZhpM9kmPJrjLJLk7sO7YH/emP8fie9mPKwiK8aO8jx45DD3E1AQiXEhgFHqTnT6EHEnERoi74G0oSKd6N+LYoR9SpUx+y0zUktI3kNAiyRm8AwCj8LMCZ4uU0LgascsqbcF1bSSd0z/FtR3ftQuDaXZpdfLXF1LasmJfcunrlvM4bz10/yCIxp38v8DfrA4GTzSD1cRV8lozABAgQwW9/u691zxv97a8dPrC2O1e4rOiZ6zzdXKJlMu1B0swiVd4qofad6t+J3Il4DHLZU4YVWAQFcOJ/gtjxX4qNk6s3Tu4ykpri+o7iYxFAMXkZOyZ7kcql8GPUeY6IS5AfxYOjrHr6XSwlxsSbT/ZIHp/Up+MmGE/qdJ303kiSWnT6sbdDhCtI6GWc7K8ABwskFTkN4rMg8tC3FQ1Z6SYEZgxaZIHYNVQzeFGNOfUIQEs/UY0W4vuUzGgE3jBGJO/bxXxKDXrdQv+eBjN8ed2C9pc2rTx39yXntjKRT8eNwceYMQicbAaZMSfKJ8IInAkCFIN/7rDS/sZru+fv2Ne1tiefu3Sw7K0uq+pSxcrMs7LZBnSMS+bssmlDkS5hplDmBMLxYX3Df6yRzx0MJUkbv1MDGvy/GKAnvA4yx4KASIYUzEjkTIsazPgoq6NtRGmOaqRpcRAl5QlyG5dEJq9z/KM5nsxjNKa/HK7SEyAj16NVAiNJglHaOtWEi/a5cRr7yIKGyJq+hyUTFlIasCMPh0iVE04QInk3eh9ET1Y5Poev+27Zy/uOD7e6O2x4uUOG6h7MhMHONUsbXz1v7Vlvnr955SCXoZ3J08LfrWcEmNTrefT43E8LAZCS+oNOpbWnq7v5xf1d7Yf6Bi7oHhq8dLBkn+NnMx2GlWrUMw1K2QkM+NvTupAPJSU6sDiVOhMZBeQCRn28DrES9NQm4iK50RCWZmy5koWaSohQfsTTMjEuhNTtCDGehNRH3d8TkzotJCq704nlQESc413npwXWBF+qJPW4I54g94i46T1RLx653UUrXVFeJhcgIq8Baxtqs2saVoQXfQMWfYhFULQQ0OHdSOmUo+56im+XlbI9pAfeYUgN7WlMp15rTqmvrlnYseuXLlw5eP5CpcCZ69UaYd5PPSPApF7Po8fnXhUEqOf7S/1Ky47dB5re3Hdw1ZsHD17Q5wUbCq63LN3Y2oAy+SZdS2UQgLfg8IWGqA7yiUiWsquFGxkmJFzwkrhkKZWI1cPqF5nyFURbSfIjBHmMtS4fzdE4+bhHNeonXxlTH+8arwY4MWlX7quS1MlDIa94NKwQ67LTdwgPssLjhQ5dDwkEmQhx0ILEd2z5GbxHFjspwjmeU0SwvZg29EJheGC40dD2NSa115st682l2cxrq5av6F6xpjV3R6s6VI1r5H0wArMJASb12TSafC1VQeDZnjD7Su5Ia+/hUvtL7+xeZJeDdQOl8uKcEy72tcRiP2G2gtubVU1P+YGeJk4jS1WlmC/I1oe1TkI4QvUMjWZkDTtZ6PJxIzEUIkGyZCX5S3WzsdtYUhfiNSMdzcjcjb4nvhRZwBXJaVUBgg4zwT4rPQMa1jiCsMk2p+uiyjOKkZPhTta7KCmLxHqo6gCLnNhiT+qq22B6Zde2y57rFTU1GPb8cg8a8nQ2mup+eDl2bTh70a6VbYsPrWxvzd26Qh2s1nXxfhiB2YoAk/psHVm+rqoh8Mxg2HLkaF96x57hhoODg0sOlwc39uRyF+TscJmWyLShbSzoW7NM08omLMtSVAtNv0JDU5O6QyQmSB2kjJi8dDLHmd2I3cN1fyJSH72IiUldEuzY5Dv6TrWs9hORumhLKhYtowsLkZMuSFzKxyTRiMeHABC1zgNGpcB2nLLjlHRNzSd1b1hxBo9kVK+zqTH1dns688aqjvbDK89ekVs1zypclVUKWCBw2VnV7mTe0VxAgEl9LowyX2NVEaCs+r6ckjngllLDnY759qEeq6v/YEtpKFgCl/0S2/Y6im64JNSMJUYy2wZ/cyPyua0QbeV8TTdA8EmQHkqzIx3yEdEbeZoj6mvjsuJHLXVp1ceETg4AkYVO64NY0Y4yxid4P/77+HrxYwGS3xelfmR5g6lH5Ncrst2F6xzeBpPc5zIfDnL6votIuK24jm2GXs61S72aExxNJtSedCbZnUlk9i5sbni9vWVB95oVWqltUZvT1KAUuY1pVW9T3tkcRYBJfY4OPF929RGgBLwn9ylNO4/0Zd7u2Z8Kk0bj/iNDa7p78+cOu+H8IGG1lZygxVPNRsNKJl3NS0GPPOX5nuWrYSKZzOghgvVJTTfLELQ3TSMIPTj1KesbBO9RujjVb8PqJ6LV0EveoVI8ECpl71HttomkNI/i+vSioAB1JRMLBSrARwY5taQla5oWBfiBsvWpcxktEKg0j9rb0mKD2tsaScS4YY3DtkYyoBbC6vY83/X8IHSR7Oci/u1YfmDDKVF2S3kHTocA5WhIZnN6sqpyNGMaXUtaWt9e1KrtaZ43b3it1VFsXZEqwwIfZl316t9/vEdGQBgFDAMjwAhMLQJPoNvcwbySLnUr1ju7DyULSikzfLSU7coPdjhKaanthfPA1VnosDTZRafRCcKkrhvJTCYdlL3QVP3Q8tCQDj3fLdR1mSiXM3yo4HiBb+pmEhyPxqHIOiOZc0NLqKJrHV4QyQX3Yq/YfNmEXEi/0Gfpvxo+SEnooHUfPehRUeaTwqrrhy7WD64H8RwU8mHvIXrYO07eDd08DPbBhkxq2Eolh7CTfMIPjsxvyXY2pxMDTUZyeMGypfbyjqZyFjJumSaldLWqlqcWXd47I8AIVCLApM73AyNQQwSofv7QASVVdPPmULdtFlTXdExN7yvl9XzvcLqvZLcP+7lGpxg0lJSgCYTbbLtqCjK3FtjXQhl8Aj3mNd+V9e9oPAsxNgc2NH5H2jks8yDU1QAuckT0NR9E7kESn/qHo0AvsHU9dH0j9OEmd9Bz3DEDvZQ0NdsyE8V0Ui22JdIHGhqbCvO0RsdMBX7KSARWQ5O/sCHlNjcr5V9qVvKwuuu7K00Nx58PzQhUGwEm9WojyvtjBKYIAbjI9SchN2/2KmYJWWc2LHMnr2hmo6IOdMNKz0rPm10sjDzXXpgJk0FeWOtWpiEcCHNhSyYbuINKCD29oKFFCVNw1juw4q+H+i32719FMjvquF6zU3RNvFtGgBGoLgJM6tXFk/fGCDACjAAjwAjUDAEm9ZpBzwdmBBgBRoARYASqiwCTenXx5L0xAowAI8AIMAI1Q4BJvWbQ84EZAUaAEWAEGIHqIsCkXl08eW+MACPACDACjEDNEGBSrxn0fGBGgBFgBBgBRqC6CDCpVxdP3hsjwAgwAowAI1AzBJjUawY9H5gRYAQYAUaAEaguAkzq1cWT98YIMAKMACPACNQMASb1mkHPB2YEGAFGgBFgBKqLAJN6dfHkvTECjAAjwAgwAjVDgEm9ZtDzgRkBRoARYAQYgeoiwKReXTx5b4wAI8AIMAKMQM0QYFKvGfR8YEaAEWAEGAFGoLoIMKlXF0/eGyPACDACjAAjUDMEmNRrBj0fmBFgBBgBRoARqC4CTOrVxZP3xggwAowAI8AI1AwBJvWaQc8HZgQYAUaAEWAEqosAk3p18eS9MQKMACPACDACNUOASb1m0POBGQFGgBFgBBiB6iLApF5dPHlvjAAjwAgwAoxAzRBgUq8Z9HxgRoARYAQYAUaguggwqVcXT94bI8AIMAKMACNQMwSY1GsGPR+YEWAEGAFGgBGoLgJM6tXFk/fGCDACjAAjwAjUDAEm9ZpBzwdmBBgBRoARYASqiwCTenXx5L0xAowAI8AIMAI1Q4BJvWbQ84EZAUaAEWAEGIHqIsCkXl08eW+MACPACDACjEDNEGBSrxn0fGBGgBFgBBgBRqC6CDCpVxdP3hsjwAgwAowAI1AzBJjUawY9H5gRYAQYAUaAEaguAkzq1cWT98YIMAKMACPACNQMASb1mkHPB2YEGAFGgBFgBKqLAJN6dfHkvTECjAAjwAgwAjVDgEm9ZtDzgRkBRoARYAQYgeoiwKReXTx5b4wAI8AIMAKMQM0QYFKvGfR8YEaAEWAEGAFGoLoIMKlXF0/eGyPACDACjAAjUDMEmNRrBj0fmBFgBBgBRoARqC4CTOrVxZP3xggwAowAI8AI1AwBJvWaQc8HZgQYAUaAEWAEqosAk3p18eS9MQKMACPACDACNUOASb1m0POBGQFGgBFgBBiB6iLApF5dPHlvjAAjwAgwAoxAzRBgUq8Z9HxgRoARYAQYAUagugj8fxi23oDYgCn5AAAAAElFTkSuQmCC;" vertex="1" parent="1">
          <mxGeometry x="615.24" y="-687.11" width="69.52" height="69.11" as="geometry" />
        </mxCell>
        <mxCell id="8mGdIE1k2Qn3FHMWnjpY-19" value="" style="endArrow=classic;html=1;rounded=0;exitX=1;exitY=0;exitDx=0;exitDy=0;fillColor=#FFB570;strokeColor=#000000;" edge="1" parent="1" source="8mGdIE1k2Qn3FHMWnjpY-1" target="8mGdIE1k2Qn3FHMWnjpY-8">
          <mxGeometry width="50" height="50" relative="1" as="geometry">
            <mxPoint x="-70" y="-260" as="sourcePoint" />
            <mxPoint x="-20" y="-310" as="targetPoint" />
          </mxGeometry>
        </mxCell>
        <mxCell id="8mGdIE1k2Qn3FHMWnjpY-13" value="Gateway" style="text;html=1;align=center;verticalAlign=middle;resizable=0;points=[];autosize=1;strokeColor=none;fillColor=none;" vertex="1" parent="1">
          <mxGeometry x="410" y="-719.11" width="70" height="30" as="geometry" />
        </mxCell>
        <mxCell id="8mGdIE1k2Qn3FHMWnjpY-36" style="edgeStyle=orthogonalEdgeStyle;rounded=0;orthogonalLoop=1;jettySize=auto;html=1;entryX=0.5;entryY=0;entryDx=0;entryDy=0;entryPerimeter=0;" edge="1" parent="1" source="8mGdIE1k2Qn3FHMWnjpY-4" target="8mGdIE1k2Qn3FHMWnjpY-5">
          <mxGeometry relative="1" as="geometry" />
        </mxCell>
        <mxCell id="8mGdIE1k2Qn3FHMWnjpY-39" style="edgeStyle=orthogonalEdgeStyle;rounded=0;orthogonalLoop=1;jettySize=auto;html=1;exitX=0.5;exitY=0;exitDx=0;exitDy=0;exitPerimeter=0;entryX=0.145;entryY=0.855;entryDx=0;entryDy=0;entryPerimeter=0;" edge="1" parent="1" source="8mGdIE1k2Qn3FHMWnjpY-5" target="8mGdIE1k2Qn3FHMWnjpY-4">
          <mxGeometry relative="1" as="geometry" />
        </mxCell>
        <mxCell id="8mGdIE1k2Qn3FHMWnjpY-42" style="edgeStyle=orthogonalEdgeStyle;rounded=0;orthogonalLoop=1;jettySize=auto;html=1;entryX=0;entryY=0.5;entryDx=0;entryDy=0;entryPerimeter=0;" edge="1" parent="1" source="8mGdIE1k2Qn3FHMWnjpY-30" target="8mGdIE1k2Qn3FHMWnjpY-4">
          <mxGeometry relative="1" as="geometry" />
        </mxCell>
      </root>
    </mxGraphModel>
  </diagram>
</mxfile>
